<?xml version="1.0" standalone="no"?>
<!DOCTYPE svg PUBLIC "-//W3C//DTD SVG 1.1//EN" "http://www.w3.org/Graphics/SVG/1.1/DTD/svg11.dtd" >
<svg>
<metadata>
Created by FontForge 20090914 at Fri Sep 26 01:03:21 2014
 By www-data
Copyright (c) 2010 by vernon adams. All rights reserved.
</metadata>
<defs>
<font id="Nobile-Medium" horiz-adv-x="1236" >
  <font-face 
    font-family="Nobile"
    font-weight="500"
    font-stretch="normal"
    units-per-em="2048"
    panose-1="2 0 5 3 5 0 0 2 0 4"
    ascent="1638"
    descent="-410"
    x-height="1182"
    cap-height="1602"
    bbox="-145.999 -756 2858 2433"
    underline-thickness="40"
    underline-position="-292"
    unicode-range="U+000D-U+FB04"
  />
<missing-glyph horiz-adv-x="759" 
d="M552 69v1247h-414v-1247h414zM69 1385h552v-1385h-552v1385z" />
    <glyph glyph-name="uniFB00" unicode="ff" horiz-adv-x="1625" 
d="M1408 1497c-28.667 0 -52.333 -4.83301 -71 -14.5s-33.5 -26.5 -44.5 -50.5s-18.667 -56.333 -23 -97s-6.5 -91.667 -6.5 -153h319v-127h-319v-1055h-275v1055h-466v-1055h-276v1055h-225v127h225c0 180 29.833 311.667 89.5 395s152.5 125 278.5 125
c28 0 55 -2.33301 81 -7s50 -10.167 72 -16.5s41.333 -12.5 58 -18.5s30 -10.333 40 -13l-32 -194c-19.333 8 -38.666 15.333 -57.999 22c-16.667 5.33301 -34.667 10.333 -54 15s-37.333 7 -54 7c-28.667 0 -52.334 -4.83301 -71.001 -14.5s-33.5 -26.5 -44.5 -50.5
s-18.667 -56.333 -23 -97s-6.5 -91.667 -6.5 -153h466c0 90 7.33301 167.667 22 233s37 119.333 67 162s68 74.167 114 94.5s100.667 30.5 164 30.5c28 0 55 -2.33301 81 -7s50 -10.167 72 -16.5s41.333 -12.5 58 -18.5s30 -10.333 40 -13l-31 -194
c-20 8 -39.667 15.333 -59 22c-17.333 5.33301 -35.5 10.333 -54.5 15s-36.833 7 -53.5 7z" />
    <glyph glyph-name="uniFB01" unicode="fi" horiz-adv-x="1467" 
d="M993 1558c0 22 4.00098 42.5 12.001 61.5s18.833 35.667 32.5 50s30 25.666 49 33.999s39.5 12.5 61.5 12.5s42.5 -4.16699 61.5 -12.5s35.5 -19.666 49.5 -33.999s25 -31 33 -50s12 -39.5 12 -61.5c0 -21.333 -4 -41.5 -12 -60.5s-19 -35.667 -33 -50
s-30.5 -25.666 -49.5 -33.999s-39.5 -12.5 -61.5 -12.5c-22.667 0 -43.5 4.16699 -62.5 12.5s-35.333 19.666 -49 33.999s-24.334 31 -32.001 50s-11.5 39.167 -11.5 60.5zM1011 0l-0.000976562 1055h-489v-1055h-276v1055h-225v127h225c0 90 7.66699 167.833 23 233.5
s38.5 119.667 69.5 162s70.167 73.666 117.5 93.999s102.666 30.5 165.999 30.5c27.333 0 53.333 -2.5 78 -7.5s47.5 -10.667 68.5 -17s39.5 -12.5 55.5 -18.5s29 -10.333 39 -13l-32 -194c-19.333 8 -38.666 15.333 -57.999 22c-16.667 5.33301 -34.834 10.5 -54.501 15.5
s-38.167 7.5 -55.5 7.5c-22 0 -41.667 -3.83301 -59 -11.5s-32.166 -20.667 -44.499 -39s-21.666 -43 -27.999 -74s-9.5 -69.833 -9.5 -116.5l81 -74h679v-1182h-271z" />
    <glyph glyph-name="uniFB02" unicode="fl" horiz-adv-x="1398" 
d="M840 1182l-0.00195312 -126.997h-318v-1055h-276v1055h-225v127h225c0 90 8.16699 167.667 24.5 233s44 119.166 83 161.499s90.5 73.833 154.5 94.5s143.667 31 239 31c70 0 130.5 -5 181.5 -15s94.667 -25.167 131 -45.5s65.833 -46.166 88.5 -77.499
s40.334 -68.5 53.001 -111.5s21.334 -92 26.001 -147s7 -116.5 7 -184.5v-1121h-276v1197c0 27.333 0.5 54.166 1.5 80.499s1.5 50.833 1.5 73.5c0 31.333 -2 57.333 -6 78s-13.333 37 -28 49s-36.167 20.333 -64.5 25s-66.833 7 -115.5 7
c-49.333 0 -88.833 -2.33301 -118.5 -7s-52.5 -12.334 -68.5 -23.001s-26.667 -24.834 -32 -42.501s-8 -39.5 -8 -65.5c0 -13.333 0.333008 -28.333 1 -45s1 -34.667 1 -54v-91h318z" />
    <glyph glyph-name="uniFB03" unicode="ffi" horiz-adv-x="2224" 
d="M1750 1558c0 22 4.00195 42.5 12.002 61.5s18.833 35.667 32.5 50s29.834 25.666 48.501 33.999s39 12.5 61 12.5s42.5 -4.16699 61.5 -12.5s35.5 -19.666 49.5 -33.999s25 -31 33 -50s12 -39.5 12 -61.5c0 -21.333 -4 -41.5 -12 -60.5s-19 -35.667 -33 -50
s-30.5 -25.666 -49.5 -33.999s-39.5 -12.5 -61.5 -12.5c-22.667 0 -43.334 4.16699 -62.001 12.5s-34.834 19.666 -48.501 33.999s-24.334 31 -32.001 50s-11.5 39.167 -11.5 60.5zM1418 1497c-28.667 0 -52.333 -4.83105 -71 -14.498s-33.5 -26.5 -44.5 -50.5
s-18.667 -56.333 -23 -97s-6.5 -91.667 -6.5 -153h766v-1182h-271v1055h-495v-1055h-275v1055h-476v-1055h-276v1055h-225v127h225c0 90 7.33301 167.833 22 233.5s37.167 119.667 67.5 162s68.5 73.666 114.5 93.999s100.667 30.5 164 30.5c28 0 55 -2.33301 81 -7
s50 -10.167 72 -16.5s41.333 -12.5 58 -18.5s30 -10.333 40 -13l-32 -194c-19.333 8 -38.666 15.333 -57.999 22c-16.667 5.33301 -34.667 10.333 -54 15s-37.333 7 -54 7c-28.667 0 -52.334 -4.83301 -71.001 -14.5s-33.5 -26.5 -44.5 -50.5s-18.667 -56.333 -23 -97
s-6.5 -91.667 -6.5 -153h476c0 90 7.33301 167.833 22 233.5s37.167 119.667 67.5 162s68.5 73.666 114.5 93.999s100.333 30.5 163 30.5c28 0 55 -2.33301 81 -7s50 -10.167 72 -16.5s41.333 -12.5 58 -18.5s30 -10.333 40 -13l-31 -194c-20 8 -39.667 15.333 -59 22
c-17.333 5.33301 -35.5 10.333 -54.5 15s-36.833 7 -53.5 7z" />
    <glyph glyph-name="uniFB04" unicode="ffl" horiz-adv-x="2083" 
d="M1431 1702c97.333 0 177.498 -9.99805 240.498 -29.998s112.833 -50.667 149.5 -92s62.167 -93.833 76.5 -157.5s21.5 -139.167 21.5 -226.5v-1196h-276v1207c0 24.667 0.333008 49 1 73s1 46.667 1 68c0 32 -1.83301 58.5 -5.5 79.5s-12.667 37.5 -27 49.5
s-35.833 20.5 -64.5 25.5s-67.667 7.5 -117 7.5s-88.833 -2.33301 -118.5 -7s-52.667 -12.334 -69 -23.001s-27.166 -25 -32.499 -43s-8 -40 -8 -66c0 -18.667 0.666992 -39.167 2 -61.5s2 -46.833 2 -73.5v-54h297v-127h-298v-1055h-275v1055h-409v-1055h-276v1055h-225
v127h225c0 180 29.833 311.667 89.5 395s152.5 125 278.5 125c26.667 0 52.334 -2.33301 77.001 -7s47.167 -10.167 67.5 -16.5s38 -12.5 53 -18.5s26.5 -10.333 34.5 -13l-32 -194c-17.333 8 -34.666 15.333 -51.999 22c-15.333 5.33301 -31.5 10.333 -48.5 15
s-32.5 7 -46.5 7c-28.667 0 -52.334 -4.83301 -71.001 -14.5s-33.5 -26.5 -44.5 -50.5s-18.667 -56.333 -23 -97s-6.5 -91.667 -6.5 -153h409c0 90 8.16699 167.667 24.5 233s44 119.166 83 161.499s90.333 73.833 154 94.5s143.167 31 238.5 31z" />
    <glyph glyph-name="t_t" unicode="tt" horiz-adv-x="1710" 
d="M1345 -23c-59.333 0 -109.67 9.66699 -151.003 29s-74.666 48.666 -99.999 87.999s-43.666 89.333 -54.999 150s-17 132 -17 214v597h-514v-692c0 -67.333 8.5 -116.833 25.5 -148.5s47.5 -47.5 91.5 -47.5c25.333 0 53.5 7 84.5 21s65.5 32.333 103.5 55l76 -170
c-17.333 -10.667 -37.333 -21.667 -60 -33s-48 -21.666 -76 -30.999s-58.333 -17 -91 -23s-67.667 -9 -105 -9c-60 0 -110.5 9.66699 -151.5 29s-74.167 48.666 -99.5 87.999s-43.666 89.333 -54.999 150s-17 132 -17 214v597h-225v127h243v403l256 66v-469h533v403l256 66
v-469h335v-127h-335v-692c0 -67.333 8.5 -116.833 25.5 -148.5s47.167 -47.5 90.5 -47.5c26 0 54.5 7 85.5 21s65.5 32.333 103.5 55l76 -170c-17.333 -10.667 -37.333 -21.667 -60 -33s-48 -21.666 -76 -30.999s-58.5 -17 -91.5 -23s-68.167 -9 -105.5 -9z" />
    <glyph glyph-name="f_j" unicode="fj" horiz-adv-x="1439" 
d="M993 1557c0 22 3.83203 42.501 11.499 61.501s18.167 35.667 31.5 50s29.333 25.5 48 33.5s39 12 61 12s42.333 -4.16699 61 -12.5s34.834 -19.666 48.501 -33.999s24.167 -31 31.5 -50s11 -39.167 11 -60.5c0 -22 -3.66699 -42.5 -11 -61.5s-17.666 -35.667 -30.999 -50
s-29.333 -25.666 -48 -33.999s-39.334 -12.5 -62.001 -12.5s-43.334 4.16699 -62.001 12.5s-34.667 19.666 -48 33.999s-23.666 31.166 -30.999 50.499s-11 39.666 -11 60.999zM805.999 -186.999c37.333 22.667 68.835 46.1709 94.502 70.5039s46.5 51.666 62.5 81.999
s27.5 64.666 34.5 102.999s10.5 83.166 10.5 134.499v852h-486v-1055h-276v1055h-220v127h220c0 90 7.33301 167.833 22 233.5s37.167 119.667 67.5 162s68.5 73.666 114.5 93.999s100.667 30.5 164 30.5c42.667 0 85 -4.83301 127 -14.5s83.333 -23.167 124 -40.5l-32 -194
c-24 12 -50 22.333 -78 31s-57.333 13 -88 13c-28.667 0 -52.334 -4.83301 -71.001 -14.5s-33.5 -26.5 -44.5 -50.5s-18.667 -56.333 -23 -97s-6.5 -91.667 -6.5 -153h762v-1001c0 -72 -10 -138.333 -30 -199s-47.667 -114.5 -83 -161.5s-77.333 -86.5 -126 -118.5
s-101.334 -54.667 -158.001 -68z" />
    <glyph glyph-name=".notdef" horiz-adv-x="759" 
d="M552 69v1247h-414v-1247h414zM69 1385h552v-1385h-552v1385z" />
    <glyph glyph-name="uni0000" horiz-adv-x="2048" 
 />
    <glyph glyph-name="uni0000" horiz-adv-x="2048" 
 />
    <glyph glyph-name="uni000D" unicode="&#xd;" horiz-adv-x="688" 
 />
    <glyph glyph-name="space" unicode=" " horiz-adv-x="513" 
 />
    <glyph glyph-name="exclam" unicode="!" horiz-adv-x="771" 
d="M283 22c-18 38.667 -27 82.668 -27 132.001c0 35.333 6 68.666 18 99.999c19.333 12.667 40.666 22.5 63.999 29.5s49 10.5 77 10.5c48 0 83.333 -10.5 106 -31.5s34 -57.167 34 -108.5c0 -23.333 -1.83301 -44.833 -5.5 -64.5s-10.667 -36.5 -21 -50.5
s-24.666 -25 -42.999 -33s-41.833 -12 -70.5 -12c-50 0 -94 9.33301 -132 28zM492 453.001h-245v1149h245v-1149z" />
    <glyph glyph-name="quotedbl" unicode="&#x22;" horiz-adv-x="853" 
d="M828 1602l-12 -115l-80 -544h-167l-65 544l-8 115h332zM390 1602l-10 -102l-82 -557h-167l-66 557l-7 102h332z" />
    <glyph glyph-name="numbersign" unicode="#" horiz-adv-x="1270" 
d="M746 641l29 238h-193l-30 -238h194zM537 501l-50 -354h-188l50 354h-166v140h179l30 238h-195v141h213l46 361h185l-45 -361h200l42 360h189l-45 -360h159v-141h-175l-30 -238h194v-140h-210l-47 -354h-188l48 354h-196z" />
    <glyph glyph-name="dollar" unicode="$" horiz-adv-x="1278" 
d="M701 196c30 3.33301 57.167 10.167 81.5 20.5s45.333 23.833 63 40.5s31.167 36 40.5 58s14 46.667 14 74c0 26 -3.16699 48.5 -9.5 67.5s-17.333 36.333 -33 52s-36.167 30.5 -61.5 44.5s-57 28.667 -95 44v-401zM593 1229
c-82 -0.666992 -141.501 -14.3311 -178.501 -40.998s-55.5 -66.334 -55.5 -119.001c0 -16.667 2.5 -32 7.5 -46s15.833 -27.833 32.5 -41.5s40.334 -27.834 71.001 -42.501s71.667 -31 123 -49v339zM592.999 1576l107.995 0.000976562v-138c44 -2 86.833 -6.66699 128.5 -14
s80 -15.5 115 -24.5s65.5 -18.167 91.5 -27.5s45.333 -17.333 58 -24l-63 -195c-38 13.333 -76 25.666 -114 36.999c-33.333 9.33301 -69.166 17.833 -107.499 25.5s-74.5 11.5 -108.5 11.5v-373l71.5 -26.5c23 -8.33301 45.5 -17.166 67.5 -26.499
c104 -42 182.833 -94 236.5 -156s80.5 -137 80.5 -225c0 -72.667 -11 -135.834 -33 -189.501s-53 -98.667 -93 -135s-88 -64.5 -144 -84.5s-118 -32.667 -186 -38v-138h-108v136c-22.667 0 -46.5 1.5 -71.5 4.5s-50 7.16699 -75 12.5s-49.667 11.166 -74 17.499
s-47.5 13.166 -69.5 20.499c-51.333 16.667 -102.333 35.334 -153 56.001l58 208c44.667 -19.333 89.667 -36.333 135 -51c38.667 -13.333 80.334 -25.166 125.001 -35.499s86.334 -15.5 125.001 -15.5v447c-82.667 27.333 -154.667 54.333 -216 81
s-112.166 56.334 -152.499 89.001s-70.5 69.834 -90.5 111.501s-30 91.5 -30 149.5c0 73.333 12.5 133.666 37.5 180.999s59.5 85.166 103.5 113.499s95.833 48.5 155.5 60.5s123.834 19.333 192.501 22v133z" />
    <glyph glyph-name="percent" unicode="%" horiz-adv-x="1724" 
d="M1388 168c30.667 0 57.332 5.33301 79.999 16s41.5 27.5 56.5 50.5s26.333 52.667 34 89s11.5 80.5 11.5 132.5c0 100 -14.333 174.667 -43 224s-75 74 -139 74s-110.167 -24.833 -138.5 -74.5s-42.5 -124.167 -42.5 -223.5c0 -52 3.66699 -96.167 11 -132.5
s18.5 -66 33.5 -89s33.833 -39.833 56.5 -50.5s49.334 -16 80.001 -16zM1391 11c-46 0 -86.832 6.33398 -122.499 19.001s-66.834 30 -93.501 52s-49.167 47.5 -67.5 76.5s-33.333 59.833 -45 92.5s-20 66.167 -25 100.5s-7.5 67.5 -7.5 99.5c0 154 31.167 269.667 93.5 347
s151.5 116 267.5 116c119.333 0 209.333 -38.667 270 -116s91 -193 91 -347c0 -46 -5.83301 -94.667 -17.5 -146s-31.334 -98.833 -59.001 -142.5s-64.667 -79.834 -111 -108.501s-104.166 -43 -173.499 -43zM389.999 778.001c30.667 0 57.332 5.33301 79.999 16
s41.5 27.5 56.5 50.5s26.333 52.667 34 89s11.5 80.5 11.5 132.5c0 100 -14.333 174.667 -43 224s-75 74 -139 74s-110.167 -24.833 -138.5 -74.5s-42.5 -124.167 -42.5 -223.5c0 -52 3.66699 -96.167 11 -132.5s18.5 -66 33.5 -89s33.833 -39.833 56.5 -50.5
s49.334 -16 80.001 -16zM392.997 621.001c-46 0 -86.832 6.33398 -122.499 19.001s-66.834 30 -93.501 52s-49.167 47.5 -67.5 76.5s-33.333 59.833 -45 92.5s-20 66.167 -25 100.5s-7.5 67.5 -7.5 99.5c0 154 31.167 269.667 93.5 347s151.5 116 267.5 116
c119.333 0 209.333 -38.667 270 -116s91 -193 91 -347c0 -46 -5.83301 -94.667 -17.5 -146s-31.334 -98.833 -59.001 -142.5s-64.667 -79.834 -111 -108.501s-104.166 -43 -173.499 -43zM1136 1522l165 -86l-696 -1467l-166 78z" />
    <glyph glyph-name="ampersand" unicode="&#x26;" horiz-adv-x="1716" 
d="M399 445c0 -89.333 29.333 -158.001 88 -206.001s151.667 -72 279 -72c66 0 123.167 4 171.5 12s89 18.333 122 31s59.167 26.5 78.5 41.5s33.333 29.167 42 42.5l-524 433c-39.333 -9.33301 -74.833 -21.666 -106.5 -36.999s-58.667 -34.333 -81 -57
s-39.5 -49.5 -51.5 -80.5s-18 -66.833 -18 -107.5zM766 -40.001c-94 0 -179.166 8.99805 -255.499 26.998s-141.5 46 -195.5 84s-95.5 86 -124.5 144s-43.5 127 -43.5 207c0 62.667 8.66699 118 26 166s41.666 90 72.999 126s68.5 66.833 111.5 92.5
s90.5 47.834 142.5 66.501c-6.66699 4.66699 -16.5 12 -29.5 22s-27.333 22.667 -43 38s-31.667 33 -48 53s-31.166 41.667 -44.499 65s-24.333 48.333 -33 75s-13 54.334 -13 83.001c0 52.667 10.833 100.334 32.5 143.001s52.167 78.667 91.5 108s86.333 52 141 68
s114.667 24 180 24c68 0 128.833 -8.33301 182.5 -25s99.334 -40 137.001 -70s66.5 -65.833 86.5 -107.5s30 -87.167 30 -136.5c0 -98 -27.333 -179.5 -82 -244.5s-135.667 -115.833 -243 -152.5l413 -338c3.33301 38.667 5.5 81.167 6.5 127.5s1.5 91.166 1.5 134.499
c0 28 -0.166992 52.833 -0.5 74.5s-0.5 37.5 -0.5 47.5h230c0 -14.667 -0.5 -34.167 -1.5 -58.5s-2.5 -51.166 -4.5 -80.499l-6.5 -92c-2.33301 -32 -4.83301 -63 -7.5 -93s-5.5 -58 -8.5 -84s-6.16699 -47.333 -9.5 -64l-13 -68l250 -208l-119 -146l-229 193
c-44.667 -66.667 -114.334 -116.834 -209.001 -150.501s-218.334 -50.5 -371.001 -50.5zM955.001 1195c0 58 -19.167 101.501 -57.5 130.501s-91.166 43.5 -158.499 43.5c-142 0 -213 -57 -213 -171c0 -22.667 4.33301 -45 13 -67s20.5 -43.167 35.5 -63.5
s32.667 -39.333 53 -57s42.166 -33.5 65.499 -47.5c22.667 6.66699 49 15.667 79 27s58.5 26.166 85.5 44.499s50 40.5 69 66.5s28.5 57.333 28.5 94z" />
    <glyph glyph-name="quotesingle" unicode="'" horiz-adv-x="626" 
d="M479 1602l-10 -102l-81 -557h-168l-66 557l-7 102h332z" />
    <glyph glyph-name="parenleft" unicode="(" horiz-adv-x="860" 
d="M214 698c0 121.333 12.6689 232.835 38.002 334.502s58.166 193 98.499 274s85.666 151.167 135.999 210.5s100.166 107.666 149.499 144.999l138 -160c-36 -33.333 -72 -75.833 -108 -127.5s-68.5 -111.5 -97.5 -179.5s-52.5 -143.833 -70.5 -227.5
s-27 -173.834 -27 -270.501c0 -96 8.5 -185.333 25.5 -268s39.5 -157.667 67.5 -225s59.833 -126.333 95.5 -177s71.834 -92 108.501 -124l-124 -163c-30.667 22 -62.667 49.333 -96 82s-66 70.334 -98 113.001s-62.333 90.667 -91 144s-53.667 111.666 -75 174.999
s-38.333 132 -51 206s-19 153.333 -19 238z" />
    <glyph glyph-name="parenright" unicode=")" horiz-adv-x="858" 
d="M660 712c0 -126 -13 -240.493 -39 -343.493s-59.5 -195 -100.5 -276s-87 -150.833 -138 -209.5s-101.5 -106.334 -151.5 -143.001l-132 162c36.667 32.667 73 75.167 109 127.5s68.333 112.666 97 180.999s52 144 70 227s27 171.833 27 266.5
c0 95.333 -8.5 184.333 -25.5 267s-39.5 157.667 -67.5 225s-59.667 126.666 -95 177.999s-71.333 93.666 -108 126.999l123 163c27.333 -20 56.833 -45.333 88.5 -76s63.5 -66.834 95.5 -108.501s62.833 -88.834 92.5 -141.501s56 -110.834 79 -174.501
s41.333 -133.167 55 -208.5s20.5 -156.333 20.5 -243z" />
    <glyph glyph-name="asterisk" unicode="*" horiz-adv-x="987" 
d="M607 1628l152 -89l-149 -257h285v-146h-283l155 -255l-153 -90l-142 251l-141 -250l-152 89l154 255h-292v146h295l-150 259l151 86l134 -252z" />
    <glyph glyph-name="plus" unicode="+" horiz-adv-x="1068" 
d="M660 490v-353h-219v353h-299v206h299v352h219v-352h301v-206h-301z" />
    <glyph glyph-name="comma" unicode="," horiz-adv-x="640" 
d="M150 360h346.001v-311c0 -50 -8 -93.333 -24 -130s-37.5 -68 -64.5 -94s-58.5 -47.833 -94.5 -65.5s-74 -32.5 -114 -44.5l-48 106c28.667 10 53 20.5 73 31.5s36.167 23.5 48.5 37.5s21.166 29.833 26.499 47.5s8 38.5 8 62.5h-157v360z" />
    <glyph glyph-name="hyphen" unicode="-" horiz-adv-x="1056" 
d="M154 549v214h747v-214h-747z" />
    <glyph glyph-name="period" unicode="." horiz-adv-x="694" 
d="M178 360h346v-360h-346v360z" />
    <glyph glyph-name="slash" unicode="/" horiz-adv-x="992" 
d="M747 1724l229 -77l-609 -1812l-227 75z" />
    <glyph glyph-name="zero" unicode="0" horiz-adv-x="1428" 
d="M712 176c58 0 107.668 10.5 149.001 31.5s75.166 50.5 101.499 88.5s45.666 83.333 57.999 136s18.5 110.667 18.5 174c0 51.333 -5.16699 101.833 -15.5 151.5s-28 94.167 -53 133.5s-58.5 71 -100.5 95s-94.667 36 -158 36c-59.333 0 -109.5 -11.167 -150.5 -33.5
s-74.167 -52.5 -99.5 -90.5s-43.666 -82.5 -54.999 -133.5s-17 -105.5 -17 -163.5c0 -56 5 -109.667 15 -161s27.333 -96.5 52 -135.5s57.667 -70.167 99 -93.5s93.333 -35 156 -35zM710.001 1225c102.667 0 191.168 -16.832 265.501 -50.499s135.5 -79 183.5 -136
s83.333 -123.167 106 -198.5s34 -154.333 34 -237c0 -86.667 -11.5 -168.334 -34.5 -245.001s-58.5 -143.667 -106.5 -201s-109.167 -102.666 -183.5 -135.999s-162.833 -50 -265.5 -50c-93.333 0 -176 15.167 -248 45.5s-132.833 73.166 -182.5 128.499
s-87.334 121.5 -113.001 198.5s-38.5 162.5 -38.5 256.5c0 88 11.667 170 35 246s59 142 107 198s108.5 100.167 181.5 132.5s159.5 48.5 259.5 48.5z" />
    <glyph glyph-name="one" unicode="1" horiz-adv-x="841" 
d="M342 988l-184 -85l-75 186l112 47.5l111 47.5l100 20h209v-1204h-273v988z" />
    <glyph glyph-name="two" unicode="2" horiz-adv-x="1156" 
d="M761 828c0 59.333 -18.001 104.169 -54.001 134.502s-90.667 45.5 -164 45.5c-22.667 0 -47.334 -2.5 -74.001 -7.5s-53.5 -11.5 -80.5 -19.5s-53.5 -17.333 -79.5 -28s-50 -21.334 -72 -32.001l-74 181c12.667 8 32.334 18.167 59.001 30.5s58 24.5 94 36.5
s75.5 22.167 118.5 30.5s86.833 12.5 131.5 12.5c70 0 132.5 -8.33301 187.5 -25s101.833 -40.667 140.5 -72s68.167 -69.166 88.5 -113.499s30.5 -94.166 30.5 -149.499c0 -38.667 -4.66699 -75.5 -14 -110.5s-25.333 -70.667 -48 -107s-52.667 -74.166 -90 -113.499
s-84 -82.333 -140 -129l-213 -178h489v-214h-849v185l422 351c32.667 27.333 61 53.166 85 77.499s43.833 48.166 59.5 71.499s27.334 46.666 35.001 69.999s11.5 47.666 11.5 72.999z" />
    <glyph glyph-name="three" unicode="3" horiz-adv-x="1175" 
d="M740 848c0 58.667 -19.5078 101.165 -58.5078 127.498s-96.167 39.5 -171.5 39.5c-29.333 0 -60.666 -3.5 -93.999 -10.5s-64.5 -14.833 -93.5 -23.5s-53.5 -16.834 -73.5 -24.501s-31.333 -11.834 -34 -12.501l-82 185l42.5 19.5
c22.333 10.333 50.166 20.833 83.499 31.5s70.666 20.334 111.999 29.001s84.333 13 129 13c40 0 79.667 -2.5 119 -7.5s76.833 -13.167 112.5 -24.5s68.834 -26.166 99.501 -44.499s57.167 -41.166 79.5 -68.499s39.833 -59.333 52.5 -96s19 -79 19 -127
c0 -46 -7.83301 -86.667 -23.5 -122s-35.667 -65.666 -60 -90.999s-51.166 -45.166 -80.499 -59.499s-57.333 -23.5 -84 -27.5c32 -7.33301 64.833 -19.833 98.5 -37.5s64.334 -40.667 92.001 -69s50.5 -62.5 68.5 -102.5s27 -86.333 27 -139
c0 -69.333 -13.667 -128.833 -41 -178.5s-64 -90.667 -110 -123s-99.333 -56.166 -160 -71.499s-124 -23 -190 -23c-52.667 0 -102.167 4 -148.5 12s-87.166 17 -122.499 27s-63.833 19.5 -85.5 28.5s-34.5 14.167 -38.5 15.5l70 196c2.66699 -1.33301 13.334 -6 32.001 -14
s42.834 -16.667 72.501 -26s63.334 -17.833 101.001 -25.5s76.5 -11.5 116.5 -11.5c83.333 0 145.333 16.333 186 49s61 84 61 154c0 36.667 -7.83301 69.167 -23.5 97.5s-37.667 52.5 -66 72.5s-62.166 35.667 -101.499 47s-82.666 18.666 -129.999 21.999v198
c37.333 0 73.833 3.16699 109.5 9.5s67.5 17.166 95.5 32.499s50.5 35.5 67.5 60.5s25.5 56.167 25.5 93.5z" />
    <glyph glyph-name="four" unicode="4" horiz-adv-x="1259" 
d="M736 264v578l-390 -578h390zM969 1177v-910h186v-203h-186v-306h-233v306h-619l-35 200l676 967z" />
    <glyph glyph-name="five" unicode="5" horiz-adv-x="1157" 
d="M182 98c21.333 -10 45.499 -19.998 72.499 -29.998s55.667 -18.833 86 -26.5s61.666 -13.834 93.999 -18.501s64.5 -7 96.5 -7c90.667 0 159 20.333 205 61s69 103.667 69 189c0 88.667 -20.833 155.667 -62.5 201s-104.5 68 -188.5 68c-42 0 -85 -7.5 -129 -22.5
s-89 -36.5 -135 -64.5l-121 103v635h789v-201h-572v-314l12 9c8.66699 6.66699 21.334 13.667 38.001 21s37 14 61 20s51.667 9 83 9c70.667 0 134.5 -10.667 191.5 -32s105.833 -52 146.5 -92s72 -88.667 94 -146s33 -122.333 33 -195
c0 -70.667 -12.167 -134.5 -36.5 -191.5s-58.5 -105.667 -102.5 -146s-96.833 -71.333 -158.5 -93s-130.167 -32.5 -205.5 -32.5c-33.333 0 -67.666 2.16699 -102.999 6.5s-70.5 10.666 -105.5 18.999s-69.333 18.333 -103 30s-65.5 24.5 -95.5 38.5z" />
    <glyph glyph-name="six" unicode="6" horiz-adv-x="1255" 
d="M1159 366c0 -70 -11.166 -135.165 -33.499 -195.498s-55.166 -112.833 -98.499 -157.5s-96.5 -79.667 -159.5 -105s-135.167 -38 -216.5 -38c-86 0 -162.333 14.333 -229 43s-122.834 68.5 -168.501 119.5s-80.167 111.833 -103.5 182.5s-35 148 -35 232
c0 130.667 20.5 246.834 61.5 348.501s96.167 190 165.5 265s149.666 137.167 240.999 186.5s187.333 86.666 288 111.999l63 -209c-52 -10.667 -103.5 -25.834 -154.5 -45.501s-98.667 -44.5 -143 -74.5s-84 -65.5 -119 -106.5s-62.5 -87.833 -82.5 -140.5
c34 18 70.5 33 109.5 45s82.5 18 130.5 18c74 0 140.833 -12.5 200.5 -37.5s110.5 -59 152.5 -102s74.333 -93.833 97 -152.5s34 -121.334 34 -188.001zM372.001 436.002c0.666992 -46 5.16602 -90.667 13.499 -134s22.833 -81.833 43.5 -115.5s48.834 -60.667 84.501 -81
s81.167 -30.5 136.5 -30.5c49.333 0 90.5 9.16699 123.5 27.5s59.5 42.333 79.5 72s34.333 63.334 43 101.001s13 75.834 13 114.501c0 43.333 -5.66699 81.166 -17 113.499s-27.5 59.166 -48.5 80.499s-46.167 37.333 -75.5 48s-61.666 16 -96.999 16
c-30.667 0 -60.834 -3.5 -90.501 -10.5s-57.5 -16 -83.5 -27s-49.5 -23.5 -70.5 -37.5s-38.167 -27.667 -51.5 -41c-2 -24 -3 -56 -3 -96z" />
    <glyph glyph-name="seven" unicode="7" horiz-adv-x="1146" 
d="M1080 1063l-589 -1273l-237 106l514 1110h-629v210h870z" />
    <glyph glyph-name="eight" unicode="8" horiz-adv-x="1303" 
d="M889 957c0 35.333 -5.83301 65.167 -17.5 89.5s-28 44.166 -49 59.499s-45.833 26.5 -74.5 33.5s-59.667 10.5 -93 10.5c-32.667 0 -63.667 -3.33301 -93 -10s-55 -17.5 -77 -32.5s-39.333 -34.667 -52 -59s-19 -54.5 -19 -90.5c0 -34.667 6 -65.834 18 -93.501
s28.667 -51.167 50 -70.5s46.666 -34.166 75.999 -44.499s61.666 -15.5 96.999 -15.5c34.667 0 66.334 5.16699 95.001 15.5s53.334 25 74.001 44s36.667 42.333 48 70s17 58.834 17 93.501zM898 279.001c0 39.333 -5.66699 75.666 -17 108.999s-27.666 62 -48.999 86
s-47 42.667 -77 56s-63.333 20 -100 20c-38 0 -72.333 -6.66699 -103 -20s-56.834 -31.833 -78.501 -55.5s-38.5 -52 -50.5 -85s-18 -69.5 -18 -109.5c0 -72.667 19.167 -126.5 57.5 -161.5s102.5 -52.5 192.5 -52.5c46 0 84.5 4.5 115.5 13.5s56 22.333 75 40
s32.5 39.834 40.5 66.501s12 57.667 12 93zM1139 965.001c0 -45.333 -7.16992 -86.4971 -21.5029 -123.497s-33.666 -69.5 -57.999 -97.5s-52.666 -51.333 -84.999 -70s-66.5 -32.667 -102.5 -42c40.667 -9.33301 78.167 -24.666 112.5 -45.999s64 -48 89 -80
s44.5 -69 58.5 -111s21 -88 21 -138c0 -68 -13.167 -127 -39.5 -177s-62 -91.333 -107 -124s-97.833 -56.834 -158.5 -72.501s-125 -23.5 -193 -23.5c-67.333 0 -131.333 7.66699 -192 23s-114.334 39.333 -161.001 72s-83.667 74 -111 124s-41 110 -41 180
c0 50 7.16699 96 21.5 138s34 78.833 59 110.5s54.667 58.167 89 79.5s71.5 36.666 111.5 45.999c-35.333 8.66699 -69.166 22.5 -101.499 41.5s-60.666 42.5 -84.999 70.5s-43.833 60.5 -58.5 97.5s-22 78.167 -22 123.5c0 62 12.667 116.667 38 164s60 87.166 104 119.499
s95.833 56.833 155.5 73.5s124.167 25 193.5 25c68.667 0 132.5 -8.33301 191.5 -25s110.167 -41.334 153.5 -74.001s77.333 -72.667 102 -120s37 -102 37 -164z" />
    <glyph glyph-name="nine" unicode="9" horiz-adv-x="1278" 
d="M603 308c-74.667 0 -142 10.999 -202 32.999s-111 53.333 -153 94s-74.167 89.834 -96.5 147.501s-33.5 121.834 -33.5 192.501c0 70 11.5 135.167 34.5 195.5s56.167 112.5 99.5 156.5s96 78.667 158 104s131.667 38 209 38c87.333 0 164.833 -13.333 232.5 -40
s124.5 -64.834 170.5 -114.501s81 -110.167 105 -181.5s36 -151.666 36 -240.999c0 -88 -10.333 -169.833 -31 -245.5s-49 -145 -85 -208s-78.5 -119.833 -127.5 -170.5s-101.5 -95 -157.5 -133s-114.333 -70 -175 -96s-121 -45.667 -181 -59l-62 210
c52 10 103.833 25.667 155.5 47s100 48.166 145 80.499s84.833 70 119.5 113s61 91.5 79 145.5c-28.667 -20 -63.5 -36.333 -104.5 -49s-86.167 -19 -135.5 -19zM368 763.999c0 -42 5.83496 -79.1689 17.502 -111.502s28 -59.5 49 -81.5s45.667 -38.667 74 -50
s59.166 -17 92.499 -17c27.333 0 56.666 2.83301 87.999 8.5s61.333 12.5 90 20.5s53.834 16.333 75.501 25s36.167 16 43.5 22c2.66699 18 4.83398 38 6.50098 60s3.16699 46 4.5 72c-0.666992 44 -5.16699 87 -13.5 129s-23 79.5 -44 112.5s-49.333 59.667 -85 80
s-80.834 30.5 -135.501 30.5c-49.333 0 -90.666 -7.83301 -123.999 -23.5s-60.333 -37.167 -81 -64.5s-35.334 -59.166 -44.001 -95.499s-13.334 -75.166 -14.001 -116.499z" />
    <glyph glyph-name="colon" unicode=":" horiz-adv-x="683" 
d="M188 363h350v-363h-350v363zM188 1033h350v-363h-350v363z" />
    <glyph glyph-name="semicolon" unicode=";" horiz-adv-x="672" 
d="M183 1033h346v-363h-346v363zM185 360h345.001v-311c0 -50 -8 -93.333 -24 -130s-37.5 -68 -64.5 -94s-58.5 -47.833 -94.5 -65.5s-74 -32.5 -114 -44.5l-47 106c28.667 10 53 20.5 73 31.5s36.167 23.5 48.5 37.5s21.166 29.833 26.499 47.5s8 38.5 8 62.5h-157v360z
" />
    <glyph glyph-name="less" unicode="&#x3c;" horiz-adv-x="1240" 
d="M236 741l713 523l51 -226l-556 -401l557 -401l-51 -225l-761 565z" />
    <glyph glyph-name="equal" unicode="=" horiz-adv-x="1084" 
d="M164 278v186h756v-186h-756zM164 585v186h756v-186h-756z" />
    <glyph glyph-name="greater" unicode="&#x3e;" horiz-adv-x="1229" 
d="M311 11l-51 230l552 396l-552 396l51 231l706 -516l54 -172z" />
    <glyph glyph-name="question" unicode="?" horiz-adv-x="1157" 
d="M261 173c17.333 28 43.333 51.667 78 71s74.667 29 120 29c28 -18 51.167 -45.833 69.5 -83.5s27.5 -79.5 27.5 -125.5c-8 -14 -18.667 -27 -32 -39s-28.5 -22.5 -45.5 -31.5s-35.667 -16.167 -56 -21.5s-41.5 -8 -63.5 -8c-28.667 18.667 -52.167 46.667 -70.5 84
s-27.5 79 -27.5 125zM771 1180c0 37.333 -6.66699 68.168 -20 92.501s-32 43.666 -56 57.999s-52.833 24.333 -86.5 30s-71.167 8.5 -112.5 8.5c-24.667 0 -50.334 -2 -77.001 -6s-52.834 -8.83301 -78.501 -14.5s-50 -12 -73 -19s-43.167 -13.5 -60.5 -19.5
s-28.333 -10 -33 -12l-24 -9l-73 203c16.667 8.66699 39.167 18.667 67.5 30s61.333 22 99 32s79 18.5 124 25.5s93.167 10.5 144.5 10.5c74 0 143.167 -7.33301 207.5 -22s120.333 -37.834 168 -69.501s85.167 -72.334 112.5 -122.001s41 -109.167 41 -178.5
c0 -53.333 -10.167 -105.166 -30.5 -155.499s-51.666 -97.5 -93.999 -141.5s-95.666 -84.5 -159.999 -121.5s-140.5 -68.833 -228.5 -95.5v-320h-255v451c72 24 138.333 47.833 199 71.5s113.167 49.5 157.5 77.5s79 59.333 104 94s37.5 75.334 37.5 122.001z" />
    <glyph glyph-name="at" unicode="@" horiz-adv-x="1972" 
d="M986 -146c-138.667 0 -260.993 19.334 -366.993 58.001s-195 92 -267 160s-126.333 148.667 -163 242s-55 195 -55 305c0 86 9.83301 167.667 29.5 245s48.167 149.333 85.5 216s82.666 126.834 135.999 180.501s113.5 99.5 180.5 137.5s140.333 67.333 220 88
s164.167 31 253.5 31c72.667 0 143.334 -6.83301 212.001 -20.5s133.334 -34.334 194.001 -62.001s116.5 -61.834 167.5 -102.501s94.833 -87.834 131.5 -141.501s65.167 -114 85.5 -181s30.5 -140.167 30.5 -219.5c0 -60 -6.16699 -116 -18.5 -168s-29 -99 -50 -141
s-45.5 -78.833 -73.5 -110.5s-58 -57.5 -90 -77.5c-30 -19.333 -64.833 -33.166 -104.5 -41.499s-83.167 -12.5 -130.5 -12.5c-26 0 -48 3.83301 -66 11.5s-32.333 18.667 -43 33s-18.334 31.5 -23.001 51.5s-7 42.333 -7 67c0 24 0.166992 47.833 0.5 71.5
s0.833008 47.5 1.5 71.5c-12 -43.333 -27.833 -84 -47.5 -122s-44.334 -71.167 -74.001 -99.5s-64.834 -50.666 -105.501 -66.999s-88.334 -24.5 -143.001 -24.5c-38 0 -74.167 4.33301 -108.5 13s-66.166 22.5 -95.499 41.5s-56 43.333 -80 73s-44.333 65.5 -61 107.5
c-19.333 50 -29 105.667 -29 167c0 74 14.667 143.167 44 207.5s69.166 120.5 119.499 168.5s108.833 85.667 175.5 113s137 41 211 41c13.333 0 28.833 -0.666992 46.5 -2s36 -3 55 -5s38 -4.5 57 -7.5s36.167 -6.16699 51.5 -9.5
c49.333 -10.667 86.166 -29.334 110.499 -56.001s40.166 -59 47.499 -97v-50c0 -16 -0.333008 -32 -1 -48l-42 -491c86 7.33301 150 40.666 192 99.999s63 149.666 63 270.999c0 100.667 -16 186.167 -48 256.5s-75.833 127.666 -131.5 171.999s-120.667 76.5 -195 96.5
s-153.833 30 -238.5 30c-98.667 0 -189.167 -16.667 -271.5 -50s-153 -80.666 -212 -141.999s-105 -135.333 -138 -222s-49.5 -183.667 -49.5 -291c0 -93.333 14.5 -175.833 43.5 -247.5s71.333 -132 127 -181s124 -86.167 205 -111.5s173.833 -38 278.5 -38
c44 0 83.167 3.33301 117.5 10s64.166 14.334 89.499 23.001s46.166 17.334 62.499 26.001l38.5 20l36 10.5c12 3.66699 23.667 8.16699 35 13.5l74 -153c-50 -42.667 -116.833 -76.167 -200.5 -100.5s-176.5 -36.5 -278.5 -36.5zM1073.01 1012
c-50.667 0 -97.668 -8.83203 -141.001 -26.499s-81 -43.5 -113 -77.5s-57.167 -75.667 -75.5 -125s-27.5 -106 -27.5 -170c0 -64.667 15.5 -116.667 46.5 -156s76.167 -59 135.5 -59c56 0 105 14.167 147 42.5s77.333 68.333 106 120s51.167 114 67.5 187
s27.166 154.5 32.499 244.5c-6 0.666992 -15.5 2.16699 -28.5 4.5s-27.667 4.66602 -44 6.99902s-33.666 4.33301 -51.999 6s-36.166 2.5 -53.499 2.5z" />
    <glyph glyph-name="A" unicode="A" horiz-adv-x="1503" 
d="M927 1602l530 -1602h-290l-118 371h-595l-118 -371h-290l526 1602h355zM492 510h519l-256 803z" />
    <glyph glyph-name="B" unicode="B" horiz-adv-x="1428" 
d="M551 1602c124.667 0 229.172 -7.50684 313.505 -22.5068s155.166 -36.167 212.499 -63.5c29.333 -14 56.166 -30.833 80.499 -50.5s45.166 -42.167 62.499 -67.5s30.666 -53.666 39.999 -84.999s14 -66.333 14 -105c0 -58 -8.33301 -107.667 -25 -149
s-40 -75.666 -70 -102.999s-65.667 -48.666 -107 -63.999s-87 -26.333 -137 -33c56.667 -7.33301 110 -19.166 160 -35.499s93.333 -40 130 -71s65.667 -71.167 87 -120.5s32 -110.666 32 -183.999c0 -66 -8.33301 -122.833 -25 -170.5s-40.834 -88.167 -72.501 -121.5
s-70.5 -60.166 -116.5 -80.499s-98.333 -36.166 -157 -47.499s-123.5 -18.833 -194.5 -22.5s-147.167 -5.5 -228.5 -5.5h-395v1602h396zM616.005 191.993c81.333 0 150.499 3.83105 207.499 11.498s103.333 21.834 139 42.501s61.667 48.834 78 84.501s24.5 81.5 24.5 137.5
c0 55.333 -8.16699 101.5 -24.5 138.5s-41.666 66.5 -75.999 88.5s-78 37.5 -131 46.5s-116.167 13.5 -189.5 13.5h-202v-563h174zM442.004 934.991l201 -0.00195312c70 0 129.167 4.83301 177.5 14.5s87.5 24.834 117.5 45.501s51.667 47.167 65 79.5s20 70.833 20 115.5
c0 38.667 -7.33301 71.834 -22 99.501s-38.667 50.5 -72 68.5s-77 31.167 -131 39.5s-120 12.5 -198 12.5h-158v-475z" />
    <glyph glyph-name="C" unicode="C" horiz-adv-x="1311" 
d="M394 786c0 -98 8.49902 -184.83 25.499 -260.497s42.667 -139.334 77 -191.001s77.833 -90.834 130.5 -117.501s115 -40 187 -40c42 0 82.167 4 120.5 12s73.5 17.667 105.5 29s60.167 23.5 84.5 36.5s43.166 24.167 56.499 33.5l79 -203
c-9.33301 -8 -27.833 -18.833 -55.5 -32.5s-62 -27 -103 -40s-87.667 -24.167 -140 -33.5s-107.5 -14 -165.5 -14c-113.333 0 -213 18.667 -299 56s-158.167 91.333 -216.5 162s-102.333 157.167 -132 259.5s-44.5 218.5 -44.5 348.5c0 75.333 5.83301 148.333 17.5 219
s29.834 137.167 54.501 199.5s55.834 119.333 93.501 171s82.167 96 133.5 133s110 65.833 176 86.5s139.667 31 221 31c49.333 0 97.333 -3.16699 144 -9.5s89.667 -14.333 129 -24s74 -20.334 104 -32.001s53 -23.167 69 -34.5l-74 -207
c-16 10.667 -35.833 21.5 -59.5 32.5s-50.5 21 -80.5 30s-63.167 16.5 -99.5 22.5s-74.833 9 -115.5 9c-74 0 -137.5 -14.167 -190.5 -42.5s-96.833 -69.5 -131.5 -123.5s-60.167 -120.167 -76.5 -198.5s-24.5 -167.5 -24.5 -267.5z" />
    <glyph glyph-name="D" unicode="D" horiz-adv-x="1545" 
d="M1149 799c0 96.667 -7.5 183.001 -22.5 259.001s-40.333 140 -76 192s-83.5 91.667 -143.5 119s-135 41 -225 41h-240v-1218h229c86 0 159.333 13.667 220 41s110 67 148 119s65.833 115.667 83.5 191s26.5 160.666 26.5 255.999zM1440 800.001
c0 -118.667 -13.167 -227 -39.5 -325s-69.166 -182.167 -128.499 -252.5s-136.833 -125 -232.5 -164s-212.834 -58.5 -351.501 -58.5h-531v1602h522c252.667 0 442.667 -65.167 570 -195.5s191 -332.5 191 -606.5z" />
    <glyph glyph-name="E" unicode="E" horiz-adv-x="1266" 
d="M155 0v1602h1036v-192h-749v-486h654v-174h-654v-561h761v-189h-1048z" />
    <glyph glyph-name="F" unicode="F" horiz-adv-x="1203" 
d="M442 0h-287v1602h1017v-192h-730v-493h655v-174h-655v-743z" />
    <glyph glyph-name="G" unicode="G" horiz-adv-x="1545" 
d="M1152 679l-389.997 -0.000976562v179h645v-858h-166l-52 171c-10.667 -30 -27.667 -57.667 -51 -83s-52.666 -47.166 -87.999 -65.499s-76.333 -32.5 -123 -42.5s-98.667 -15 -156 -15c-106.667 0 -201.334 19 -284.001 57s-152.334 92.5 -209.001 163.5
s-99.834 157.5 -129.501 259.5s-44.5 216.667 -44.5 344c0 136.667 16.5 257.334 49.5 362.001s80.833 192.5 143.5 263.5s139.5 124.833 230.5 161.5s194.5 55 310.5 55c53.333 0 103.166 -3.5 149.499 -10.5s89.333 -16.5 129 -28.5s75.5 -26 107.5 -42s60.667 -33 86 -51
l-88 -194c-24 14.667 -50.5 28.834 -79.5 42.501s-60 25.667 -93 36s-67.333 18.666 -103 24.999s-72.5 9.5 -110.5 9.5c-142 0 -251 -51.833 -327 -155.5s-114 -260.834 -114 -471.501c0 -92.667 7.33301 -176.667 22 -252s38 -139.833 70 -193.5s73.5 -95 124.5 -124
s112.833 -43.5 185.5 -43.5c44 0 85.333 3.33301 124 10s73.5 17 104.5 31s57.333 32.333 79 55s37.5 50 47.5 82v323z" />
    <glyph glyph-name="H" unicode="H" horiz-adv-x="1588" 
d="M1145 744h-703v-744h-287v1602h287v-684h703v684h287v-1602h-287v744z" />
    <glyph glyph-name="I" unicode="I" horiz-adv-x="835" 
d="M278 143v1312h-190v147h663v-147h-192v-1312h192v-143h-663v143h190z" />
    <glyph glyph-name="J" unicode="J" horiz-adv-x="808" 
d="M40 97c68 10.667 123.331 25.167 165.998 43.5s75.834 43 99.501 74s39.667 69.5 48 115.5s12.5 102.667 12.5 170v1102h287v-1084c0 -94 -8.5 -177.333 -25.5 -250s-46.167 -134.5 -87.5 -185.5s-96.666 -91 -165.999 -120s-156 -46.5 -260 -52.5z" />
    <glyph glyph-name="K" unicode="K" horiz-adv-x="1455" 
d="M442 0h-287v1602h287v-714h154l470 714h303l-546 -795l607 -807h-322l-520 719h-146v-719z" />
    <glyph glyph-name="L" unicode="L" horiz-adv-x="1210" 
d="M155 0v1602h287v-1410h724v-192h-1011z" />
    <glyph glyph-name="M" unicode="M" horiz-adv-x="1975" 
d="M410 1288v-1288h-255v1602h389l439 -1288l447 1288h390v-1602h-255v1288l-439 -1288h-275z" />
    <glyph glyph-name="N" unicode="N" horiz-adv-x="1642" 
d="M1165 0l-744 1255v-1255h-266v1602h334l732 -1242v1242h265v-1602h-321z" />
    <glyph glyph-name="O" unicode="O" horiz-adv-x="1595" 
d="M1492 809c0 -119.333 -12.001 -230.497 -36.001 -333.497s-63.167 -192.333 -117.5 -268s-125.833 -135.167 -214.5 -178.5s-197.667 -65 -327 -65c-86 0 -163 10 -231 30s-127.667 48.333 -179 85s-95 81 -131 133s-65.167 109.667 -87.5 173
s-38.666 131.833 -48.999 205.5s-15.5 150.5 -15.5 230.5c0 126 14.667 239.167 44 339.5s73 185.166 131 254.499s130.167 122.5 216.5 159.5s186.833 55.5 301.5 55.5c115.333 0 216.5 -18.5 303.5 -55.5s159.5 -90.833 217.5 -161.5s101.5 -156.834 130.5 -258.501
s43.5 -216.834 43.5 -345.501zM393.999 794.003c0 -95.333 7.5 -180.997 22.5 -256.997s38.667 -140.667 71 -194s74 -94.166 125 -122.499s112.5 -42.5 184.5 -42.5c70 0 130.5 13.5 181.5 40.5s93 66.667 126 119s57.333 116.666 73 192.999s23.5 164.166 23.5 263.499
c0 100 -7.66699 188.667 -23 266s-39.333 142.666 -72 195.999s-74.167 93.833 -124.5 121.5s-110.5 41.5 -180.5 41.5c-72 0 -133.667 -13.667 -185 -41s-93.5 -67.5 -126.5 -120.5s-57.167 -118.333 -72.5 -196s-23 -166.834 -23 -267.501z" />
    <glyph glyph-name="P" unicode="P" horiz-adv-x="1381" 
d="M1322 1098c0 -90.667 -15.999 -167.499 -47.999 -230.499s-79.667 -114 -143 -153s-142.833 -67.167 -238.5 -84.5s-206.834 -26 -333.501 -26h-117v-604h-287v1602h435c66 0 129.833 -2.83301 191.5 -8.5s119.5 -15.834 173.5 -30.501s103.333 -34.167 148 -58.5
s83.167 -55.166 115.5 -92.499s57.5 -81.833 75.5 -133.5s27.333 -111.834 28 -180.501zM549.001 789.001c80 0 150.334 5.16504 211.001 15.498s111.167 27 151.5 50s70.666 53.167 90.999 90.5s30.5 83.333 30.5 138c0 70 -10.667 126.333 -32 169
s-51.5 75.834 -90.5 99.501s-86 39.334 -141 47.001s-115.833 11.5 -182.5 11.5h-145v-621h107z" />
    <glyph glyph-name="Q" unicode="Q" horiz-adv-x="1604" 
d="M1499 792c0 -110 -10.5 -210.998 -31.5 -302.998s-53.333 -172.833 -97 -242.5s-99 -127.334 -166 -173.001s-146.5 -76.834 -238.5 -93.501l338 -247l-149 -162l-481 403c-71.333 9.33301 -135 27 -191 53s-105 58.333 -147 97s-77.833 83.334 -107.5 134.001
s-53.667 105 -72 163s-31.666 119.333 -39.999 184s-12.5 130.667 -12.5 198c0 78.667 5.83301 153.667 17.5 225s29.667 137.666 54 198.999s55 116.833 92 166.5s81.167 92.167 132.5 127.5s109.666 62.5 174.999 81.5s138.333 28.5 219 28.5c116 0 218 -18.167 306 -54.5
s161.5 -90 220.5 -161s103.5 -158.667 133.5 -263s45 -224.5 45 -360.5zM802 1418c-78 0 -142.999 -15.667 -194.999 -47s-93.667 -74.5 -125 -129.5s-53.666 -120.5 -66.999 -196.5s-20 -158.333 -20 -247c0 -88 6.5 -169.833 19.5 -245.5s35.167 -141.167 66.5 -196.5
s73 -98.833 125 -130.5s117.333 -47.5 196 -47.5c56 0 105 8.5 147 25.5s78.167 40.167 108.5 69.5s55.166 64 74.499 104s34.833 83 46.5 129s19.667 93.833 24 143.5s6.5 99.167 6.5 148.5c0 52 -2.33301 103.5 -7 154.5s-13 99.5 -25 145.5s-28 88.5 -48 127.5
s-45 72.833 -75 101.5s-65.833 51 -107.5 67s-89.834 24 -144.501 24z" />
    <glyph glyph-name="R" unicode="R" horiz-adv-x="1448" 
d="M614 894c74.667 0 138.667 5.66699 192 17s97 28.5 131 51.5s59 51.667 75 86s24 74.5 24 120.5c0 56 -11.5 100 -34.5 132s-54.667 56.167 -95 72.5s-87.5 26.5 -141.5 30.5s-112 6 -174 6h-149v-516h172zM879 803c72.667 -8 137.173 -21.3311 193.506 -39.998
s103.666 -44.334 141.999 -77.001s67.333 -73 87 -121s29.5 -104.667 29.5 -170v-395h-285v415c0 67.333 -10.833 120.833 -32.5 160.5s-52.334 69.667 -92.001 90s-87.334 33.5 -143.001 39.5s-117.5 9 -185.5 9h-151v-714h-287v1602h449c129.333 0 239.666 -8 330.999 -24
s166 -40.5 224 -73.5s100.333 -74.833 127 -125.5s40 -110.667 40 -180s-11.167 -128.5 -33.5 -177.5s-53.333 -89.333 -93 -121s-86.834 -55.334 -141.501 -71.001s-114.334 -24.5 -179.001 -26.5z" />
    <glyph glyph-name="S" unicode="S" horiz-adv-x="1314" 
d="M1234 439c0 -67.333 -10.999 -129.832 -32.999 -187.499s-56.667 -107.834 -104 -150.501s-108 -76 -182 -100s-162.667 -36 -266 -36c-70.667 0 -137.167 6.83301 -199.5 20.5s-117.5 28.834 -165.5 45.501c-56 19.333 -107.333 41.666 -154 66.999l49 208
c0 -1.33301 7 -5.33301 21 -12s33.167 -14.5 57.5 -23.5s52.5 -18.833 84.5 -29.5s66.167 -20.334 102.5 -29.001s73.666 -16 111.999 -22s75.5 -9 111.5 -9c44 0 83.833 4 119.5 12s66 20.833 91 38.5s44.333 40.5 58 68.5s20.5 62.333 20.5 103
c0 60 -16.333 109.667 -49 149s-82.334 71.666 -149.001 96.999l-343 134c-47.333 18.667 -91.333 40.667 -132 66s-75.834 54.833 -105.501 88.5s-53 71.834 -70 114.501s-25.5 90.667 -25.5 144c0 76.667 15.167 142.334 45.5 197.001s71 99.667 122 135
s110.333 61.333 178 78s138.5 25 212.5 25c64.667 0 125.167 -5.33301 181.5 -16s107 -23.167 152 -37.5s83.167 -28.833 114.5 -43.5s54 -26 68 -34l-58 -198c-12 7.33301 -32.167 17.5 -60.5 30.5s-61.666 25.833 -99.999 38.5s-80.166 23.667 -125.499 33
s-91.333 14 -138 14c-47.333 0 -90.5 -3.16699 -129.5 -9.5s-72.5 -17.166 -100.5 -32.499s-49.833 -36 -65.5 -62s-23.5 -58.333 -23.5 -97c0 -18 2.5 -35.333 7.5 -52s13.5 -32.5 25.5 -47.5s28.167 -29.333 48.5 -43s46.166 -26.5 77.499 -38.5l340 -127
c54.667 -20.667 105.334 -45.334 152.001 -74.001s86.667 -62.167 120 -100.5s59.5 -82 78.5 -131s28.5 -103.833 28.5 -164.5z" />
    <glyph glyph-name="T" unicode="T" horiz-adv-x="1219" 
d="M753 1410v-1410h-287v1410h-439v192h1161v-192h-435z" />
    <glyph glyph-name="U" unicode="U" horiz-adv-x="1580" 
d="M788 178c78 0 140.669 11.5 188.002 34.5s83.833 57.5 109.5 103.5s42.667 103.167 51 171.5s12.5 147.833 12.5 238.5v876h287v-872c0 -124 -11.833 -233.5 -35.5 -328.5s-61.334 -174.833 -113.001 -239.5s-118.334 -113.667 -200.001 -147s-180.167 -50 -295.5 -50
c-119.333 0 -220.333 16.667 -303 50s-150 82.333 -202 147s-89.667 144.5 -113 239.5s-35 204.5 -35 328.5v872h287v-876c0 -90.667 5 -170.167 15 -238.5s28.333 -125.5 55 -171.5s63.5 -80.5 110.5 -103.5s107.5 -34.5 181.5 -34.5z" />
    <glyph glyph-name="V" unicode="V" horiz-adv-x="1404" 
d="M704 349l383 1253h270l-500 -1602h-310l-501 1602h269z" />
    <glyph glyph-name="W" unicode="W" horiz-adv-x="2017" 
d="M1176 1602l254 -1304l264 1304h277l-348 -1605h-367l-248 1361l-268 -1358h-350l-347 1602h277l263 -1304l254 1304h339z" />
    <glyph glyph-name="X" unicode="X" horiz-adv-x="1365" 
d="M1044 1602h295l-496 -802l497 -800h-310l-347 567l-348 -567h-310l497 800l-496 802h295l362 -591z" />
    <glyph glyph-name="Y" unicode="Y" horiz-adv-x="1295" 
d="M1014 1602h288l-519 -1093v-509h-275v509l-516 1093h288l368 -798z" />
    <glyph glyph-name="Z" unicode="Z" horiz-adv-x="1249" 
d="M1169 1407l-775 -1215h777v-192h-1088v208l776 1202h-776v192h1086v-195z" />
    <glyph glyph-name="bracketleft" unicode="[" horiz-adv-x="1123" 
d="M970 1602v-192h-450v-1218h450v-192h-718v1602h718z" />
    <glyph glyph-name="backslash" unicode="\" horiz-adv-x="1123" 
d="M994 -77l-245 -85l-605 1814l244 81z" />
    <glyph glyph-name="bracketright" unicode="]" horiz-adv-x="1153" 
d="M916 1602v-1602h-718v192h450v1218h-450v192h718z" />
    <glyph glyph-name="asciicircum" unicode="^" horiz-adv-x="1347" 
d="M762 1114l279 -569l-205 -39l-164 386l-163 -386l-204 39l279 569h178z" />
    <glyph glyph-name="underscore" unicode="_" horiz-adv-x="1214" 
d="M98 -106v207h983v-207h-983z" />
    <glyph glyph-name="grave" unicode="`" horiz-adv-x="833" 
d="M65 663l281 119l182 -624l-115 -52z" />
    <glyph glyph-name="a" unicode="a" 
d="M615 1022c-66 0 -131.332 -9.33398 -195.999 -28.001s-124.667 -45 -180 -79l-77 174c34.667 20 69.167 37.667 103.5 53s70 28 107 38s75.833 17.667 116.5 23s84.667 8 132 8c96 0 175 -11.167 237 -33.5s111.167 -56.333 147.5 -102s61.5 -103.167 75.5 -172.5
s21 -150.666 21 -243.999v-659h-209l-39 166c-44 -66.667 -95.333 -114.834 -154 -144.501s-127.667 -44.5 -207 -44.5c-62.667 0 -119 8 -169 24s-92.5 40 -127.5 72s-61.833 71.667 -80.5 119s-28 102.333 -28 165c0 63.333 12 118.5 36 165.5s57.333 86 100 117
s93.5 54.167 152.5 69.5s123.833 23 194.5 23c34 0 65.167 -1.33301 93.5 -4s53.5 -5.83398 75.5 -9.50098s40.5 -7.16699 55.5 -10.5s25.833 -5.33301 32.5 -6c0 49.333 -1.33301 93.833 -4 133.5s-10.667 73.334 -24 101.001s-34.333 48.834 -63 63.501
s-69.334 22 -122.001 22zM564.001 166.999c49.333 0 95.5 10.665 138.5 31.998s84.833 53.333 125.5 96v267c-5.33301 0 -14.333 0.833008 -27 2.5s-27.167 3.33398 -43.5 5.00098s-33 3.16699 -50 4.5s-31.833 2 -44.5 2c-48 0 -90.5 -3 -127.5 -9s-68.333 -16.5 -94 -31.5
s-45 -35.333 -58 -61s-19.5 -58.167 -19.5 -97.5c0 -75.333 17.833 -129.166 53.5 -161.499s84.5 -48.5 146.5 -48.5z" />
    <glyph glyph-name="b" unicode="b" horiz-adv-x="1313" 
d="M709 167c80.667 0 142.168 35.666 184.501 106.999s63.5 182.666 63.5 333.999c0 76 -5 140.333 -15 193s-24.833 95.334 -44.5 128.001s-43.834 56.334 -72.501 71.001s-62 22 -100 22c-50 0 -99.5 -10.5 -148.5 -31.5s-98.833 -53.833 -149.5 -98.5v-603
c44 -43.333 89 -74.5 135 -93.5s95 -28.5 147 -28.5zM745.001 -23.001c-76.667 0 -144.331 17.0029 -202.998 51.0029s-105.667 82.667 -141 146l-53 -174h-196v1653l275 42v-634c23.333 24.667 48.5 46.5 75.5 65.5s54.667 34.667 83 47s56.833 21.666 85.5 27.999
s56.667 9.5 84 9.5c77.333 0 145.166 -13.333 203.499 -40s107.166 -65.834 146.499 -117.501s68.833 -115.334 88.5 -191.001s29.5 -162.167 29.5 -259.5c0 -110 -11.5 -204.5 -34.5 -283.5s-55.5 -143.833 -97.5 -194.5s-92.333 -88 -151 -112s-123.667 -36 -195 -36z" />
    <glyph glyph-name="c" unicode="c" horiz-adv-x="1098" 
d="M646 -23c-98.667 0 -183.333 16.667 -254 50s-128.5 78 -173.5 134s-78 120.5 -99 193.5s-31.5 149.5 -31.5 229.5c0 86.667 12.5 168.167 37.5 244.5s61.333 142.833 109 199.5s106.334 101.334 176.001 134.001s149.167 49 238.5 49c44 0 84.833 -3 122.5 -9
s72.5 -14.167 104.5 -24.5s61 -22.333 87 -36s49.667 -28.167 71 -43.5l-62 -182c-15.333 13.333 -33.833 26.333 -55.5 39s-45.167 24 -70.5 34s-52.333 18 -81 24s-57.667 9 -87 9c-59.333 -3.33301 -109 -15.166 -149 -35.499s-72.333 -48.833 -97 -85.5
s-42.167 -81.334 -52.5 -134.001s-15.5 -112.334 -15.5 -179.001c0 -140.667 27 -246 81 -316s131.333 -105 232 -105c65.333 0 121 10.167 167 30.5s88.667 46.833 128 79.5l62 -183c-20 -14 -42.667 -28 -68 -42s-54 -26.5 -86 -37.5s-67.333 -20 -106 -27
s-81.334 -10.5 -128.001 -10.5z" />
    <glyph glyph-name="d" unicode="d" horiz-adv-x="1312" 
d="M359 594c0 -76.667 5.83301 -142 17.5 -196s28.5 -98.167 50.5 -132.5s48.667 -59.333 80 -75s66.333 -23.5 105 -23.5c53.333 0 104.333 10 153 30s90.667 51 126 93v602c-49.333 39.333 -98 70.833 -146 94.5s-98.667 35.5 -152 35.5c-45.333 0 -83 -10.167 -113 -30.5
s-54 -49.166 -72 -86.499s-30.667 -82.333 -38 -135s-11 -111.334 -11 -176.001zM542 1211c72.667 0 138.001 -13 196.001 -39s109 -66 153 -120v601l275 43v-1696h-197l-53 175c-16 -28.667 -36.5 -55.167 -61.5 -79.5s-52.833 -45.166 -83.5 -62.499
s-63.334 -31 -98.001 -41s-70 -15 -106 -15c-87.333 0 -161.333 17.167 -222 51.5s-110 81 -148 140s-65.667 127.667 -83 206s-26 161.833 -26 250.5c0 79.333 10.5 154.5 31.5 225.5s51 133.167 90 186.5s86.667 95.666 143 126.999s119.5 47 189.5 47z" />
    <glyph glyph-name="e" unicode="e" horiz-adv-x="1193" 
d="M1053 86c-29.333 -18 -60.6738 -33.668 -94.0068 -47.001s-67.166 -24.666 -101.499 -33.999s-68.166 -16.333 -101.499 -21s-64.666 -7 -93.999 -7c-91.333 0 -172.5 13.833 -243.5 41.5s-131 67.334 -180 119.001s-86.333 114 -112 187s-38.5 154.833 -38.5 245.5
c0 92.667 11.667 178.167 35 256.5s57.833 146 103.5 203s102.334 101.5 170.001 133.5s145.5 48 233.5 48c78 0 146.833 -12.5 206.5 -37.5s109.834 -60.5 150.501 -106.5s71.334 -101.333 92.001 -166s31 -136.667 31 -216c0 -24.667 -0.333008 -49 -1 -73
s-1.66699 -47.333 -3 -70h-738c0.666992 -64.667 8.33398 -120.667 23.001 -168s35.5 -86.333 62.5 -117s60 -53.334 99 -68.001s82.833 -22 131.5 -22c62 0 116.667 8.83301 164 26.5s94 44.167 140 79.5zM878.992 705.999c0 104 -21 182.333 -63 235
s-100.333 79.667 -175 81c-45.333 -1.33301 -84.5 -10.833 -117.5 -28.5s-60.667 -41.5 -83 -71.5s-39.5 -65 -51.5 -105s-19 -82.667 -21 -128h511v17z" />
    <glyph glyph-name="f" unicode="f" horiz-adv-x="851" 
d="M642 1497c-31.333 0 -56.498 -6.49902 -75.498 -19.499s-33.667 -32.5 -44 -58.5s-17.166 -58.833 -20.499 -98.5s-5 -85.834 -5 -138.501h318v-127h-318v-1055h-276v1055h-195v127h195c0 89.333 7.33301 166.666 22 231.999s37 119.333 67 162
s68.167 74.334 114.5 95.001s101.166 31 164.499 31c51.333 0 97.666 -5.33301 138.999 -16s78.666 -23.667 111.999 -39l-32 -194c-25.333 10 -52.333 19.833 -81 29.5s-57 14.5 -85 14.5z" />
    <glyph glyph-name="g" unicode="g" horiz-adv-x="1276" 
d="M580 -295c73.333 0 134.999 2.83008 184.999 8.49707s90.5 15.667 121.5 30s53.333 33.833 67 58.5s20.5 56.334 20.5 95.001c0 43.333 -10.167 76.333 -30.5 99s-51.166 39.334 -92.499 50.001s-94 17.667 -158 21s-139.333 7 -226 11
c-17.333 -9.33301 -34.333 -21.666 -51 -36.999s-31.5 -32.5 -44.5 -51.5s-23.667 -39.667 -32 -62s-12.5 -45.5 -12.5 -69.5c0 -32 6.5 -58 19.5 -78s30.833 -35.5 53.5 -46.5s49.5 -18.5 80.5 -22.5s64.167 -6 99.5 -6zM656.999 610.997
c26.667 4.66699 51.5 12.335 74.5 23.002s43.167 25.167 60.5 43.5s31 41.166 41 68.499s15 60 15 98c0 65.333 -18.167 111.666 -54.5 138.999s-91.833 41 -166.5 41c-34 0 -65.167 -3 -93.5 -9s-52.5 -16.167 -72.5 -30.5s-35.5 -34 -46.5 -59s-16.5 -56.5 -16.5 -94.5
c0 -26 3.5 -51 10.5 -75s16.833 -46.167 29.5 -66.5s27.5 -38.333 44.5 -54s35.167 -28.5 54.5 -38.5zM1006 1011c24 -30 42.332 -57.498 54.999 -82.498s19 -50.833 19 -77.5c0 -48 -6.5 -93.833 -19.5 -137.5s-34.5 -83.167 -64.5 -118.5s-69.833 -65.333 -119.5 -90
s-111.5 -42 -185.5 -52l-331 -47l18 -136l283 -10c94.667 -4 176.5 -13.5 245.5 -28.5s126.167 -37.167 171.5 -66.5s79 -66.5 101 -111.5s33 -99.5 33 -163.5c0 -72 -14.333 -132.833 -43 -182.5s-70 -90 -124 -121s-120.167 -53.5 -198.5 -67.5s-167.5 -21 -267.5 -21
c-157.333 0 -275.833 27.333 -355.5 82s-119.5 143.667 -119.5 267c0 31.333 5.33301 60.5 16 87.5s25.334 51.667 44.001 74s40.334 42.166 65.001 59.499s50.667 32 78 44c-27.333 4 -51.333 11.667 -72 23s-38 27.333 -52 48s-24.5 46.334 -31.5 77.001
s-10.5 67.667 -10.5 111c0 31.333 6.5 57.166 19.5 77.499s30.167 37.166 51.5 50.499s46.166 24 74.499 32s57.5 15.667 87.5 23c-29.333 4 -57.166 13.5 -83.499 28.5s-49.333 34.5 -69 58.5s-35.334 52.333 -47.001 85s-17.5 68.667 -17.5 108
c0 58.667 10.5 111.167 31.5 157.5s51.167 85.833 90.5 118.5s87 57.667 143 75s119.333 26 190 26c64 0 120.333 -5.5 169 -16.5s90 -28.5 124 -52.5c25.333 12 48.833 21.833 70.5 29.5s44 13.667 67 18s47.833 7.33301 74.5 9s58 2.5 94 2.5h41v-190h-246z" />
    <glyph glyph-name="h" unicode="h" horiz-adv-x="1337" 
d="M427 1039c27.333 31.333 54.667 58.0029 82 80.0029s55.5 39.833 84.5 53.5s59.167 23.5 90.5 29.5s64.666 9 99.999 9c80.667 0 147.667 -13 201 -39s96 -62.333 128 -109s54.5 -102.334 67.5 -167.001s19.5 -135.334 19.5 -212.001v-684h-275v696
c0 108.667 -15.5 190.167 -46.5 244.5s-82.167 81.5 -153.5 81.5c-38.667 0 -73.5 -4 -104.5 -12s-58.667 -18 -83 -30s-45.666 -25.333 -63.999 -40s-33.833 -28.334 -46.5 -41.001v-899h-275v1648l275 50v-659z" />
    <glyph glyph-name="i" unicode="i" horiz-adv-x="603" 
d="M167 0v1182h271v-1182h-271zM149 1558c0 22 4.00195 42.665 12.002 61.998s19 36 33 50s30.333 25.167 49 33.5s38.667 12.5 60 12.5c22 0 42.5 -4.16699 61.5 -12.5s35.5 -19.666 49.5 -33.999s25 -31.166 33 -50.499s12 -39.666 12 -60.999
c0 -22 -4.16699 -42.667 -12.5 -62s-19.666 -36 -33.999 -50s-31 -25 -50 -33s-38.833 -12 -59.5 -12c-22.667 0 -43.334 4.16699 -62.001 12.5s-34.834 19.666 -48.501 33.999s-24.334 31 -32.001 50s-11.5 39.167 -11.5 60.5z" />
    <glyph glyph-name="j" unicode="j" horiz-adv-x="638" 
d="M191 1557c0 22.667 4 43.499 12 62.499s18.833 35.5 32.5 49.5s29.667 25 48 33s38.166 12 59.499 12c22 0 42.333 -4.16699 61 -12.5s34.834 -19.666 48.501 -33.999s24.334 -31 32.001 -50s11.5 -39.167 11.5 -60.5c0 -22.667 -4 -43.667 -12 -63s-19 -36 -33 -50
s-30.333 -25 -49 -33s-38.334 -12 -59.001 -12c-22.667 0 -43.334 4.33301 -62.001 13s-34.667 20.167 -48 34.5s-23.666 31 -30.999 50s-11 39.167 -11 60.5zM5 -187.001c42 26 76.167 53.667 102.5 83s46.666 62.833 60.999 100.5s24.166 80 29.499 127s8 100.833 8 161.5
v897h276v-1001c0 -71.333 -10 -137.333 -30 -198s-47.667 -114.667 -83 -162s-77.166 -87 -125.499 -119s-101.166 -54.667 -158.499 -68z" />
    <glyph glyph-name="k" unicode="k" horiz-adv-x="1306" 
d="M427 0h-275v1653l275 43v-1004l506 490h309l-540 -524l562 -658h-314l-417 533l-106 -93v-440z" />
    <glyph glyph-name="l" unicode="l" horiz-adv-x="602" 
d="M438 0h-276v1653l276 43v-1696z" />
    <glyph glyph-name="m" unicode="m" horiz-adv-x="1978" 
d="M427 0h-275v1182h198l53 -195c36.667 74.667 85.334 130.667 146.001 168s132 56 214 56s149.5 -17.5 202.5 -52.5s92.5 -84.5 118.5 -148.5c44 64 98.833 113.5 164.5 148.5s141.834 52.5 228.501 52.5c60 0 112.833 -10.5 158.5 -31.5s83.667 -50.667 114 -89
s53.166 -84.5 68.499 -138.5s23 -114 23 -180v-772h-276v786c0 44.667 -3.83301 82 -11.5 112s-18.5 54 -32.5 72s-31 30.833 -51 38.5s-42.667 11.5 -68 11.5c-46.667 0 -91.667 -12.5 -135 -37.5s-89 -61.5 -137 -109.5v-873h-275v792c0 78 -12.333 135 -37 171
s-66.334 54 -125.001 54c-46 0 -91.333 -14.5 -136 -43.5s-88 -67.5 -130 -115.5v-858z" />
    <glyph glyph-name="n" unicode="n" horiz-adv-x="1321" 
d="M405 1011c18 28 40.498 54.166 67.498 78.499s57 45.5 90 63.5s68.167 32.167 105.5 42.5s75 15.5 113 15.5c72 0 133.333 -10.333 184 -31s92.334 -51 125.001 -91s56.5 -89.667 71.5 -149s22.5 -127.666 22.5 -204.999v-735h-275v748
c0 92.667 -15.167 161.5 -45.5 206.5s-80.166 67.5 -149.499 67.5c-28 0 -56.667 -4.66699 -86 -14s-57 -21 -83 -35s-49.333 -29.333 -70 -46s-36.667 -32 -48 -46v-881h-275v1182h207z" />
    <glyph glyph-name="o" unicode="o" horiz-adv-x="1293" 
d="M644 156c54.667 0 100.501 11.166 137.501 33.499s66.667 53 89 92s38.166 84.333 47.499 136s14 107.167 14 166.5c0 58.667 -4.66699 114 -14 166s-25.166 97.5 -47.499 136.5s-52 70 -89 93s-82.833 34.5 -137.5 34.5s-100.334 -11.5 -137.001 -34.5
s-66.167 -54 -88.5 -93s-38.166 -84.667 -47.499 -137s-14 -107.5 -14 -165.5c0 -31.333 1.5 -63.5 4.5 -96.5s8.33301 -65.333 16 -97s18.167 -61.667 31.5 -90s30.666 -53.166 51.999 -74.499s47 -38.333 77 -51s65.333 -19 106 -19zM1201 583.999
c0 -84.667 -10.3311 -164.334 -30.998 -239.001s-53.167 -140 -97.5 -196s-101.833 -100.167 -172.5 -132.5s-156 -48.5 -256 -48.5s-185.333 16.167 -256 48.5s-128.5 76.5 -173.5 132.5s-77.833 121.333 -98.5 196s-31 154.334 -31 239.001
c0 85.333 10.5 165.666 31.5 240.999s54 141 99 197s102.667 100.333 173 133s155.166 49 254.499 49s184.166 -16.333 254.499 -49s128 -77 173 -133s78 -121.667 99 -197s31.5 -155.666 31.5 -240.999z" />
    <glyph glyph-name="p" unicode="p" horiz-adv-x="1320" 
d="M729 1022c-54 0 -107.831 -12.166 -161.498 -36.499s-100.5 -57.5 -140.5 -99.5v-577c22 -21.333 45.167 -40.666 69.5 -57.999s49.333 -32.333 75 -45s51.167 -22.334 76.5 -29.001s49.666 -10 72.999 -10c48 0 87.5 12.5 118.5 37.5s55.5 57.167 73.5 96.5
s30.333 83.166 37 131.499s10 95.5 10 141.5c0 144.667 -18.333 255.5 -55 332.5s-95.334 115.5 -176.001 115.5zM744.002 -22.999c-62.667 0 -121.499 15.166 -176.499 45.499s-101.833 70.833 -140.5 121.5v-597h-275v1635h208l50 -177c16.667 30.667 36.5 58.667 59.5 84
s49 47 78 65s60.667 32 95 42s71.166 15 110.499 15c156.667 0 275.667 -52.167 357 -156.5s122 -260.5 122 -468.5c0 -85.333 -10.5 -165.166 -31.5 -239.499s-52 -138.833 -93 -193.5s-91.833 -97.667 -152.5 -129s-131 -47 -211 -47z" />
    <glyph glyph-name="q" unicode="q" horiz-adv-x="1312" 
d="M604 167c24 0 49.1689 3.83203 75.502 11.499s52.333 17.667 78 30s50 26.5 73 42.5s43.167 32.667 60.5 50v572c-40.667 50 -86.334 87.333 -137.001 112s-100.334 37 -149.001 37c-50.667 0 -92 -12 -124 -36s-57 -56 -75 -96s-30.333 -86.167 -37 -138.5
s-10 -107.166 -10 -164.499c0 -58 3.66699 -112.5 11 -163.5s20.166 -95.5 38.499 -133.5s43.333 -68 75 -90s71.834 -33 120.501 -33zM571.002 1211c66.667 0 128.83 -17.834 186.497 -53.501s105.167 -87.5 142.5 -155.5l42 180h224v-1642h-275v604
c-41.333 -49.333 -89.166 -89.5 -143.499 -120.5s-114.833 -46.5 -181.5 -46.5c-83.333 0 -155.166 16.5 -215.499 49.5s-110 77.5 -149 133.5s-67.667 120.833 -86 194.5s-27.5 151.167 -27.5 232.5c0 93.333 8.83301 178.333 26.5 255s45.834 142.334 84.501 197.001
s88.667 97 150 127s135.333 45 222 45z" />
    <glyph glyph-name="r" unicode="r" horiz-adv-x="844" 
d="M414 991c20 32 41.1699 60.332 63.5029 84.999s46.666 45.334 72.999 62.001s55.166 29.334 86.499 38.001s66 13 104 13c21.333 0 42.666 -1 63.999 -3v-229c-9.33301 4 -24 6.83301 -44 8.5s-41.667 2.5 -65 2.5c-48 0 -94.833 -11.833 -140.5 -35.5
s-88.5 -52.834 -128.5 -87.501v-845h-275v1182h226z" />
    <glyph glyph-name="s" unicode="s" horiz-adv-x="1050" 
d="M339 564c-34.667 12.667 -67.3301 27.666 -97.9971 44.999s-57.5 38.5 -80.5 63.5s-41.167 54.833 -54.5 89.5s-20 75.667 -20 123c0 52 11 98.333 33 139s52.333 74.834 91 102.501s84.5 48.667 137.5 63s110.5 21.5 172.5 21.5c49.333 0 97.666 -4.66699 144.999 -14
s90.166 -20.166 128.499 -32.499s70.333 -24.5 96 -36.5s41.834 -20.667 48.501 -26l-65 -178c-10 8 -27.333 17.5 -52 28.5s-52.834 21.667 -84.501 32s-65.5 19.166 -101.5 26.499s-70.667 11 -104 11c-35.333 0 -65.833 -3.5 -91.5 -10.5s-46.667 -16.5 -63 -28.5
s-28.333 -26.167 -36 -42.5s-11.5 -34.166 -11.5 -53.499c0 -15.333 2.66699 -29 8 -41s13.333 -22.667 24 -32s24 -18 40 -26s34.667 -16 56 -24l188 -69c52 -19.333 98.333 -40.166 139 -62.499s75.334 -47.666 104.001 -75.999s50.5 -60.166 65.5 -95.499
s22.5 -75.333 22.5 -120c0 -57.333 -10.5 -108.5 -31.5 -153.5s-51 -83.167 -90 -114.5s-86 -55.333 -141 -72s-116.833 -25 -185.5 -25c-57.333 0 -110.833 5.16699 -160.5 15.5s-93.667 22 -132 35s-70 25.833 -95 38.5s-40.833 21.667 -47.5 27l65 181
c7.33301 -6 23.666 -14.833 48.999 -26.5s55 -23.5 89 -35.5s70.167 -22.333 108.5 -31s74.5 -13 108.5 -13c26.667 0 52.667 2.5 78 7.5s47.666 13.667 66.999 26s34.833 28.666 46.5 48.999s17.5 46.166 17.5 77.499c0 35.333 -13.667 64.666 -41 87.999
s-64 43.666 -110 60.999z" />
    <glyph glyph-name="t" unicode="t" horiz-adv-x="896" 
d="M532 -23c-59.333 0 -109.669 9.49902 -151.002 28.499s-74.666 48 -99.999 87s-43.666 88.333 -54.999 148s-17 130.167 -17 211.5v603h-200v127h218v403l256 66v-469h335v-127h-335v-692c0 -67.333 8.5 -116.833 25.5 -148.5s47.5 -47.5 91.5 -47.5
c25.333 0 53.5 7 84.5 21s65.5 32.333 103.5 55l76 -170c-17.333 -10.667 -37.333 -21.667 -60 -33s-48 -21.666 -76 -30.999s-58.333 -17 -91 -23s-67.667 -9 -105 -9z" />
    <glyph glyph-name="u" unicode="u" horiz-adv-x="1299" 
d="M407 439c0 -42.667 3.33301 -80.501 10 -113.501s17.667 -60.667 33 -83s35.333 -39.333 60 -51s54.667 -17.5 90 -17.5c50 0 96.667 9 140 27s87.666 48.667 132.999 92v889h276v-1182h-198l-53 179c-14 -28 -31.833 -54.333 -53.5 -79s-46.667 -46.167 -75 -64.5
s-59.666 -32.666 -93.999 -42.999s-71.5 -15.5 -111.5 -15.5c-141.333 0 -248.333 38.333 -321 115s-109 196.667 -109 360v730h273v-743z" />
    <glyph glyph-name="v" unicode="v" horiz-adv-x="1170" 
d="M429 0l-405 1182h284l279 -928l274 928h287l-407 -1182h-312z" />
    <glyph glyph-name="w" unicode="w" horiz-adv-x="1636" 
d="M817 864l-206 -864h-273l-314 1182h260l195 -933l210 933h259l206 -933l202 933h257l-314 -1182h-275z" />
    <glyph glyph-name="x" unicode="x" horiz-adv-x="1170" 
d="M348 0h-305l408 593l-414 589h311l240 -402l240 402h305l-406 -589l399 -593h-299l-238 416z" />
    <glyph glyph-name="y" unicode="y" horiz-adv-x="1171" 
d="M24 1182h276l319 -865l250 865h280l-423 -1217c-31.333 -89.333 -68 -162.333 -110 -219s-85.833 -101 -131.5 -133s-91.167 -54 -136.5 -66s-87 -18 -125 -18l-76 185c52 6.66699 96.667 17 134 31s69.5 33.333 96.5 58s50 55.667 69 93s36.167 83 51.5 137z" />
    <glyph glyph-name="z" unicode="z" horiz-adv-x="1054" 
d="M122 994v188h825v-201l-561 -793h566v-188h-851v203l575 791h-554z" />
    <glyph glyph-name="braceleft" unicode="{" horiz-adv-x="850" 
d="M552 1053c-0.666992 -65.333 -6.16797 -120.499 -16.501 -165.499s-24.833 -82.5 -43.5 -112.5s-41.167 -53.667 -67.5 -71s-55.5 -30.666 -87.5 -39.999c38 -12 70.5 -28.333 97.5 -49s49.167 -46.834 66.5 -78.501s30.166 -69 38.499 -112s12.833 -92.833 13.5 -149.5
c0.666992 -70 5 -125.167 13 -165.5s19.5 -71 34.5 -92s33 -34.333 54 -40s45.167 -8.5 72.5 -8.5v-182c-58 0 -111.333 7 -160 21s-91.334 36.833 -128.001 68.5s-66.667 73 -90 124s-38.333 113.5 -45 187.5c-6 72.667 -13 133.334 -21 182.001s-18.667 87.667 -32 117
s-30.5 50.166 -51.5 62.499s-46.833 18.5 -77.5 18.5v192c32.667 0 59.167 6.33301 79.5 19s37 33.834 50 63.501s23.333 68.667 31 117s14.834 108.5 21.501 180.5c6.66699 73.333 21.5 135.5 44.5 186.5s52.833 92.333 89.5 124s79.334 54.667 128.001 69
s102.334 21.5 161.001 21.5v-182c-26.667 0 -50.667 -2.66699 -72 -8s-39.5 -18.333 -54.5 -39s-26.667 -51.334 -35 -92.001s-12.833 -96.334 -13.5 -167.001z" />
    <glyph glyph-name="bar" unicode="|" horiz-adv-x="731" 
d="M242 1706h247v-1837h-247v1837z" />
    <glyph glyph-name="braceright" unicode="}" horiz-adv-x="852" 
d="M320 1054c-0.666992 71.333 -5.32715 127.502 -13.9941 168.502s-20.667 71.667 -36 92s-33.5 33 -54.5 38s-44.5 7.5 -70.5 7.5v182c58 0 111.5 -7 160.5 -21s91.833 -36.833 128.5 -68.5s66.5 -73 89.5 -124s37.833 -113.5 44.5 -187.5
c2.66699 -25.333 5.16699 -50.333 7.5 -75s5.16602 -49.334 8.49902 -74.001c4 -43.333 10.5 -79.833 19.5 -109.5s20.333 -53.5 34 -71.5s29.834 -31 48.501 -39s40 -12 64 -12v-191c-31.333 0 -57.333 -6.16699 -78 -18.5s-37.834 -33.333 -51.501 -63
s-24.334 -68.834 -32.001 -117.501s-14.5 -109 -20.5 -181c-6.66699 -73.333 -21.5 -135.5 -44.5 -186.5s-52.833 -92.333 -89.5 -124s-79.334 -54.667 -128.001 -69s-102.334 -21.5 -161.001 -21.5v181c26 0 49.667 2.5 71 7.5s39.5 17.667 54.5 38s26.667 51 35 92
s12.833 97.167 13.5 168.5c0.666992 56.667 5.16699 106.5 13.5 149.5s21.166 80.333 38.499 112s39.5 58 66.5 79s59.5 37.5 97.5 49.5c-33.333 10 -63.166 23.833 -89.499 41.5s-48.833 41.5 -67.5 71.5s-32.834 67.5 -42.501 112.5s-14.834 99.5 -15.501 163.5z" />
    <glyph glyph-name="asciitilde" unicode="~" horiz-adv-x="1071" 
d="M755 303c-39.333 0 -77.667 7.16797 -115 21.501s-72.333 30.166 -105 47.499l-87.5 47.5c-25.667 14.333 -46.167 21.5 -61.5 21.5c-22.667 0 -38.834 -9 -48.501 -27s-14.5 -49.667 -14.5 -95h-186c0 106.667 19.667 184 59 232s93.666 72 162.999 72
c24 0 47 -3.33301 69 -10s43.333 -15 64 -25s40.834 -21 60.501 -33s39 -23 58 -33s37.833 -18.333 56.5 -25s37.334 -10 56.001 -10c12.667 0 22.834 2.66699 30.501 8s13.5 12.833 17.5 22.5s6.66699 21.167 8 34.5s2 28 2 44h192c0 -43.333 -4.83301 -83 -14.5 -119
s-23.834 -66.833 -42.501 -92.5s-41.5 -45.667 -68.5 -60s-57.833 -21.5 -92.5 -21.5z" />
    <glyph glyph-name="uni00A0" unicode="&#xa0;" horiz-adv-x="595" 
 />
    <glyph glyph-name="exclamdown" unicode="&#xa1;" horiz-adv-x="803" 
d="M565 -1h-284l41 1139h188zM270 1422c0 31.333 3.00195 57.332 9.00195 77.999s15.5 37.167 28.5 49.5s29.5 21 49.5 26s44 7.5 72 7.5c28.667 0 52.167 -4 70.5 -12s32.666 -19.167 42.999 -33.5s17.333 -31.333 21 -51s5.5 -41.167 5.5 -64.5
c0 -51.333 -11.333 -87.5 -34 -108.5s-58 -31.5 -106 -31.5c-25.333 0 -48.833 2.5 -70.5 7.5s-42.167 12.167 -61.5 21.5c-8.66699 16 -15.334 33.333 -20.001 52s-7 38.334 -7 59.001z" />
    <glyph glyph-name="cent" unicode="&#xa2;" horiz-adv-x="1134" 
d="M387 592c0 -117.333 19.833 -210.499 59.5 -279.499s99.834 -111.167 180.501 -126.5v817c-46.667 -8 -85.334 -24.333 -116.001 -49s-55.167 -55.334 -73.5 -92.001s-31.333 -78.167 -39 -124.5s-11.5 -94.833 -11.5 -145.5zM627 -17.999
c-76.667 4 -146.667 20.668 -210 50.001s-117.666 69.833 -162.999 121.5s-80.5 114.334 -105.5 188.001s-37.5 157.167 -37.5 250.5s13.167 176.833 39.5 250.5s62.5 136.667 108.5 189s100.5 93.166 163.5 122.499s131.167 46.333 204.5 51v168h135v-174
c52.667 -5.33301 104 -17 154 -35s97 -40 141 -66l-62 -183c-26.667 21.333 -60.667 40 -102 56s-85 26.667 -131 32v-821c22 0 44.5 3.16699 67.5 9.5s45 13.666 66 21.999s40.167 17 57.5 26s31 16.5 41 22.5l57 -184c-8.66699 -4.66699 -23.334 -12 -44.001 -22
s-44.5 -20 -71.5 -30s-55.667 -18.833 -86 -26.5s-59.5 -11.5 -87.5 -11.5v-143h-135v137z" />
    <glyph glyph-name="sterling" unicode="&#xa3;" horiz-adv-x="1183" 
d="M202 183c12.667 16 27.3311 38.1699 43.998 66.5029s32.5 61 47.5 98s27.5 76.667 37.5 119s15 85.5 15 129.5h-164v125h138c-9.33301 9.33301 -20.5 22.166 -33.5 38.499s-25.5 36 -37.5 59s-22.167 48.667 -30.5 77s-12.5 59.166 -12.5 92.499
c0 58 11 109.167 33 153.5s53.5 81.333 94.5 111s90.5 52 148.5 67s123 22.5 195 22.5c48.667 0 93.5 -4 134.5 -12s78.333 -17.833 112 -29.5s63.5 -24.334 89.5 -38.001s48.333 -26.167 67 -37.5l-89 -181c-19.333 10.667 -40.166 21.5 -62.499 32.5
s-46.166 21 -71.499 30s-52 16.167 -80 21.5s-57 8 -87 8c-44 0 -80.5 -4.66699 -109.5 -14s-52.333 -22 -70 -38s-30 -35 -37 -57s-10.5 -45.333 -10.5 -70c0 -22.667 1.83301 -43.5 5.5 -62.5s9.5 -37.5 17.5 -55.5s18.333 -36.167 31 -54.5s27.667 -38.5 45 -60.5h422
v-128h-413c0 -51.333 -5.5 -99 -16.5 -143s-23.833 -83.5 -38.5 -118.5s-29.5 -64.833 -44.5 -89.5s-26.5 -43 -34.5 -55h612v-190h-847v183z" />
    <glyph glyph-name="currency" unicode="&#xa4;" horiz-adv-x="1402" 
d="M334 748c-46.667 70.667 -70 148.999 -70 234.999c0 88 25.667 170.667 77 248l-201 201l129 128l201 -200c76.667 52.667 160 79 250 79c84.667 0 163 -23.333 235 -70l192 191l128 -128l-193 -194c42 -67.333 63 -142.666 63 -225.999
c0 -88.667 -26.333 -171.667 -79 -249l209 -209l-128 -129l-210 210c-76 -52 -158 -78 -246 -78c-84 0 -159.333 21 -226 63l-196 -195l-129 129zM713 1276c-38 0 -74.1641 -7.83105 -108.497 -23.498s-64.833 -36.834 -91.5 -63.501s-47.834 -57.167 -63.501 -91.5
s-23.5 -70.5 -23.5 -108.5s7.5 -73.333 22.5 -106s35 -61.334 60 -86.001s54 -44 87 -58s67.833 -21 104.5 -21s72.167 8 106.5 24s64.5 37.167 90.5 63.5s46.833 56.833 62.5 91.5s23.5 70.667 23.5 108c0 36.667 -7.33301 71.5 -22 104.5s-34.334 61.833 -59.001 86.5
s-53.334 44.167 -86.001 58.5s-67 21.5 -103 21.5z" />
    <glyph glyph-name="yen" unicode="&#xa5;" horiz-adv-x="1296" 
d="M1019 1601h295l-440 -860h235v-114h-282l-32 -114h314v-112h-315v-401h-274v401h-318v112h317l-31 114h-286v114h236l-439 860h291l365 -790z" />
    <glyph glyph-name="brokenbar" unicode="&#xa6;" horiz-adv-x="708" 
d="M240 1648h253v-729h-253v729zM240 653h253v-729h-253v729z" />
    <glyph glyph-name="section" unicode="&#xa7;" horiz-adv-x="1174" 
d="M589 633c30.667 0 59.168 2 85.501 6s49.166 10.833 68.499 20.5s34.5 22.667 45.5 39s16.5 36.833 16.5 61.5c0 48 -18.167 82 -54.5 102s-90.166 30 -161.499 30c-39.333 0 -72.5 -3 -99.5 -9s-49 -14.5 -66 -25.5s-29.167 -24.5 -36.5 -40.5s-11 -34.333 -11 -55
c0 -44 17.167 -76.5 51.5 -97.5s88.166 -31.5 161.499 -31.5zM899.001 1286c-10.667 8.66699 -26.833 19.502 -48.5 32.502s-46.5 25.667 -74.5 38s-58.333 22.833 -91 31.5s-65.334 13 -98.001 13c-43.333 0 -78.5 -3 -105.5 -9s-48.167 -14.333 -63.5 -25
s-25.833 -23.5 -31.5 -38.5s-8.5 -31.167 -8.5 -48.5c0 -16 5.16699 -30.333 15.5 -43s27.166 -25.334 50.499 -38.001s54 -26.334 92 -41.001s85 -31.667 141 -51c64 -23.333 118 -46.833 162 -70.5s79.333 -49.334 106 -77.001s45.834 -57.667 57.501 -90
s17.5 -68.833 17.5 -109.5c0 -36 -6 -67.333 -18 -94s-28 -49.667 -48 -69s-43.333 -35.166 -70 -47.499s-54.667 -21.833 -84 -28.5c42.667 -16.667 78.167 -35.667 106.5 -57s51 -44.833 68 -70.5s29.167 -53.667 36.5 -84s11 -62.833 11 -97.5
c0 -56 -12.333 -104 -37 -144s-57.167 -73 -97.5 -99s-86.666 -45 -138.999 -57s-106.5 -18 -162.5 -18c-50 0 -98.667 6.33301 -146 19s-90 27 -128 43s-69.5 31.5 -94.5 46.5s-40.167 24.833 -45.5 29.5l79 180c10 -10.667 27 -23 51 -37s50.667 -27.167 80 -39.5
s59.833 -22.833 91.5 -31.5s60.167 -13 85.5 -13c78.667 0 138.167 11.833 178.5 35.5s60.5 61.5 60.5 113.5c0 24 -3.66699 44 -11 60s-18 29.833 -32 41.5s-31.333 21.834 -52 30.501s-44.334 17.667 -71.001 27l-162 55c-52 18 -97 36.333 -135 55s-69.333 40 -94 64
s-43 51.833 -55 83.5s-18 69.5 -18 113.5c0 26 3.66699 52 11 78s19.833 50 37.5 72s40.834 41.333 69.501 58s64.334 29 107.001 37c-42 14.667 -77.333 31.167 -106 49.5s-51.834 39.166 -69.501 62.499s-30.334 49.5 -38.001 78.5s-11.5 61.833 -11.5 98.5
c0 42 9.66699 80.833 29 116.5s47 66.5 83 92.5s79.333 46.5 130 61.5s107.334 22.5 170.001 22.5c42.667 0 86 -6 130 -18s84.667 -26 122 -42s69 -31.5 95 -46.5s42.333 -25.5 49 -31.5z" />
    <glyph glyph-name="dieresis" unicode="&#xa8;" horiz-adv-x="1117" 
d="M111 314c0 21.333 3.83398 41.5 11.501 60.5s18.5 35.667 32.5 50s30.5 25.666 49.5 33.999s39.5 12.5 61.5 12.5s42.667 -4.16699 62 -12.5s36 -19.666 50 -33.999s25 -31 33 -50s12 -39.167 12 -60.5c0 -22 -4 -42.5 -12 -61.5s-19 -35.667 -33 -50
s-30.667 -25.666 -50 -33.999s-40 -12.5 -62 -12.5c-22.667 0 -43.5 4.16699 -62.5 12.5s-35.333 19.666 -49 33.999s-24.334 31 -32.001 50s-11.5 39.5 -11.5 61.5zM700.001 314c0 21.333 4.00098 41.5 12.001 60.5s19 35.667 33 50s30.5 25.666 49.5 33.999
s39.5 12.5 61.5 12.5s42.667 -4.16699 62 -12.5s36 -19.666 50 -33.999s25 -31 33 -50s12 -39.167 12 -60.5c0 -22 -4 -42.5 -12 -61.5s-19 -35.667 -33 -50s-30.667 -25.666 -50 -33.999s-40 -12.5 -62 -12.5c-23.333 0 -44.5 4.16699 -63.5 12.5
s-35.333 19.666 -49 33.999s-24.334 31 -32.001 50s-11.5 39.5 -11.5 61.5z" />
    <glyph glyph-name="copyright" unicode="&#xa9;" horiz-adv-x="2121" 
d="M1053 102c71.333 0 138.501 8.5 201.501 25.5s121 41 174 72s100.5 68.167 142.5 111.5s77.667 91.5 107 144.5s51.666 110 66.999 171s23 124.5 23 190.5c0 74.667 -9.5 144.167 -28.5 208.5s-45.333 123.166 -79 176.499s-73.167 100.833 -118.5 142.5
s-94 76.667 -146 105s-106.5 50 -163.5 65s-113.5 22.5 -169.5 22.5c-56.667 0 -113.667 -7.5 -171 -22.5s-112 -36.667 -164 -65s-100.667 -63.333 -146 -105s-84.666 -89.167 -117.999 -142.5s-59.5 -112.333 -78.5 -177s-28.5 -134 -28.5 -208
c0 -99.333 16.167 -192.5 48.5 -279.5s78.666 -162.667 138.999 -227s133.333 -115.166 219 -152.499s182.167 -56 289.5 -56zM792.001 819c0 -66 6.49902 -120.834 19.499 -164.501s32 -78.5 57 -104.5s55.833 -44.5 92.5 -55.5s78.667 -16.5 126 -16.5
c21.333 0 42.833 1.5 64.5 4.5s44.5 7.83301 68.5 14.5s49.667 15.667 77 27s57 25 89 41v-176c-56.667 -28.667 -108 -49.5 -154 -62.5s-90 -19.5 -132 -19.5c-67.333 0 -126.666 6.83301 -177.999 20.5s-95.833 32.667 -133.5 57s-69.334 53 -95.001 86
s-46.167 68.667 -61.5 107s-26.166 78.5 -32.499 120.5s-9.5 84 -9.5 126c0 70 9.33301 135.833 28 197.5s48.167 115.5 88.5 161.5s92.333 82.167 156 108.5s140.167 39.5 229.5 39.5c22 0 45.5 -2 70.5 -6s50.167 -9.5 75.5 -16.5s50.333 -15.333 75 -25
s47.667 -20.5 69 -32.5v-172c-54 28 -106 48.5 -156 61.5s-97.667 19.5 -143 19.5c-52.667 0 -97.5 -7.33301 -134.5 -22s-67 -36.5 -90 -65.5s-39.833 -64.667 -50.5 -107s-16 -91.166 -16 -146.499zM1057 -80.001c-79.333 0 -156.83 9.66992 -232.497 29.0029
s-147.167 47.166 -214.5 83.499s-129 80.833 -185 133.5s-104.333 112.334 -145 179.001s-72.334 139.834 -95.001 219.501s-34 164.834 -34 255.501s11.833 176 35.5 256s56.334 153.333 98.001 220s91.167 126.167 148.5 178.5s119.666 96.666 186.999 132.999
s138.666 64.166 213.999 83.499s151.666 29 228.999 29c76 0 151.333 -9.66699 226 -29s145.834 -47.166 213.501 -83.499s130.167 -80.833 187.5 -133.5s107.166 -112.334 149.499 -179.001s75.333 -139.834 99 -219.501s35.5 -164.834 35.5 -255.501
c0 -90 -11.5 -174.667 -34.5 -254s-55 -152.333 -96 -219s-90 -126.334 -147 -179.001s-119.5 -97.5 -187.5 -134.5s-140.333 -65.167 -217 -84.5s-155 -29 -235 -29z" />
    <glyph glyph-name="ordfeminine" unicode="&#xaa;" 
d="M817 828c-0.666992 0 -6.00293 -8.33398 -16.0029 -25.001s-26.333 -35 -49 -55s-52.667 -38.333 -90 -55s-83.666 -25 -138.999 -25c-49.333 0 -93.5 6.5 -132.5 19.5s-72.167 31.833 -99.5 56.5s-48.333 55.167 -63 91.5s-22 77.833 -22 124.5
c0 48 8.66699 90.5 26 127.5s41.833 68.167 73.5 93.5s69.5 44.5 113.5 57.5s92.667 19.5 146 19.5c28.667 0 56.834 -1.66699 84.501 -5s52.334 -7.33301 74.001 -12s39.334 -9.16699 53.001 -13.5s21.167 -7.5 22.5 -9.5v58c0 38.667 -2.16699 72.834 -6.5 102.501
s-13.333 54.5 -27 74.5s-33 35 -58 45s-58.5 15 -100.5 15c-39.333 0 -76.5 -3.66699 -111.5 -11s-65.667 -15.333 -92 -24s-47.333 -16.667 -63 -24s-23.834 -11 -24.501 -11l-53 109c0.666992 0 9.66699 4.5 27 13.5s41 18.833 71 29.5s65.333 20.5 106 29.5
s84.667 13.5 132 13.5c68 0 125 -7.33301 171 -22s83.167 -38.167 111.5 -70.5s48.5 -74 60.5 -125s18 -112.833 18 -185.5v-549h-116zM798.997 1141c-34 5.33301 -65.668 9.5 -95.001 12.5s-56.333 4.5 -81 4.5c-170.667 0 -256 -62.333 -256 -187
c0 -35.333 3.33301 -65 10 -89s17.5 -43.5 32.5 -58.5s34.833 -25.833 59.5 -32.5s55.334 -10 92.001 -10s69.667 6.16699 99 18.5s54.333 26 75 41s36.5 28.833 47.5 41.5s16.5 19.667 16.5 21v238zM269.996 574.999h684v-129h-684v129z" />
    <glyph glyph-name="guillemotleft" unicode="&#xab;" horiz-adv-x="1717" 
d="M1101 586l461 -286v-277l-719 451v217l719 451v-277zM383 586l461 -286v-277l-719 451v217l719 451v-277z" />
    <glyph glyph-name="logicalnot" unicode="&#xac;" horiz-adv-x="1444" 
d="M79 810v210h1190v-733h-187v523h-1003z" />
    <glyph glyph-name="uni00AD" unicode="&#xad;" horiz-adv-x="1009" 
d="M157 549v201h643v-201h-643z" />
    <glyph glyph-name="registered" unicode="&#xae;" horiz-adv-x="1370" 
d="M58 1182c0 55.333 7.33105 108.997 21.998 160.997s35.334 100.667 62.001 146s59.167 87 97.5 125s81.333 70.5 129 97.5s99.334 48 155.001 63s114.5 22.5 176.5 22.5c59.333 0 116.333 -7.16699 171 -21.5s105.834 -34.5 153.501 -60.5s91 -57.667 130 -95
s72.333 -78.666 100 -123.999s49.167 -94.5 64.5 -147.5s23 -108.5 23 -166.5c0 -56.667 -7.33301 -111 -22 -163s-35.667 -100.833 -63 -146.5s-60.333 -87.167 -99 -124.5s-81.667 -69.5 -129 -96.5s-98.833 -47.833 -154.5 -62.5s-113.834 -22 -174.501 -22
c-90.667 0 -175 15.833 -253 47.5s-145.833 75.334 -203.5 131.001s-103 120.834 -136 195.501s-49.5 155 -49.5 241zM698.998 686.997c73.333 0 140.669 12.834 202.002 38.501s114.166 60.667 158.499 105s78.833 96.5 103.5 156.5s37 124.333 37 193
c0 70 -12.333 135.167 -37 195.5s-59.334 112.666 -104.001 156.999s-97.667 79.166 -159 104.499s-128.333 38 -201 38c-73.333 0 -140.5 -12.667 -201.5 -38s-113.667 -60.166 -158 -104.499s-78.833 -96.833 -103.5 -157.5s-37 -126 -37 -196s12.167 -135 36.5 -195
s58.5 -112 102.5 -156s96.667 -78.5 158 -103.5s129 -37.5 203 -37.5zM750.001 1278c23.333 3.33301 40.5029 9.66797 51.5029 19.001s16.5 23 16.5 41c0 13.333 -3.33301 24.5 -10 33.5s-17.5 16.333 -32.5 22s-34.833 9.66699 -59.5 12s-55 3.5 -91 3.5v-178
c11.333 0 22.666 -0.166992 33.999 -0.5s22.666 -0.5 33.999 -0.5c19.333 0 33.666 3.16699 42.999 9.5s14 19.166 14 38.499zM837.004 843l-176.999 288.998h-37v-270h-121v645h139c40.667 0 79.5 -2.5 116.5 -7.5s69.167 -14.167 96.5 -27.5s49.166 -31.5 65.499 -54.5
s24.5 -52.167 24.5 -87.5c0 -25.333 -2.83301 -47.666 -8.5 -66.999s-15 -36.333 -28 -51s-30.167 -26.667 -51.5 -36s-48 -16.666 -80 -21.999l173 -253z" />
    <glyph glyph-name="glyph114" unicode="&#xaf;" horiz-adv-x="1053" 
d="M273 199v202h564v-202h-564z" />
    <glyph glyph-name="degree" unicode="&#xb0;" horiz-adv-x="812" 
d="M189 974c0 -30 5.49902 -57.6699 16.499 -83.0029s26 -47.5 45 -66.5s41.667 -33.833 68 -44.5s54.833 -16 85.5 -16c30 0 58 5.33301 84 16s48.333 25.334 67 44.001s33.334 40.834 44.001 66.501s16 53.5 16 83.5s-5.33301 58 -16 84s-25.5 48.333 -44.5 67
s-41.333 33.334 -67 44.001s-53.5 16 -83.5 16c-30.667 0 -59.167 -5.33301 -85.5 -16s-49 -25.5 -68 -44.5s-34 -41.333 -45 -67s-16.5 -53.5 -16.5 -83.5zM402.999 1224c36 0 69.6689 -6.33203 101.002 -18.999s58.666 -30.167 81.999 -52.5s41.666 -49 54.999 -80
s20 -64.5 20 -100.5c0 -36.667 -7.16699 -70.167 -21.5 -100.5s-33.5 -56.333 -57.5 -78s-51.833 -38.5 -83.5 -50.5s-65.167 -18 -100.5 -18c-34.667 0 -67.5 6.5 -98.5 19.5s-58.167 31 -81.5 54s-41.833 49.667 -55.5 80s-20.5 63.166 -20.5 98.499s7.16699 68 21.5 98
s33.5 56 57.5 78s51.667 39.333 83 52s64.333 19 99 19z" />
    <glyph glyph-name="plusminus" unicode="&#xb1;" horiz-adv-x="1155" 
d="M225 -28v187h759v-187h-759zM713 685v-354h-219v354h-299v205h299v352h219v-352h301v-205h-301z" />
    <glyph glyph-name="uni00B2" unicode="&#xb2;" horiz-adv-x="1126" 
d="M253 805l271.001 239.999c45.333 40 82.5 74.333 111.5 103s51.667 54.334 68 77.001s27.666 44 33.999 64s9.5 41.667 9.5 65c0 46.667 -16 82.667 -48 108s-76.333 38 -133 38c-32 0 -65.167 -2.66699 -99.5 -8s-66.166 -11.333 -95.499 -18
c-34 -7.33301 -67.667 -16 -101 -26v138c24 10 52 18.667 84 26c27.333 6.66699 59.666 12.667 96.999 18s79 8 125 8c66.667 0 122 -9.33301 166 -28s79.167 -42 105.5 -70s44.833 -58.5 55.5 -91.5s16 -63.5 16 -91.5c0 -32 -4 -62.167 -12 -90.5s-21.333 -57 -40 -86
s-43.5 -59.5 -74.5 -91.5s-69.833 -67.667 -116.5 -107l-191 -162h406v-152h-638v137z" />
    <glyph glyph-name="uni00B3" unicode="&#xb3;" horiz-adv-x="1208" 
d="M351 745c16.667 -8 35.1631 -16.3359 55.4961 -25.0029s42.333 -16.5 66 -23.5s48.834 -12.833 75.501 -17.5s54.334 -7 83.001 -7c32 0 61.5 4.33301 88.5 13s50.333 20.834 70 36.501s34.834 34.667 45.501 57s16 47.166 16 74.499c0 62.667 -21 112.334 -63 149.001
s-108.333 60 -199 70v135c30.667 0 60.667 3.5 90 10.5s55.333 17.667 78 32s40.834 32.666 54.501 54.999s20.5 48.5 20.5 78.5c0 50 -18.167 88.833 -54.5 116.5s-92.833 41.5 -169.5 41.5c-19.333 0 -39.333 -1.5 -60 -4.5s-41.334 -7.16699 -62.001 -12.5
s-40.5 -11.5 -59.5 -18.5s-36.5 -14.167 -52.5 -21.5l-47 127c1.33301 0.666992 9.83301 4.5 25.5 11.5s36.5 14.5 62.5 22.5s56 15.333 90 22s70 10 108 10c24.667 0 51 -1.83301 79 -5.5s55.833 -9.66699 83.5 -18s54.167 -19.5 79.5 -33.5s47.666 -31.5 66.999 -52.5
s34.833 -45.833 46.5 -74.5s17.5 -61.667 17.5 -99c0 -46.667 -9.16699 -86 -27.5 -118s-40.5 -58 -66.5 -78s-53 -34.333 -81 -43s-51.333 -13 -70 -13c16.667 -3.33301 35.167 -8.16602 55.5 -14.499s40.666 -14.666 60.999 -24.999s40.166 -23.333 59.499 -39
s36.333 -34.334 51 -56.001s26.5 -46.667 35.5 -75s13.5 -60.833 13.5 -97.5c0 -51.333 -11.667 -95.666 -35 -132.999s-53.666 -68 -90.999 -92s-79.166 -41.667 -125.499 -53s-92.166 -17 -137.499 -17c-60.667 0 -118.167 6.33301 -172.5 19
s-106.166 32.334 -155.499 59.001z" />
    <glyph glyph-name="acute" unicode="&#xb4;" horiz-adv-x="1113" 
d="M456 173l184 622l277 -121l-352 -552z" />
    <glyph glyph-name="uni00B5" unicode="&#xb5;" horiz-adv-x="1320" 
d="M185 1169h174.002v-727c0 -212.667 84 -319 252 -319c46.667 0 89.667 6.33301 129 19s74.166 27.5 104.499 44.5s55.166 33.833 74.499 50.5s32.333 29 39 37v895h208v-1153h-146l-24 154c-114 -126.667 -246.333 -190 -397 -190c-30.667 0 -58.667 4.5 -84 13.5
s-48 20.333 -68 34s-37.333 28.167 -52 43.5s-26.667 29.333 -36 42v-404h-174v1460z" />
    <glyph glyph-name="paragraph" unicode="&#xb6;" horiz-adv-x="1400" 
d="M1227 0l-225.003 0.000976562v1453h-137v-1453h-228v818c-69.333 0 -136.166 6.16699 -200.499 18.5s-121.166 33.833 -170.499 64.5s-88.666 71.834 -117.999 123.501s-44 116.834 -44 195.501c0 55.333 7.83301 103.166 23.5 143.499s37.167 74.666 64.5 102.999
s59.666 51.166 96.999 68.499s77.333 31 120 41s87.334 16.667 134.001 20s93 5 139 5h545v-1601z" />
    <glyph glyph-name="periodcentered" unicode="&#xb7;" horiz-adv-x="579" 
d="M118 688c0 22.667 4.16699 44 12.5 64s19.833 37.5 34.5 52.5s32 27 52 36s41.667 13.5 65 13.5s45.166 -4.5 65.499 -13.5s37.833 -21 52.5 -36s26.167 -32.5 34.5 -52.5s12.5 -41.333 12.5 -64s-4.16699 -44 -12.5 -64s-19.833 -37.5 -34.5 -52.5
s-32.167 -27 -52.5 -36s-42.166 -13.5 -65.499 -13.5s-45 4.33301 -65 13s-37.333 20.5 -52 35.5s-26.167 32.667 -34.5 53s-12.5 41.833 -12.5 64.5z" />
    <glyph glyph-name="cedilla" unicode="&#xb8;" horiz-adv-x="627" 
d="M298 -456c22 -8 43.999 -15.335 65.999 -22.002c18.667 -5.33301 38.167 -10.166 58.5 -14.499s38.166 -6.5 53.499 -6.5c20 0 38.167 1.5 54.5 4.5s30.333 8.83301 42 17.5s20.667 21.167 27 37.5s9.5 37.5 9.5 63.5c0 52 -21 89 -63 111s-107.667 33 -197 33l10 282
h122l-6 -180c34.667 0 69.834 -4.33301 105.501 -13s68 -22.667 97 -42s52.5 -44.666 70.5 -75.999s27 -69.666 27 -114.999c0 -80.667 -23.167 -143.5 -69.5 -188.5s-114.833 -67.5 -205.5 -67.5c-25.333 0 -48.833 2 -70.5 6s-41.167 8.66699 -58.5 14
s-32.166 10.666 -44.499 15.999s-21.833 9 -28.5 11v129z" />
    <glyph glyph-name="uni00B9" unicode="&#xb9;" horiz-adv-x="740" 
d="M327 1304l-171 -72l-37 113l237 95l140 -26v-936h-169v826z" />
    <glyph glyph-name="ordmasculine" unicode="&#xba;" horiz-adv-x="1266" 
d="M638 670c-72 0 -134.5 12.5 -187.5 37.5s-97 59.167 -132 102.5s-61.167 94.333 -78.5 153s-26 121.667 -26 189c0 66 8.5 128.333 25.5 187s43 110.167 78 154.5s79 79.5 132 105.5s115.833 39 188.5 39s135.667 -13 189 -39s97.5 -61.167 132.5 -105.5
s61 -95.833 78 -154.5s25.5 -121 25.5 -187c0 -66.667 -8.5 -129.167 -25.5 -187.5s-43 -109.333 -78 -153s-79.167 -78.167 -132.5 -103.5s-116.333 -38 -189 -38zM638 797c48 0 88.833 8.83105 122.5 26.498s61.167 42.334 82.5 74.001s37 69.334 47 113.001
s15 91.5 15 143.5c0 50.667 -5 97.834 -15 141.501s-25.667 81.5 -47 113.5s-48.833 57.167 -82.5 75.5s-74.5 27.5 -122.5 27.5s-88.833 -9 -122.5 -27s-61.167 -43 -82.5 -75s-37 -69.833 -47 -113.5s-15 -91.167 -15 -142.5s5 -98.833 15 -142.5
s25.667 -81.334 47 -113.001s48.833 -56.5 82.5 -74.5s74.5 -27 122.5 -27zM300 574.998h684v-129h-684v129z" />
    <glyph glyph-name="guillemotright" unicode="&#xbb;" horiz-adv-x="1739" 
d="M171 1142l719 -451v-217l-719 -451v277l471 286l-471 279v277zM888 1142l720 -451v-217l-720 -451v277l472 286l-472 279v277z" />
    <glyph glyph-name="onequarter" unicode="&#xbc;" horiz-adv-x="1925" 
d="M1464 227v429l-290 -429h290zM1657 957v-729h147v-162h-147v-244l-198 -12v256h-494l-28 161l550 773zM1230 1476l177 -89l-888 -1504l-173 87zM305 1286l-149 -64l-58 144l266 105l157 -33v-943h-216v791z" />
    <glyph glyph-name="onehalf" unicode="&#xbd;" horiz-adv-x="2110" 
d="M1738 630c0 43.333 -13.501 75.834 -40.501 97.501s-66.167 32.5 -117.5 32.5c-20 0 -43 -2.33301 -69 -7s-52.167 -10.5 -78.5 -17.5s-51.5 -14.5 -75.5 -22.5s-44.333 -15.333 -61 -22l-37 170l72.5 28c25 9.33301 51.5 17.666 79.5 24.999s57.333 13.333 88 18
s63.667 7 99 7c57.333 0 108.5 -7.33301 153.5 -22s83 -34.834 114 -60.501s54.667 -56 71 -91s24.5 -73.167 24.5 -114.5c0 -32.667 -3.83301 -63.167 -11.5 -91.5s-20.334 -56.666 -38.001 -84.999s-41 -58 -70 -89s-65.167 -65.167 -108.5 -102.5l-155 -134h357v-186
h-673v158l137.5 119.5l137.5 119.5l82 72.5c24.667 22.333 45.834 44 63.501 65s31.334 42.333 41.001 64s14.5 44.5 14.5 68.5zM332.999 1286l-149 -64l-58 144l266 105l157 -33v-943h-216v791zM1245 1476l177 -89l-888 -1504l-173 87z" />
    <glyph glyph-name="threequarters" unicode="&#xbe;" horiz-adv-x="2174" 
d="M1711 227v434l-304 -434h304zM1895 957v-730h147v-161h-147v-244l-188 -12v256h-504l-28 138l549 796zM1462 1476l182 -89l-887 -1504l-173 87zM636 1316c0 40.667 -15.3271 71.6689 -45.9941 93.002s-75.334 32 -134.001 32c-16.667 0 -34.834 -1.5 -54.501 -4.5
s-39.834 -7.16699 -60.501 -12.5s-41.334 -11.5 -62.001 -18.5s-40 -14.5 -58 -22.5l-70 158c7.33301 4.66699 20.166 11.167 38.499 19.5s40.666 16.666 66.999 24.999s55.833 15.5 88.5 21.5s67 9 103 9c48.667 0 96.5 -4.66699 143.5 -14s89 -25.5 126 -48.5
s66.833 -53.5 89.5 -91.5s34 -85.667 34 -143c0 -36 -6.5 -68.167 -19.5 -96.5s-29.667 -52.5 -50 -72.5s-42.666 -36 -66.999 -48s-47.5 -19.667 -69.5 -23c26.667 -6 53.834 -16.167 81.501 -30.5s53 -33 76 -56s41.833 -50.5 56.5 -82.5s22 -69 22 -111
c0 -58 -11.833 -107.167 -35.5 -147.5s-55 -73.333 -94 -99s-84 -44.167 -135 -55.5s-103.833 -17 -158.5 -17c-22.667 0 -46.834 1.5 -72.501 4.5s-51.834 7.33301 -78.501 13s-53 12.667 -79 21s-50.333 17.833 -73 28.5l60 168c8.66699 -4.66699 21.5 -10.5 38.5 -17.5
s36.833 -13.833 59.5 -20.5s47.5 -12.5 74.5 -17.5s54.833 -7.5 83.5 -7.5c60.667 0 108.167 13.167 142.5 39.5s51.5 64.5 51.5 114.5c0 56.667 -22.833 100.834 -68.5 132.501s-107.5 50.167 -185.5 55.5v169c30 0 59 2.83301 87 8.5s52.833 14.667 74.5 27
s39.167 28.166 52.5 47.499s20.333 42.666 21 69.999z" />
    <glyph glyph-name="questiondown" unicode="&#xbf;" horiz-adv-x="1213" 
d="M905 1363c-17.333 -28.667 -43.167 -52.499 -77.5 -71.499s-74.5 -28.5 -120.5 -28.5c-28 18 -51.167 45.333 -69.5 82s-27.5 79 -27.5 127c16.667 28 42.5 51.667 77.5 71s74.833 29 119.5 29c28.667 -18.667 52.167 -46.834 70.5 -84.501s27.5 -79.167 27.5 -124.5z
M393.999 356.001c0 -38 6.66504 -69.168 19.998 -93.501s32 -43.5 56 -57.5s53 -23.833 87 -29.5s71.667 -8.5 113 -8.5s82.5 4 123.5 12s78 17 111 27s59.833 19.167 80.5 27.5s31 12.833 31 13.5l72 -203c-16.667 -8.66699 -39.167 -18.667 -67.5 -30
s-61.166 -22 -98.499 -32s-78.666 -18.5 -123.999 -25.5s-93.333 -10.5 -144 -10.5c-74 0 -143.167 7.33301 -207.5 22s-120.333 37.834 -168 69.501s-85.167 72.167 -112.5 121.5s-41 109 -41 179c0 53.333 10.167 105 30.5 155s51.5 97 93.5 141s95.333 84.333 160 121
s141 68.667 229 96v321h255v-451c-66 -22.667 -129.167 -45.5 -189.5 -68.5s-113.333 -48.5 -159 -76.5s-82.167 -59.667 -109.5 -95s-41 -77 -41 -125z" />
    <glyph glyph-name="Agrave" unicode="&#xc0;" horiz-adv-x="1503" 
d="M927 1602l530 -1602h-290l-118 371h-595l-118 -371h-290l526 1602h355zM492 510h519l-256 803zM309 2264l281 119l182 -624l-115 -52z" />
    <glyph glyph-name="Aacute" unicode="&#xc1;" horiz-adv-x="1503" 
d="M927 1602l530 -1602h-290l-118 371h-595l-118 -371h-290l526 1602h355zM492 510h519l-256 803zM628 1774l184 622l277 -121l-352 -552z" />
    <glyph glyph-name="Acircumflex" unicode="&#xc2;" horiz-adv-x="1503" 
d="M927 1602l530 -1602h-290l-118 371h-595l-118 -371h-290l526 1602h355zM492 510h519l-256 803zM841 2340l279 -570l-205 -39l-164 387l-164 -387l-204 39l279 570h179z" />
    <glyph glyph-name="Atilde" unicode="&#xc3;" horiz-adv-x="1503" 
d="M927 1602l530 -1602h-290l-118 371h-595l-118 -371h-290l526 1602h355zM492 510h519l-256 803zM956 1732c-24 0 -48.332 3.33008 -72.999 9.99707s-49 14.834 -73 24.501s-47.333 20.334 -70 32.001l-64.5 32c-20.333 9.66699 -38.833 17.834 -55.5 24.501s-31 10 -43 10
c-18 0 -32.667 -8.16699 -44 -24.5s-17 -47.166 -17 -92.499h-185c0 202.667 73 304 219 304c39.333 0 76.833 -6.83301 112.5 -20.5s69.5 -28.834 101.5 -45.501l89 -45.5c27.333 -13.667 52.333 -20.5 75 -20.5c15.333 0 27 7.5 35 22.5s12 42.5 12 82.5h191
c0 -93.333 -18.333 -165.5 -55 -216.5s-88.334 -76.5 -155.001 -76.5z" />
    <glyph glyph-name="Adieresis" unicode="&#xc4;" horiz-adv-x="1503" 
d="M927 1602l530 -1602h-290l-118 371h-595l-118 -371h-290l526 1602h355zM492 510h519l-256 803zM284 1874c0 21.333 3.83398 41.5 11.501 60.5s18.5 35.667 32.5 50s30.5 25.666 49.5 33.999s39.5 12.5 61.5 12.5s42.667 -4.16699 62 -12.5s36 -19.666 50 -33.999
s25 -31 33 -50s12 -39.167 12 -60.5c0 -22 -4 -42.5 -12 -61.5s-19 -35.667 -33 -50s-30.667 -25.666 -50 -33.999s-40 -12.5 -62 -12.5c-22.667 0 -43.5 4.16699 -62.5 12.5s-35.333 19.666 -49 33.999s-24.334 31 -32.001 50s-11.5 39.5 -11.5 61.5zM873.001 1874
c0 21.333 4.00098 41.5 12.001 60.5s19 35.667 33 50s30.5 25.666 49.5 33.999s39.5 12.5 61.5 12.5s42.667 -4.16699 62 -12.5s36 -19.666 50 -33.999s25 -31 33 -50s12 -39.167 12 -60.5c0 -22 -4 -42.5 -12 -61.5s-19 -35.667 -33 -50s-30.667 -25.666 -50 -33.999
s-40 -12.5 -62 -12.5c-23.333 0 -44.5 4.16699 -63.5 12.5s-35.333 19.666 -49 33.999s-24.334 31 -32.001 50s-11.5 39.5 -11.5 61.5z" />
    <glyph glyph-name="Aring" unicode="&#xc5;" horiz-adv-x="1503" 
d="M927 1602l530 -1602h-290l-118 371h-595l-118 -371h-290l526 1602h355zM492 510h519l-256 803zM592 2015c0 -23.333 4.16699 -44.999 12.5 -64.999s20 -37.333 35 -52s32.333 -26.334 52 -35.001s41.167 -13 64.5 -13s45 4.33301 65 13s37.5 20.334 52.5 35.001
s26.833 32 35.5 52s13 41.667 13 65s-4.33301 45.166 -13 65.499s-20.5 38 -35.5 53s-32.667 26.667 -53 35s-41.833 12.5 -64.5 12.5c-23.333 0 -45 -4.33301 -65 -13s-37.333 -20.5 -52 -35.5s-26.167 -32.667 -34.5 -53s-12.5 -41.833 -12.5 -64.5zM757 2311
c42.667 0 82.833 -7.49902 120.5 -22.499s70.5 -35.833 98.5 -62.5s50 -58.167 66 -94.5s24 -75.833 24 -118.5s-8.5 -81.834 -25.5 -117.501s-39.833 -66.5 -68.5 -92.5s-62 -46.167 -100 -60.5s-78 -21.5 -120 -21.5s-81.667 7.66699 -119 23s-69.666 36.5 -96.999 63.5
s-49 58.5 -65 94.5s-24 74.667 -24 116c0 42 8.33301 80.833 25 116.5s39.167 66.667 67.5 93s61.166 46.833 98.499 61.5s77 22 119 22z" />
    <glyph glyph-name="AE" unicode="&#xc6;" horiz-adv-x="1982" 
d="M945 1421l-396 -907h396v907zM1882 1412h-669v-483h601v-165h-600v-575h687v-189h-955v365h-452l-158 -365h-290l732 1602h1104v-190z" />
    <glyph glyph-name="Ccedilla" unicode="&#xc7;" horiz-adv-x="1311" 
d="M394 786c0 -98 8.49902 -184.83 25.499 -260.497s42.667 -139.334 77 -191.001s77.833 -90.834 130.5 -117.501s115 -40 187 -40c42 0 82.167 4 120.5 12s73.5 17.667 105.5 29s60.167 23.5 84.5 36.5s43.166 24.167 56.499 33.5l79 -203
c-9.33301 -8 -27.833 -18.833 -55.5 -32.5s-62 -27 -103 -40s-87.667 -24.167 -140 -33.5s-107.5 -14 -165.5 -14c-113.333 0 -213 18.667 -299 56s-158.167 91.333 -216.5 162s-102.333 157.167 -132 259.5s-44.5 218.5 -44.5 348.5c0 75.333 5.83301 148.333 17.5 219
s29.834 137.167 54.501 199.5s55.834 119.333 93.501 171s82.167 96 133.5 133s110 65.833 176 86.5s139.667 31 221 31c49.333 0 97.333 -3.16699 144 -9.5s89.667 -14.333 129 -24s74 -20.334 104 -32.001s53 -23.167 69 -34.5l-74 -207
c-16 10.667 -35.833 21.5 -59.5 32.5s-50.5 21 -80.5 30s-63.167 16.5 -99.5 22.5s-74.833 9 -115.5 9c-74 0 -137.5 -14.167 -190.5 -42.5s-96.833 -69.5 -131.5 -123.5s-60.167 -120.167 -76.5 -198.5s-24.5 -167.5 -24.5 -267.5zM646.999 -474.997
c22 -8 43.999 -15.335 65.999 -22.002c18.667 -5.33301 38.167 -10.166 58.5 -14.499s38.166 -6.5 53.499 -6.5c20 0 38.167 1.5 54.5 4.5s30.333 8.83301 42 17.5s20.667 21.167 27 37.5s9.5 37.5 9.5 63.5c0 52 -21 89 -63 111s-107.667 33 -197 33l10 282h122l-6 -180
c34.667 0 69.834 -4.33301 105.501 -13s68 -22.667 97 -42s52.5 -44.666 70.5 -75.999s27 -69.666 27 -114.999c0 -80.667 -23.167 -143.5 -69.5 -188.5s-114.833 -67.5 -205.5 -67.5c-25.333 0 -48.833 2 -70.5 6s-41.167 8.66699 -58.5 14s-32.166 10.666 -44.499 15.999
s-21.833 9 -28.5 11v129z" />
    <glyph glyph-name="Egrave" unicode="&#xc8;" horiz-adv-x="1266" 
d="M155 0v1602h1036v-192h-749v-486h654v-174h-654v-561h761v-189h-1048zM239 2266l281 119l182 -624l-115 -52z" />
    <glyph glyph-name="Eacute" unicode="&#xc9;" horiz-adv-x="1266" 
d="M155 0v1602h1036v-192h-749v-486h654v-174h-654v-561h761v-189h-1048zM507 1776l184 622l277 -121l-352 -552z" />
    <glyph glyph-name="Ecircumflex" unicode="&#xca;" horiz-adv-x="1266" 
d="M155 0v1602h1036v-192h-749v-486h654v-174h-654v-561h761v-189h-1048zM770 2340l279 -570l-205 -39l-164 387l-164 -387l-204 39l279 570h179z" />
    <glyph glyph-name="Edieresis" unicode="&#xcb;" horiz-adv-x="1266" 
d="M155 0v1602h1036v-192h-749v-486h654v-174h-654v-561h761v-189h-1048zM214 1875c0 21.333 3.83398 41.5 11.501 60.5s18.5 35.667 32.5 50s30.5 25.666 49.5 33.999s39.5 12.5 61.5 12.5s42.667 -4.16699 62 -12.5s36 -19.666 50 -33.999s25 -31 33 -50
s12 -39.167 12 -60.5c0 -22 -4 -42.5 -12 -61.5s-19 -35.667 -33 -50s-30.667 -25.666 -50 -33.999s-40 -12.5 -62 -12.5c-22.667 0 -43.5 4.16699 -62.5 12.5s-35.333 19.666 -49 33.999s-24.334 31 -32.001 50s-11.5 39.5 -11.5 61.5zM803.001 1875
c0 21.333 4.00098 41.5 12.001 60.5s19 35.667 33 50s30.5 25.666 49.5 33.999s39.5 12.5 61.5 12.5s42.667 -4.16699 62 -12.5s36 -19.666 50 -33.999s25 -31 33 -50s12 -39.167 12 -60.5c0 -22 -4 -42.5 -12 -61.5s-19 -35.667 -33 -50s-30.667 -25.666 -50 -33.999
s-40 -12.5 -62 -12.5c-23.333 0 -44.5 4.16699 -63.5 12.5s-35.333 19.666 -49 33.999s-24.334 31 -32.001 50s-11.5 39.5 -11.5 61.5z" />
    <glyph glyph-name="Igrave" unicode="&#xcc;" horiz-adv-x="835" 
d="M278 143v1312h-190v147h663v-147h-192v-1312h192v-143h-663v143h190zM-26 2270l281 119l182 -624l-115 -52z" />
    <glyph glyph-name="Iacute" unicode="&#xcd;" horiz-adv-x="835" 
d="M278 143v1312h-190v147h663v-147h-192v-1312h192v-143h-663v143h190zM243 1780l184 622l277 -121l-352 -552z" />
    <glyph glyph-name="Icircumflex" unicode="&#xce;" horiz-adv-x="835" 
d="M278 143v1312h-190v147h663v-147h-192v-1312h192v-143h-663v143h190zM510 2340l279 -570l-205 -39l-164 387l-164 -387l-204 39l279 570h179z" />
    <glyph glyph-name="Idieresis" unicode="&#xcf;" horiz-adv-x="835" 
d="M278 143v1312h-190v147h663v-147h-192v-1312h192v-143h-663v143h190zM-50 1880c0 21.333 3.83398 41.5 11.501 60.5s18.5 35.667 32.5 50s30.5 25.666 49.5 33.999s39.5 12.5 61.5 12.5s42.667 -4.16699 62 -12.5s36 -19.666 50 -33.999s25 -31 33 -50
s12 -39.167 12 -60.5c0 -22 -4 -42.5 -12 -61.5s-19 -35.667 -33 -50s-30.667 -25.666 -50 -33.999s-40 -12.5 -62 -12.5c-22.667 0 -43.5 4.16699 -62.5 12.5s-35.333 19.666 -49 33.999s-24.334 31 -32.001 50s-11.5 39.5 -11.5 61.5zM539.001 1880
c0 21.333 4.00098 41.5 12.001 60.5s19 35.667 33 50s30.5 25.666 49.5 33.999s39.5 12.5 61.5 12.5s42.667 -4.16699 62 -12.5s36 -19.666 50 -33.999s25 -31 33 -50s12 -39.167 12 -60.5c0 -22 -4 -42.5 -12 -61.5s-19 -35.667 -33 -50s-30.667 -25.666 -50 -33.999
s-40 -12.5 -62 -12.5c-23.333 0 -44.5 4.16699 -63.5 12.5s-35.333 19.666 -49 33.999s-24.334 31 -32.001 50s-11.5 39.5 -11.5 61.5z" />
    <glyph glyph-name="Eth" unicode="&#xd0;" horiz-adv-x="1544" 
d="M1148 798c0 84.667 -5.33008 162.833 -15.9971 234.5s-30.834 134.5 -60.501 188.5s-70.5 97.5 -122.5 130.5s-119.333 52.833 -202 59.5l-65 4c-22 1.33301 -44.667 2 -68 2h-167v-498h252v-185h-252v-545h167c46.667 0 90.667 2 132 6
c84 6.66699 152.167 26.167 204.5 58.5s93.166 75 122.499 128s49.166 114.833 59.499 185.5s15.5 147.667 15.5 231zM1439 795.999c0 -118.667 -14.333 -226.833 -43 -324.5s-73.167 -181.5 -133.5 -251.5s-137.5 -124.167 -231.5 -162.5s-206.333 -57.5 -337 -57.5h-534
v734h-163v185h163v683h534c128 0 238.833 -18 332.5 -54s171 -88.333 232 -157s106.333 -153 136 -253s44.5 -214 44.5 -342z" />
    <glyph glyph-name="Ntilde" unicode="&#xd1;" horiz-adv-x="1642" 
d="M1165 0l-744 1255v-1255h-266v1602h334l732 -1242v1242h265v-1602h-321zM1012 1734c-24 0 -48.332 3.33008 -72.999 9.99707s-49 14.834 -73 24.501s-47.333 20.334 -70 32.001l-64.5 32c-20.333 9.66699 -38.833 17.834 -55.5 24.501s-31 10 -43 10
c-18 0 -32.667 -8.16699 -44 -24.5s-17 -47.166 -17 -92.499h-185c0 202.667 73 304 219 304c39.333 0 76.833 -6.83301 112.5 -20.5s69.5 -28.834 101.5 -45.501l89 -45.5c27.333 -13.667 52.333 -20.5 75 -20.5c15.333 0 27 7.5 35 22.5s12 42.5 12 82.5h191
c0 -93.333 -18.333 -165.5 -55 -216.5s-88.334 -76.5 -155.001 -76.5z" />
    <glyph glyph-name="Ograve" unicode="&#xd2;" horiz-adv-x="1595" 
d="M1492 809c0 -119.333 -12.001 -230.497 -36.001 -333.497s-63.167 -192.333 -117.5 -268s-125.833 -135.167 -214.5 -178.5s-197.667 -65 -327 -65c-86 0 -163 10 -231 30s-127.667 48.333 -179 85s-95 81 -131 133s-65.167 109.667 -87.5 173
s-38.666 131.833 -48.999 205.5s-15.5 150.5 -15.5 230.5c0 126 14.667 239.167 44 339.5s73 185.166 131 254.499s130.167 122.5 216.5 159.5s186.833 55.5 301.5 55.5c115.333 0 216.5 -18.5 303.5 -55.5s159.5 -90.833 217.5 -161.5s101.5 -156.834 130.5 -258.501
s43.5 -216.834 43.5 -345.501zM393.999 794.003c0 -95.333 7.5 -180.997 22.5 -256.997s38.667 -140.667 71 -194s74 -94.166 125 -122.499s112.5 -42.5 184.5 -42.5c70 0 130.5 13.5 181.5 40.5s93 66.667 126 119s57.333 116.666 73 192.999s23.5 164.166 23.5 263.499
c0 100 -7.66699 188.667 -23 266s-39.333 142.666 -72 195.999s-74.167 93.833 -124.5 121.5s-110.5 41.5 -180.5 41.5c-72 0 -133.667 -13.667 -185 -41s-93.5 -67.5 -126.5 -120.5s-57.167 -118.333 -72.5 -196s-23 -166.834 -23 -267.501zM351.999 2277.01l281 119
l182 -624l-115 -52z" />
    <glyph glyph-name="Oacute" unicode="&#xd3;" horiz-adv-x="1595" 
d="M1492 809c0 -119.333 -12.001 -230.497 -36.001 -333.497s-63.167 -192.333 -117.5 -268s-125.833 -135.167 -214.5 -178.5s-197.667 -65 -327 -65c-86 0 -163 10 -231 30s-127.667 48.333 -179 85s-95 81 -131 133s-65.167 109.667 -87.5 173
s-38.666 131.833 -48.999 205.5s-15.5 150.5 -15.5 230.5c0 126 14.667 239.167 44 339.5s73 185.166 131 254.499s130.167 122.5 216.5 159.5s186.833 55.5 301.5 55.5c115.333 0 216.5 -18.5 303.5 -55.5s159.5 -90.833 217.5 -161.5s101.5 -156.834 130.5 -258.501
s43.5 -216.834 43.5 -345.501zM393.999 794.003c0 -95.333 7.5 -180.997 22.5 -256.997s38.667 -140.667 71 -194s74 -94.166 125 -122.499s112.5 -42.5 184.5 -42.5c70 0 130.5 13.5 181.5 40.5s93 66.667 126 119s57.333 116.666 73 192.999s23.5 164.166 23.5 263.499
c0 100 -7.66699 188.667 -23 266s-39.333 142.666 -72 195.999s-74.167 93.833 -124.5 121.5s-110.5 41.5 -180.5 41.5c-72 0 -133.667 -13.667 -185 -41s-93.5 -67.5 -126.5 -120.5s-57.167 -118.333 -72.5 -196s-23 -166.834 -23 -267.501zM620.999 1787.01l184 622
l277 -121l-352 -552z" />
    <glyph glyph-name="Ocircumflex" unicode="&#xd4;" horiz-adv-x="1595" 
d="M1492 809c0 -119.333 -12.001 -230.497 -36.001 -333.497s-63.167 -192.333 -117.5 -268s-125.833 -135.167 -214.5 -178.5s-197.667 -65 -327 -65c-86 0 -163 10 -231 30s-127.667 48.333 -179 85s-95 81 -131 133s-65.167 109.667 -87.5 173
s-38.666 131.833 -48.999 205.5s-15.5 150.5 -15.5 230.5c0 126 14.667 239.167 44 339.5s73 185.166 131 254.499s130.167 122.5 216.5 159.5s186.833 55.5 301.5 55.5c115.333 0 216.5 -18.5 303.5 -55.5s159.5 -90.833 217.5 -161.5s101.5 -156.834 130.5 -258.501
s43.5 -216.834 43.5 -345.501zM393.999 794.003c0 -95.333 7.5 -180.997 22.5 -256.997s38.667 -140.667 71 -194s74 -94.166 125 -122.499s112.5 -42.5 184.5 -42.5c70 0 130.5 13.5 181.5 40.5s93 66.667 126 119s57.333 116.666 73 192.999s23.5 164.166 23.5 263.499
c0 100 -7.66699 188.667 -23 266s-39.333 142.666 -72 195.999s-74.167 93.833 -124.5 121.5s-110.5 41.5 -180.5 41.5c-72 0 -133.667 -13.667 -185 -41s-93.5 -67.5 -126.5 -120.5s-57.167 -118.333 -72.5 -196s-23 -166.834 -23 -267.501zM887.999 2340.01l279 -570
l-205 -39l-164 387l-164 -387l-204 39l279 570h179z" />
    <glyph glyph-name="Otilde" unicode="&#xd5;" horiz-adv-x="1595" 
d="M1492 809c0 -119.333 -12.001 -230.497 -36.001 -333.497s-63.167 -192.333 -117.5 -268s-125.833 -135.167 -214.5 -178.5s-197.667 -65 -327 -65c-86 0 -163 10 -231 30s-127.667 48.333 -179 85s-95 81 -131 133s-65.167 109.667 -87.5 173
s-38.666 131.833 -48.999 205.5s-15.5 150.5 -15.5 230.5c0 126 14.667 239.167 44 339.5s73 185.166 131 254.499s130.167 122.5 216.5 159.5s186.833 55.5 301.5 55.5c115.333 0 216.5 -18.5 303.5 -55.5s159.5 -90.833 217.5 -161.5s101.5 -156.834 130.5 -258.501
s43.5 -216.834 43.5 -345.501zM393.999 794.003c0 -95.333 7.5 -180.997 22.5 -256.997s38.667 -140.667 71 -194s74 -94.166 125 -122.499s112.5 -42.5 184.5 -42.5c70 0 130.5 13.5 181.5 40.5s93 66.667 126 119s57.333 116.666 73 192.999s23.5 164.166 23.5 263.499
c0 100 -7.66699 188.667 -23 266s-39.333 142.666 -72 195.999s-74.167 93.833 -124.5 121.5s-110.5 41.5 -180.5 41.5c-72 0 -133.667 -13.667 -185 -41s-93.5 -67.5 -126.5 -120.5s-57.167 -118.333 -72.5 -196s-23 -166.834 -23 -267.501zM996.999 1745.01
c-24 0 -48.332 3.33008 -72.999 9.99707s-49 14.834 -73 24.501s-47.333 20.334 -70 32.001l-64.5 32c-20.333 9.66699 -38.833 17.834 -55.5 24.501s-31 10 -43 10c-18 0 -32.667 -8.16699 -44 -24.5s-17 -47.166 -17 -92.499h-185c0 202.667 73 304 219 304
c39.333 0 76.833 -6.83301 112.5 -20.5s69.5 -28.834 101.5 -45.501l89 -45.5c27.333 -13.667 52.333 -20.5 75 -20.5c15.333 0 27 7.5 35 22.5s12 42.5 12 82.5h191c0 -93.333 -18.333 -165.5 -55 -216.5s-88.334 -76.5 -155.001 -76.5z" />
    <glyph glyph-name="Odieresis" unicode="&#xd6;" horiz-adv-x="1595" 
d="M1492 809c0 -119.333 -12.001 -230.497 -36.001 -333.497s-63.167 -192.333 -117.5 -268s-125.833 -135.167 -214.5 -178.5s-197.667 -65 -327 -65c-86 0 -163 10 -231 30s-127.667 48.333 -179 85s-95 81 -131 133s-65.167 109.667 -87.5 173
s-38.666 131.833 -48.999 205.5s-15.5 150.5 -15.5 230.5c0 126 14.667 239.167 44 339.5s73 185.166 131 254.499s130.167 122.5 216.5 159.5s186.833 55.5 301.5 55.5c115.333 0 216.5 -18.5 303.5 -55.5s159.5 -90.833 217.5 -161.5s101.5 -156.834 130.5 -258.501
s43.5 -216.834 43.5 -345.501zM393.999 794.003c0 -95.333 7.5 -180.997 22.5 -256.997s38.667 -140.667 71 -194s74 -94.166 125 -122.499s112.5 -42.5 184.5 -42.5c70 0 130.5 13.5 181.5 40.5s93 66.667 126 119s57.333 116.666 73 192.999s23.5 164.166 23.5 263.499
c0 100 -7.66699 188.667 -23 266s-39.333 142.666 -72 195.999s-74.167 93.833 -124.5 121.5s-110.5 41.5 -180.5 41.5c-72 0 -133.667 -13.667 -185 -41s-93.5 -67.5 -126.5 -120.5s-57.167 -118.333 -72.5 -196s-23 -166.834 -23 -267.501zM326.999 1886.01
c0 21.333 3.83398 41.5 11.501 60.5s18.5 35.667 32.5 50s30.5 25.666 49.5 33.999s39.5 12.5 61.5 12.5s42.667 -4.16699 62 -12.5s36 -19.666 50 -33.999s25 -31 33 -50s12 -39.167 12 -60.5c0 -22 -4 -42.5 -12 -61.5s-19 -35.667 -33 -50s-30.667 -25.666 -50 -33.999
s-40 -12.5 -62 -12.5c-22.667 0 -43.5 4.16699 -62.5 12.5s-35.333 19.666 -49 33.999s-24.334 31 -32.001 50s-11.5 39.5 -11.5 61.5zM916 1886.01c0 21.333 4.00098 41.5 12.001 60.5s19 35.667 33 50s30.5 25.666 49.5 33.999s39.5 12.5 61.5 12.5
s42.667 -4.16699 62 -12.5s36 -19.666 50 -33.999s25 -31 33 -50s12 -39.167 12 -60.5c0 -22 -4 -42.5 -12 -61.5s-19 -35.667 -33 -50s-30.667 -25.666 -50 -33.999s-40 -12.5 -62 -12.5c-23.333 0 -44.5 4.16699 -63.5 12.5s-35.333 19.666 -49 33.999
s-24.334 31 -32.001 50s-11.5 39.5 -11.5 61.5z" />
    <glyph glyph-name="multiply" unicode="&#xd7;" horiz-adv-x="1361" 
d="M391 1003l307 -299l308 299l145 -153l-301 -292l301 -293l-145 -154l-308 300l-307 -300l-145 154l301 293l-301 292z" />
    <glyph glyph-name="Oslash" unicode="&#xd8;" horiz-adv-x="1596" 
d="M443 45c-52.667 28.667 -100 65.1699 -142 109.503s-77.5 97.333 -106.5 159s-51.333 132.667 -67 213s-23.5 170.833 -23.5 271.5c0 104 8.5 197 25.5 279s41 153.833 72 215.5s67.667 114 110 157s89 78 140 105s105.167 46.5 162.5 58.5s116 18 176 18
c58.667 0 113.5 -4.66699 164.5 -14s99.167 -23.666 144.5 -42.999l76 176l118 -44l-83 -193c48.667 -34 90.667 -75.333 126 -124s64.5 -103.334 87.5 -164.001s40 -126.834 51 -198.501s16.5 -147.834 16.5 -228.501c0 -122.667 -13 -235 -39 -337
s-67 -189.833 -123 -263.5s-127.833 -130.834 -215.5 -171.501s-193.167 -61 -316.5 -61c-40 0 -79.5 2.16699 -118.5 6.5s-77.5 12.833 -115.5 25.5l-70 -163l-120 46zM650 203.003l52.001 -14.5c25.333 -7 57.333 -10.5 96 -10.5c81.333 0 148.166 16.833 200.499 50.5
s93.5 79 123.5 136s50.667 122.833 62 197.5s17 153.334 17 236.001c0 103.333 -7.5 192.666 -22.5 267.999s-39.5 140.333 -73.5 195zM448.001 569.003c0.666992 -20 1.83105 -43 3.49805 -69s5.66699 -52.5 12 -79.5s15.5 -53.333 27.5 -79s28.333 -48.167 49 -67.5
l469 1088c-29.333 20 -61.5 34.333 -96.5 43s-72.167 13 -111.5 13c-81.333 0 -148.166 -16 -200.499 -48s-93.666 -76 -123.999 -132s-51.5 -121.667 -63.5 -197s-18 -156.333 -18 -243c0 -46.667 3.66699 -90 11 -130s21.333 -73 42 -99z" />
    <glyph glyph-name="Ugrave" unicode="&#xd9;" horiz-adv-x="1580" 
d="M788 178c78 0 140.669 11.5 188.002 34.5s83.833 57.5 109.5 103.5s42.667 103.167 51 171.5s12.5 147.833 12.5 238.5v876h287v-872c0 -124 -11.833 -233.5 -35.5 -328.5s-61.334 -174.833 -113.001 -239.5s-118.334 -113.667 -200.001 -147s-180.167 -50 -295.5 -50
c-119.333 0 -220.333 16.667 -303 50s-150 82.333 -202 147s-89.667 144.5 -113 239.5s-35 204.5 -35 328.5v872h287v-876c0 -90.667 5 -170.167 15 -238.5s28.333 -125.5 55 -171.5s63.5 -80.5 110.5 -103.5s107.5 -34.5 181.5 -34.5zM344.002 2265l281 119l182 -624
l-115 -52z" />
    <glyph glyph-name="Uacute" unicode="&#xda;" horiz-adv-x="1580" 
d="M788 178c78 0 140.669 11.5 188.002 34.5s83.833 57.5 109.5 103.5s42.667 103.167 51 171.5s12.5 147.833 12.5 238.5v876h287v-872c0 -124 -11.833 -233.5 -35.5 -328.5s-61.334 -174.833 -113.001 -239.5s-118.334 -113.667 -200.001 -147s-180.167 -50 -295.5 -50
c-119.333 0 -220.333 16.667 -303 50s-150 82.333 -202 147s-89.667 144.5 -113 239.5s-35 204.5 -35 328.5v872h287v-876c0 -90.667 5 -170.167 15 -238.5s28.333 -125.5 55 -171.5s63.5 -80.5 110.5 -103.5s107.5 -34.5 181.5 -34.5zM613.002 1775l184 622l277 -121
l-352 -552z" />
    <glyph glyph-name="Ucircumflex" unicode="&#xdb;" horiz-adv-x="1580" 
d="M788 178c78 0 140.669 11.5 188.002 34.5s83.833 57.5 109.5 103.5s42.667 103.167 51 171.5s12.5 147.833 12.5 238.5v876h287v-872c0 -124 -11.833 -233.5 -35.5 -328.5s-61.334 -174.833 -113.001 -239.5s-118.334 -113.667 -200.001 -147s-180.167 -50 -295.5 -50
c-119.333 0 -220.333 16.667 -303 50s-150 82.333 -202 147s-89.667 144.5 -113 239.5s-35 204.5 -35 328.5v872h287v-876c0 -90.667 5 -170.167 15 -238.5s28.333 -125.5 55 -171.5s63.5 -80.5 110.5 -103.5s107.5 -34.5 181.5 -34.5zM877.002 2340l279 -570l-205 -39
l-164 387l-164 -387l-204 39l279 570h179z" />
    <glyph glyph-name="Udieresis" unicode="&#xdc;" horiz-adv-x="1580" 
d="M788 178c78 0 140.669 11.5 188.002 34.5s83.833 57.5 109.5 103.5s42.667 103.167 51 171.5s12.5 147.833 12.5 238.5v876h287v-872c0 -124 -11.833 -233.5 -35.5 -328.5s-61.334 -174.833 -113.001 -239.5s-118.334 -113.667 -200.001 -147s-180.167 -50 -295.5 -50
c-119.333 0 -220.333 16.667 -303 50s-150 82.333 -202 147s-89.667 144.5 -113 239.5s-35 204.5 -35 328.5v872h287v-876c0 -90.667 5 -170.167 15 -238.5s28.333 -125.5 55 -171.5s63.5 -80.5 110.5 -103.5s107.5 -34.5 181.5 -34.5zM320.002 1874
c0 21.333 3.83398 41.5 11.501 60.5s18.5 35.667 32.5 50s30.5 25.666 49.5 33.999s39.5 12.5 61.5 12.5s42.667 -4.16699 62 -12.5s36 -19.666 50 -33.999s25 -31 33 -50s12 -39.167 12 -60.5c0 -22 -4 -42.5 -12 -61.5s-19 -35.667 -33 -50s-30.667 -25.666 -50 -33.999
s-40 -12.5 -62 -12.5c-22.667 0 -43.5 4.16699 -62.5 12.5s-35.333 19.666 -49 33.999s-24.334 31 -32.001 50s-11.5 39.5 -11.5 61.5zM909.003 1874c0 21.333 4.00098 41.5 12.001 60.5s19 35.667 33 50s30.5 25.666 49.5 33.999s39.5 12.5 61.5 12.5
s42.667 -4.16699 62 -12.5s36 -19.666 50 -33.999s25 -31 33 -50s12 -39.167 12 -60.5c0 -22 -4 -42.5 -12 -61.5s-19 -35.667 -33 -50s-30.667 -25.666 -50 -33.999s-40 -12.5 -62 -12.5c-23.333 0 -44.5 4.16699 -63.5 12.5s-35.333 19.666 -49 33.999
s-24.334 31 -32.001 50s-11.5 39.5 -11.5 61.5z" />
    <glyph glyph-name="Yacute" unicode="&#xdd;" horiz-adv-x="1295" 
d="M1014 1602h288l-519 -1093v-509h-275v509l-516 1093h288l368 -798zM470 1776l184 622l277 -121l-352 -552z" />
    <glyph glyph-name="Thorn" unicode="&#xde;" horiz-adv-x="1417" 
d="M999 876c0 58.667 -4.83301 109.831 -14.5 153.498s-25.834 80 -48.501 109s-52.667 50.5 -90 64.5s-83.666 21 -138.999 21c-52 0 -100.667 -4.16699 -146 -12.5l-128 -23.5v-609c54.667 -11.333 105.167 -20.166 151.5 -26.499s89.5 -9.5 129.5 -9.5
c17.333 0 34.333 0.666992 51 2s33 3.33301 49 6c42 6.66699 75.333 21 100 43s43.167 48.333 55.5 79s20.333 63.834 24 99.501s5.5 70.167 5.5 103.5zM654 336.997c-90 0 -163.666 21.6689 -220.999 65.002v-515h-278v1715h268v-262c24 11.333 49.833 21.666 77.5 30.999
s56 17.166 85 23.499s58.333 11.333 88 15s58.5 5.5 86.5 5.5h21.5c7 0 14.167 -0.333008 21.5 -1c86.667 -6.66699 159.667 -24.167 219 -52.5s107.166 -65.5 143.499 -111.5s62.333 -100 78 -162s23.5 -130.333 23.5 -205c0 -85.333 -12 -161.833 -36 -229.5
s-61 -125 -111 -172s-113.667 -82.833 -191 -107.5s-169 -37 -275 -37z" />
    <glyph glyph-name="germandbls" unicode="&#xdf;" horiz-adv-x="1512" 
d="M592 742c0 7.33301 -0.166992 15.165 -0.5 23.498s-0.5 19 -0.5 32v48.5v73c74.667 0 138.167 2.83301 190.5 8.5s95 17.667 128 36s57 45 72 80s22.5 81.833 22.5 140.5c0 38 -5.33301 70.833 -16 98.5s-27.667 50.834 -51 69.501s-53.666 32.5 -90.999 41.5
s-82.333 13.5 -135 13.5c-54.667 0 -99.334 -8.16699 -134.001 -24.5s-62 -41.333 -82 -75s-33.667 -76.334 -41 -128.001s-11 -112.834 -11 -183.501v-996h-288v1000c0 94.667 9.83301 179.334 29.5 254.001s51.5 137.834 95.5 189.501s101.333 91 172 118
s157 40.5 259 40.5c104 0 191 -11.667 261 -35s126 -54.333 168 -93s72 -83.167 90 -133.5s27 -102.5 27 -156.5c0 -44 -6 -85.333 -18 -124s-30.167 -73 -54.5 -103s-55.333 -55 -93 -75s-82.167 -33 -133.5 -39c72.667 -7.33301 138.167 -22.166 196.5 -44.499
s108 -52.5 149 -90.5s72.333 -84 94 -138s32.5 -116.667 32.5 -188c0 -68.667 -11.167 -130 -33.5 -184s-53.166 -101.333 -92.499 -142s-85.666 -75 -138.999 -103s-111 -50.833 -173 -68.5s-127 -30.5 -195 -38.5s-136 -12 -204 -12v223c80 4.66699 154 12.667 222 24
s126.833 29.5 176.5 54.5s88.5 58.833 116.5 101.5s42 98 42 166c0 53.333 -10.167 101 -30.5 143s-52.833 77.5 -97.5 106.5s-102.334 51.167 -173.001 66.5s-156.334 23 -257.001 23z" />
    <glyph glyph-name="agrave" unicode="&#xe0;" 
d="M615 1022c-66 0 -131.332 -9.33398 -195.999 -28.001s-124.667 -45 -180 -79l-77 174c34.667 20 69.167 37.667 103.5 53s70 28 107 38s75.833 17.667 116.5 23s84.667 8 132 8c96 0 175 -11.167 237 -33.5s111.167 -56.333 147.5 -102s61.5 -103.167 75.5 -172.5
s21 -150.666 21 -243.999v-659h-209l-39 166c-44 -66.667 -95.333 -114.834 -154 -144.501s-127.667 -44.5 -207 -44.5c-62.667 0 -119 8 -169 24s-92.5 40 -127.5 72s-61.833 71.667 -80.5 119s-28 102.333 -28 165c0 63.333 12 118.5 36 165.5s57.333 86 100 117
s93.5 54.167 152.5 69.5s123.833 23 194.5 23c34 0 65.167 -1.33301 93.5 -4s53.5 -5.83398 75.5 -9.50098s40.5 -7.16699 55.5 -10.5s25.833 -5.33301 32.5 -6c0 49.333 -1.33301 93.833 -4 133.5s-10.667 73.334 -24 101.001s-34.333 48.834 -63 63.501
s-69.334 22 -122.001 22zM564.001 166.999c49.333 0 95.5 10.665 138.5 31.998s84.833 53.333 125.5 96v267c-5.33301 0 -14.333 0.833008 -27 2.5s-27.167 3.33398 -43.5 5.00098s-33 3.16699 -50 4.5s-31.833 2 -44.5 2c-48 0 -90.5 -3 -127.5 -9s-68.333 -16.5 -94 -31.5
s-45 -35.333 -58 -61s-19.5 -58.167 -19.5 -97.5c0 -75.333 17.833 -129.166 53.5 -161.499s84.5 -48.5 146.5 -48.5zM176.001 1843l281 119l182 -624l-115 -52z" />
    <glyph glyph-name="aacute" unicode="&#xe1;" 
d="M615 1022c-66 0 -131.332 -9.33398 -195.999 -28.001s-124.667 -45 -180 -79l-77 174c34.667 20 69.167 37.667 103.5 53s70 28 107 38s75.833 17.667 116.5 23s84.667 8 132 8c96 0 175 -11.167 237 -33.5s111.167 -56.333 147.5 -102s61.5 -103.167 75.5 -172.5
s21 -150.666 21 -243.999v-659h-209l-39 166c-44 -66.667 -95.333 -114.834 -154 -144.501s-127.667 -44.5 -207 -44.5c-62.667 0 -119 8 -169 24s-92.5 40 -127.5 72s-61.833 71.667 -80.5 119s-28 102.333 -28 165c0 63.333 12 118.5 36 165.5s57.333 86 100 117
s93.5 54.167 152.5 69.5s123.833 23 194.5 23c34 0 65.167 -1.33301 93.5 -4s53.5 -5.83398 75.5 -9.50098s40.5 -7.16699 55.5 -10.5s25.833 -5.33301 32.5 -6c0 49.333 -1.33301 93.833 -4 133.5s-10.667 73.334 -24 101.001s-34.333 48.834 -63 63.501
s-69.334 22 -122.001 22zM564.001 166.999c49.333 0 95.5 10.665 138.5 31.998s84.833 53.333 125.5 96v267c-5.33301 0 -14.333 0.833008 -27 2.5s-27.167 3.33398 -43.5 5.00098s-33 3.16699 -50 4.5s-31.833 2 -44.5 2c-48 0 -90.5 -3 -127.5 -9s-68.333 -16.5 -94 -31.5
s-45 -35.333 -58 -61s-19.5 -58.167 -19.5 -97.5c0 -75.333 17.833 -129.166 53.5 -161.499s84.5 -48.5 146.5 -48.5zM447.001 1353l184 622l277 -121l-352 -552z" />
    <glyph glyph-name="acircumflex" unicode="&#xe2;" 
d="M615 1022c-66 0 -131.332 -9.33398 -195.999 -28.001s-124.667 -45 -180 -79l-77 174c34.667 20 69.167 37.667 103.5 53s70 28 107 38s75.833 17.667 116.5 23s84.667 8 132 8c96 0 175 -11.167 237 -33.5s111.167 -56.333 147.5 -102s61.5 -103.167 75.5 -172.5
s21 -150.666 21 -243.999v-659h-209l-39 166c-44 -66.667 -95.333 -114.834 -154 -144.501s-127.667 -44.5 -207 -44.5c-62.667 0 -119 8 -169 24s-92.5 40 -127.5 72s-61.833 71.667 -80.5 119s-28 102.333 -28 165c0 63.333 12 118.5 36 165.5s57.333 86 100 117
s93.5 54.167 152.5 69.5s123.833 23 194.5 23c34 0 65.167 -1.33301 93.5 -4s53.5 -5.83398 75.5 -9.50098s40.5 -7.16699 55.5 -10.5s25.833 -5.33301 32.5 -6c0 49.333 -1.33301 93.833 -4 133.5s-10.667 73.334 -24 101.001s-34.333 48.834 -63 63.501
s-69.334 22 -122.001 22zM564.001 166.999c49.333 0 95.5 10.665 138.5 31.998s84.833 53.333 125.5 96v267c-5.33301 0 -14.333 0.833008 -27 2.5s-27.167 3.33398 -43.5 5.00098s-33 3.16699 -50 4.5s-31.833 2 -44.5 2c-48 0 -90.5 -3 -127.5 -9s-68.333 -16.5 -94 -31.5
s-45 -35.333 -58 -61s-19.5 -58.167 -19.5 -97.5c0 -75.333 17.833 -129.166 53.5 -161.499s84.5 -48.5 146.5 -48.5zM686.001 1905l279 -570l-205 -39l-164 387l-164 -387l-204 39l279 570h179z" />
    <glyph glyph-name="atilde" unicode="&#xe3;" 
d="M615 1022c-66 0 -131.332 -9.33398 -195.999 -28.001s-124.667 -45 -180 -79l-77 174c34.667 20 69.167 37.667 103.5 53s70 28 107 38s75.833 17.667 116.5 23s84.667 8 132 8c96 0 175 -11.167 237 -33.5s111.167 -56.333 147.5 -102s61.5 -103.167 75.5 -172.5
s21 -150.666 21 -243.999v-659h-209l-39 166c-44 -66.667 -95.333 -114.834 -154 -144.501s-127.667 -44.5 -207 -44.5c-62.667 0 -119 8 -169 24s-92.5 40 -127.5 72s-61.833 71.667 -80.5 119s-28 102.333 -28 165c0 63.333 12 118.5 36 165.5s57.333 86 100 117
s93.5 54.167 152.5 69.5s123.833 23 194.5 23c34 0 65.167 -1.33301 93.5 -4s53.5 -5.83398 75.5 -9.50098s40.5 -7.16699 55.5 -10.5s25.833 -5.33301 32.5 -6c0 49.333 -1.33301 93.833 -4 133.5s-10.667 73.334 -24 101.001s-34.333 48.834 -63 63.501
s-69.334 22 -122.001 22zM564.001 166.999c49.333 0 95.5 10.665 138.5 31.998s84.833 53.333 125.5 96v267c-5.33301 0 -14.333 0.833008 -27 2.5s-27.167 3.33398 -43.5 5.00098s-33 3.16699 -50 4.5s-31.833 2 -44.5 2c-48 0 -90.5 -3 -127.5 -9s-68.333 -16.5 -94 -31.5
s-45 -35.333 -58 -61s-19.5 -58.167 -19.5 -97.5c0 -75.333 17.833 -129.166 53.5 -161.499s84.5 -48.5 146.5 -48.5zM823.001 1311c-24 0 -48.332 3.33008 -72.999 9.99707s-49 14.834 -73 24.501s-47.333 20.334 -70 32.001l-64.5 32
c-20.333 9.66699 -38.833 17.834 -55.5 24.501s-31 10 -43 10c-18 0 -32.667 -8.16699 -44 -24.5s-17 -47.166 -17 -92.499h-185c0 202.667 73 304 219 304c39.333 0 76.833 -6.83301 112.5 -20.5s69.5 -28.834 101.5 -45.501l89 -45.5
c27.333 -13.667 52.333 -20.5 75 -20.5c15.333 0 27 7.5 35 22.5s12 42.5 12 82.5h191c0 -93.333 -18.333 -165.5 -55 -216.5s-88.334 -76.5 -155.001 -76.5z" />
    <glyph glyph-name="adieresis" unicode="&#xe4;" 
d="M615 1022c-66 0 -131.332 -9.33398 -195.999 -28.001s-124.667 -45 -180 -79l-77 174c34.667 20 69.167 37.667 103.5 53s70 28 107 38s75.833 17.667 116.5 23s84.667 8 132 8c96 0 175 -11.167 237 -33.5s111.167 -56.333 147.5 -102s61.5 -103.167 75.5 -172.5
s21 -150.666 21 -243.999v-659h-209l-39 166c-44 -66.667 -95.333 -114.834 -154 -144.501s-127.667 -44.5 -207 -44.5c-62.667 0 -119 8 -169 24s-92.5 40 -127.5 72s-61.833 71.667 -80.5 119s-28 102.333 -28 165c0 63.333 12 118.5 36 165.5s57.333 86 100 117
s93.5 54.167 152.5 69.5s123.833 23 194.5 23c34 0 65.167 -1.33301 93.5 -4s53.5 -5.83398 75.5 -9.50098s40.5 -7.16699 55.5 -10.5s25.833 -5.33301 32.5 -6c0 49.333 -1.33301 93.833 -4 133.5s-10.667 73.334 -24 101.001s-34.333 48.834 -63 63.501
s-69.334 22 -122.001 22zM564.001 166.999c49.333 0 95.5 10.665 138.5 31.998s84.833 53.333 125.5 96v267c-5.33301 0 -14.333 0.833008 -27 2.5s-27.167 3.33398 -43.5 5.00098s-33 3.16699 -50 4.5s-31.833 2 -44.5 2c-48 0 -90.5 -3 -127.5 -9s-68.333 -16.5 -94 -31.5
s-45 -35.333 -58 -61s-19.5 -58.167 -19.5 -97.5c0 -75.333 17.833 -129.166 53.5 -161.499s84.5 -48.5 146.5 -48.5zM151.001 1453c0 21.333 3.83398 41.5 11.501 60.5s18.5 35.667 32.5 50s30.5 25.666 49.5 33.999s39.5 12.5 61.5 12.5s42.667 -4.16699 62 -12.5
s36 -19.666 50 -33.999s25 -31 33 -50s12 -39.167 12 -60.5c0 -22 -4 -42.5 -12 -61.5s-19 -35.667 -33 -50s-30.667 -25.666 -50 -33.999s-40 -12.5 -62 -12.5c-22.667 0 -43.5 4.16699 -62.5 12.5s-35.333 19.666 -49 33.999s-24.334 31 -32.001 50s-11.5 39.5 -11.5 61.5
zM740.002 1453c0 21.333 4.00098 41.5 12.001 60.5s19 35.667 33 50s30.5 25.666 49.5 33.999s39.5 12.5 61.5 12.5s42.667 -4.16699 62 -12.5s36 -19.666 50 -33.999s25 -31 33 -50s12 -39.167 12 -60.5c0 -22 -4 -42.5 -12 -61.5s-19 -35.667 -33 -50
s-30.667 -25.666 -50 -33.999s-40 -12.5 -62 -12.5c-23.333 0 -44.5 4.16699 -63.5 12.5s-35.333 19.666 -49 33.999s-24.334 31 -32.001 50s-11.5 39.5 -11.5 61.5z" />
    <glyph glyph-name="aring" unicode="&#xe5;" 
d="M615 1022c-66 0 -131.332 -9.33398 -195.999 -28.001s-124.667 -45 -180 -79l-77 174c34.667 20 69.167 37.667 103.5 53s70 28 107 38s75.833 17.667 116.5 23s84.667 8 132 8c96 0 175 -11.167 237 -33.5s111.167 -56.333 147.5 -102s61.5 -103.167 75.5 -172.5
s21 -150.666 21 -243.999v-659h-209l-39 166c-44 -66.667 -95.333 -114.834 -154 -144.501s-127.667 -44.5 -207 -44.5c-62.667 0 -119 8 -169 24s-92.5 40 -127.5 72s-61.833 71.667 -80.5 119s-28 102.333 -28 165c0 63.333 12 118.5 36 165.5s57.333 86 100 117
s93.5 54.167 152.5 69.5s123.833 23 194.5 23c34 0 65.167 -1.33301 93.5 -4s53.5 -5.83398 75.5 -9.50098s40.5 -7.16699 55.5 -10.5s25.833 -5.33301 32.5 -6c0 49.333 -1.33301 93.833 -4 133.5s-10.667 73.334 -24 101.001s-34.333 48.834 -63 63.501
s-69.334 22 -122.001 22zM564.001 166.999c49.333 0 95.5 10.665 138.5 31.998s84.833 53.333 125.5 96v267c-5.33301 0 -14.333 0.833008 -27 2.5s-27.167 3.33398 -43.5 5.00098s-33 3.16699 -50 4.5s-31.833 2 -44.5 2c-48 0 -90.5 -3 -127.5 -9s-68.333 -16.5 -94 -31.5
s-45 -35.333 -58 -61s-19.5 -58.167 -19.5 -97.5c0 -75.333 17.833 -129.166 53.5 -161.499s84.5 -48.5 146.5 -48.5zM462.001 1594c0 -23.333 4.16699 -44.999 12.5 -64.999s20 -37.333 35 -52s32.333 -26.334 52 -35.001s41.167 -13 64.5 -13s45 4.33301 65 13
s37.5 20.334 52.5 35.001s26.833 32 35.5 52s13 41.667 13 65s-4.33301 45.166 -13 65.499s-20.5 38 -35.5 53s-32.667 26.667 -53 35s-41.833 12.5 -64.5 12.5c-23.333 0 -45 -4.33301 -65 -13s-37.333 -20.5 -52 -35.5s-26.167 -32.667 -34.5 -53
s-12.5 -41.833 -12.5 -64.5zM627.001 1890c42.667 0 82.833 -7.49902 120.5 -22.499s70.5 -35.833 98.5 -62.5s50 -58.167 66 -94.5s24 -75.833 24 -118.5s-8.5 -81.834 -25.5 -117.501s-39.833 -66.5 -68.5 -92.5s-62 -46.167 -100 -60.5s-78 -21.5 -120 -21.5
s-81.667 7.66699 -119 23s-69.666 36.5 -96.999 63.5s-49 58.5 -65 94.5s-24 74.667 -24 116c0 42 8.33301 80.833 25 116.5s39.167 66.667 67.5 93s61.166 46.833 98.499 61.5s77 22 119 22z" />
    <glyph glyph-name="ae" unicode="&#xe6;" horiz-adv-x="1900" 
d="M1586 689c0 62 -6.16699 113.999 -18.5 155.999s-29.166 75.833 -50.499 101.5s-46.166 43.834 -74.499 54.501s-58.833 16 -91.5 16s-64.667 -5.83301 -96 -17.5s-59.333 -30.5 -84 -56.5s-44.834 -59.833 -60.501 -101.5s-23.834 -92.5 -24.501 -152.5h500z
M1760 89.999c-12.667 -9.33301 -32.998 -20.3359 -60.998 -33.0029s-60 -24.667 -96 -36s-74.167 -21 -114.5 -29s-79.166 -12 -116.499 -12c-100.667 0 -185.667 17.333 -255 52s-127 90.667 -173 168c-23.333 -36 -51.333 -67.833 -84 -95.5s-68.334 -50.667 -107.001 -69
s-79.834 -32.333 -123.501 -42s-88.167 -14.5 -133.5 -14.5c-130 0 -229.333 32.167 -298 96.5s-103 159.5 -103 285.5c0 65.333 11.833 121.333 35.5 168s56.334 85 98.001 115s91.167 52 148.5 66s120 21 188 21c23.333 0 47 -0.666992 71 -2s47.167 -3.33301 69.5 -6
s43.5 -5.66699 63.5 -9s37.667 -7.33301 53 -12c0 52 -1.66699 97 -5 135s-12 69.5 -26 94.5s-34.833 43.5 -62.5 55.5s-65.834 18 -114.501 18c-41.333 0 -83.5 -4.16699 -126.5 -12.5s-82.833 -18 -119.5 -29s-67.834 -22 -93.501 -33s-41.834 -18.833 -48.501 -23.5
l-59 179c10 8.66699 30.833 19.834 62.5 33.501s68.667 26.834 111 39.501s87.666 23.667 135.999 33s94.5 14 138.5 14c97.333 0 175.833 -14.667 235.5 -44s103.5 -77 131.5 -143c36 63.333 87 110.333 153 141s139 46 219 46c74 0 139.667 -12.667 197 -38
s105.833 -61.166 145.5 -107.499s69.667 -101.666 90 -165.999s30.5 -135.5 30.5 -213.5c0 -22 -0.333008 -44.667 -1 -68s-1.66699 -47 -3 -71h-727c0.666992 -54.667 6.33398 -104.334 17.001 -149.001s27.834 -83 51.501 -115s54.5 -56.667 92.5 -74s84.333 -26 139 -26
c34 0 67 3.33301 99 10s61.667 15 89 25s51.5 20.667 72.5 32s37.167 22 48.5 32zM359.002 375.996c0 -70.667 16.999 -122.499 50.999 -155.499s85.333 -49.5 154 -49.5c44 0 87 10.667 129 32s85 52 129 92v267c-32.667 4.66699 -63.167 8.16699 -91.5 10.5
s-55.166 3.5 -80.499 3.5c-56 0 -102.5 -4.33301 -139.5 -13s-66.833 -21.334 -89.5 -38.001s-38.667 -37.5 -48 -62.5s-14 -53.833 -14 -86.5z" />
    <glyph glyph-name="ccedilla" unicode="&#xe7;" horiz-adv-x="1098" 
d="M646 -23c-98.667 0 -183.333 16.667 -254 50s-128.5 78 -173.5 134s-78 120.5 -99 193.5s-31.5 149.5 -31.5 229.5c0 86.667 12.5 168.167 37.5 244.5s61.333 142.833 109 199.5s106.334 101.334 176.001 134.001s149.167 49 238.5 49c44 0 84.833 -3 122.5 -9
s72.5 -14.167 104.5 -24.5s61 -22.333 87 -36s49.667 -28.167 71 -43.5l-62 -182c-15.333 13.333 -33.833 26.333 -55.5 39s-45.167 24 -70.5 34s-52.333 18 -81 24s-57.667 9 -87 9c-59.333 -3.33301 -109 -15.166 -149 -35.499s-72.333 -48.833 -97 -85.5
s-42.167 -81.334 -52.5 -134.001s-15.5 -112.334 -15.5 -179.001c0 -140.667 27 -246 81 -316s131.333 -105 232 -105c65.333 0 121 10.167 167 30.5s88.667 46.833 128 79.5l62 -183c-20 -14 -42.667 -28 -68 -42s-54 -26.5 -86 -37.5s-67.333 -20 -106 -27
s-81.334 -10.5 -128.001 -10.5zM513.001 -456c22 -8 43.999 -15.335 65.999 -22.002c18.667 -5.33301 38.167 -10.166 58.5 -14.499s38.166 -6.5 53.499 -6.5c20 0 38.167 1.5 54.5 4.5s30.333 8.83301 42 17.5s20.667 21.167 27 37.5s9.5 37.5 9.5 63.5
c0 52 -21 89 -63 111s-107.667 33 -197 33l10 282h122l-6 -180c34.667 0 69.834 -4.33301 105.501 -13s68 -22.667 97 -42s52.5 -44.666 70.5 -75.999s27 -69.666 27 -114.999c0 -80.667 -23.167 -143.5 -69.5 -188.5s-114.833 -67.5 -205.5 -67.5
c-25.333 0 -48.833 2 -70.5 6s-41.167 8.66699 -58.5 14s-32.166 10.666 -44.499 15.999s-21.833 9 -28.5 11v129z" />
    <glyph glyph-name="egrave" unicode="&#xe8;" horiz-adv-x="1193" 
d="M1053 86c-29.333 -18 -60.6738 -33.668 -94.0068 -47.001s-67.166 -24.666 -101.499 -33.999s-68.166 -16.333 -101.499 -21s-64.666 -7 -93.999 -7c-91.333 0 -172.5 13.833 -243.5 41.5s-131 67.334 -180 119.001s-86.333 114 -112 187s-38.5 154.833 -38.5 245.5
c0 92.667 11.667 178.167 35 256.5s57.833 146 103.5 203s102.334 101.5 170.001 133.5s145.5 48 233.5 48c78 0 146.833 -12.5 206.5 -37.5s109.834 -60.5 150.501 -106.5s71.334 -101.333 92.001 -166s31 -136.667 31 -216c0 -24.667 -0.333008 -49 -1 -73
s-1.66699 -47.333 -3 -70h-738c0.666992 -64.667 8.33398 -120.667 23.001 -168s35.5 -86.333 62.5 -117s60 -53.334 99 -68.001s82.833 -22 131.5 -22c62 0 116.667 8.83301 164 26.5s94 44.167 140 79.5zM878.992 705.999c0 104 -21 182.333 -63 235
s-100.333 79.667 -175 81c-45.333 -1.33301 -84.5 -10.833 -117.5 -28.5s-60.667 -41.5 -83 -71.5s-39.5 -65 -51.5 -105s-19 -82.667 -21 -128h511v17zM182.992 1854l281 119l182 -624l-115 -52z" />
    <glyph glyph-name="eacute" unicode="&#xe9;" horiz-adv-x="1193" 
d="M1053 86c-29.333 -18 -60.6738 -33.668 -94.0068 -47.001s-67.166 -24.666 -101.499 -33.999s-68.166 -16.333 -101.499 -21s-64.666 -7 -93.999 -7c-91.333 0 -172.5 13.833 -243.5 41.5s-131 67.334 -180 119.001s-86.333 114 -112 187s-38.5 154.833 -38.5 245.5
c0 92.667 11.667 178.167 35 256.5s57.833 146 103.5 203s102.334 101.5 170.001 133.5s145.5 48 233.5 48c78 0 146.833 -12.5 206.5 -37.5s109.834 -60.5 150.501 -106.5s71.334 -101.333 92.001 -166s31 -136.667 31 -216c0 -24.667 -0.333008 -49 -1 -73
s-1.66699 -47.333 -3 -70h-738c0.666992 -64.667 8.33398 -120.667 23.001 -168s35.5 -86.333 62.5 -117s60 -53.334 99 -68.001s82.833 -22 131.5 -22c62 0 116.667 8.83301 164 26.5s94 44.167 140 79.5zM878.992 705.999c0 104 -21 182.333 -63 235
s-100.333 79.667 -175 81c-45.333 -1.33301 -84.5 -10.833 -117.5 -28.5s-60.667 -41.5 -83 -71.5s-39.5 -65 -51.5 -105s-19 -82.667 -21 -128h511v17zM453.992 1364l184 622l277 -121l-352 -552z" />
    <glyph glyph-name="ecircumflex" unicode="&#xea;" horiz-adv-x="1193" 
d="M1053 86c-29.333 -18 -60.6738 -33.668 -94.0068 -47.001s-67.166 -24.666 -101.499 -33.999s-68.166 -16.333 -101.499 -21s-64.666 -7 -93.999 -7c-91.333 0 -172.5 13.833 -243.5 41.5s-131 67.334 -180 119.001s-86.333 114 -112 187s-38.5 154.833 -38.5 245.5
c0 92.667 11.667 178.167 35 256.5s57.833 146 103.5 203s102.334 101.5 170.001 133.5s145.5 48 233.5 48c78 0 146.833 -12.5 206.5 -37.5s109.834 -60.5 150.501 -106.5s71.334 -101.333 92.001 -166s31 -136.667 31 -216c0 -24.667 -0.333008 -49 -1 -73
s-1.66699 -47.333 -3 -70h-738c0.666992 -64.667 8.33398 -120.667 23.001 -168s35.5 -86.333 62.5 -117s60 -53.334 99 -68.001s82.833 -22 131.5 -22c62 0 116.667 8.83301 164 26.5s94 44.167 140 79.5zM878.992 705.999c0 104 -21 182.333 -63 235
s-100.333 79.667 -175 81c-45.333 -1.33301 -84.5 -10.833 -117.5 -28.5s-60.667 -41.5 -83 -71.5s-39.5 -65 -51.5 -105s-19 -82.667 -21 -128h511v17zM689.992 1905l279 -570l-205 -39l-164 387l-164 -387l-204 39l279 570h179z" />
    <glyph glyph-name="edieresis" unicode="&#xeb;" horiz-adv-x="1193" 
d="M1053 86c-29.333 -18 -60.6738 -33.668 -94.0068 -47.001s-67.166 -24.666 -101.499 -33.999s-68.166 -16.333 -101.499 -21s-64.666 -7 -93.999 -7c-91.333 0 -172.5 13.833 -243.5 41.5s-131 67.334 -180 119.001s-86.333 114 -112 187s-38.5 154.833 -38.5 245.5
c0 92.667 11.667 178.167 35 256.5s57.833 146 103.5 203s102.334 101.5 170.001 133.5s145.5 48 233.5 48c78 0 146.833 -12.5 206.5 -37.5s109.834 -60.5 150.501 -106.5s71.334 -101.333 92.001 -166s31 -136.667 31 -216c0 -24.667 -0.333008 -49 -1 -73
s-1.66699 -47.333 -3 -70h-738c0.666992 -64.667 8.33398 -120.667 23.001 -168s35.5 -86.333 62.5 -117s60 -53.334 99 -68.001s82.833 -22 131.5 -22c62 0 116.667 8.83301 164 26.5s94 44.167 140 79.5zM878.992 705.999c0 104 -21 182.333 -63 235
s-100.333 79.667 -175 81c-45.333 -1.33301 -84.5 -10.833 -117.5 -28.5s-60.667 -41.5 -83 -71.5s-39.5 -65 -51.5 -105s-19 -82.667 -21 -128h511v17zM158.992 1464c0 21.333 3.83398 41.5 11.501 60.5s18.5 35.667 32.5 50s30.5 25.666 49.5 33.999s39.5 12.5 61.5 12.5
s42.667 -4.16699 62 -12.5s36 -19.666 50 -33.999s25 -31 33 -50s12 -39.167 12 -60.5c0 -22 -4 -42.5 -12 -61.5s-19 -35.667 -33 -50s-30.667 -25.666 -50 -33.999s-40 -12.5 -62 -12.5c-22.667 0 -43.5 4.16699 -62.5 12.5s-35.333 19.666 -49 33.999
s-24.334 31 -32.001 50s-11.5 39.5 -11.5 61.5zM747.993 1464c0 21.333 4.00098 41.5 12.001 60.5s19 35.667 33 50s30.5 25.666 49.5 33.999s39.5 12.5 61.5 12.5s42.667 -4.16699 62 -12.5s36 -19.666 50 -33.999s25 -31 33 -50s12 -39.167 12 -60.5
c0 -22 -4 -42.5 -12 -61.5s-19 -35.667 -33 -50s-30.667 -25.666 -50 -33.999s-40 -12.5 -62 -12.5c-23.333 0 -44.5 4.16699 -63.5 12.5s-35.333 19.666 -49 33.999s-24.334 31 -32.001 50s-11.5 39.5 -11.5 61.5z" />
    <glyph glyph-name="igrave" unicode="&#xec;" horiz-adv-x="645" 
d="M-53 1916l282 119l181 -625l-114 -51zM199 0v1182h271v-1182h-271z" />
    <glyph glyph-name="iacute" unicode="&#xed;" horiz-adv-x="645" 
d="M140 1390l184 621l277 -120l-352 -552zM199 0v1182h271v-1182h-271z" />
    <glyph glyph-name="icircumflex" unicode="&#xee;" horiz-adv-x="645" 
d="M414 1959l278 -569l-205 -39l-163 386l-164 -386l-204 39l279 569h179zM199 0v1182h271v-1182h-271z" />
    <glyph glyph-name="idieresis" unicode="&#xef;" horiz-adv-x="645" 
d="M-145 1492c0 22 3.83398 42.501 11.501 61.501s18.5 35.667 32.5 50s30.5 25.666 49.5 33.999s39.5 12.5 61.5 12.5s42.667 -4.16699 62 -12.5s36 -19.666 50 -33.999s25 -31 33 -50s12 -39.5 12 -61.5s-4 -42.5 -12 -61.5s-19 -35.5 -33 -49.5
s-30.667 -25.167 -50 -33.5s-40 -12.5 -62 -12.5c-22.667 0 -43.5 4.16699 -62.5 12.5s-35.333 19.666 -49 33.999s-24.334 31 -32.001 50s-11.5 39.167 -11.5 60.5zM444.001 1492c0 22 4 42.501 12 61.501s19 35.667 33 50s30.5 25.666 49.5 33.999s39.5 12.5 61.5 12.5
s42.667 -4.16699 62 -12.5s36 -19.666 50 -33.999s25 -31 33 -50s12 -39.5 12 -61.5s-4 -42.5 -12 -61.5s-19 -35.5 -33 -49.5s-30.667 -25.167 -50 -33.5s-40 -12.5 -62 -12.5c-22.667 0 -43.5 4.16699 -62.5 12.5s-35.5 19.666 -49.5 33.999s-24.833 31 -32.5 50
s-11.5 39.167 -11.5 60.5zM199.001 0.00195312v1182h271v-1182h-271z" />
    <glyph glyph-name="eth" unicode="&#xf0;" horiz-adv-x="1268" 
d="M1166 660c0 -232 -47.4951 -403.002 -142.495 -513.002s-234.167 -165 -417.5 -165c-90 0 -167.667 16.5 -233 49.5s-119 77.667 -161 134s-73.167 121.833 -93.5 196.5s-30.5 154 -30.5 238c0 85.333 10.167 165 30.5 239s50.166 138.167 89.499 192.5
s87.666 97 144.999 128s122.666 46.5 195.999 46.5c36.667 0 72.167 -4 106.5 -12s66.166 -18.833 95.499 -32.5s55.833 -29.834 79.5 -48.501s43.834 -39 60.501 -61c-13.333 48 -37 100.5 -71 157.5s-75.333 113.5 -124 169.5l-238 -73l-43 122l180 55
c-32 30 -63.5 57.333 -94.5 82s-62.833 46.667 -95.5 66l120 143l70 -43.5c22.667 -14.333 45.5 -30.166 68.5 -47.499s46.833 -36.666 71.5 -57.999s51 -46 79 -74l295 92l43 -122l-241 -75c37.333 -48.667 71.666 -100.5 102.999 -155.5s58.166 -114.667 80.499 -179
s39.833 -133.666 52.5 -207.999s19 -155.5 19 -243.5zM359.005 594.998c0 -62.667 4.66406 -119.832 13.9971 -171.499s24.333 -95.834 45 -132.501s46.834 -65.167 78.501 -85.5s70.167 -30.5 115.5 -30.5c42.667 0 80.334 8.16699 113.001 24.5
s60.334 39.666 83.001 69.999s40.667 67.333 54 111s22.333 92.834 27 147.501c1.33301 39.333 2.5 79.333 3.5 120s1.5 82.667 1.5 126c-8.66699 46 -23.167 84.5 -43.5 115.5s-43.833 55.667 -70.5 74s-55 31.333 -85 39s-58.667 11.5 -86 11.5
c-79.333 0 -140.833 -33.5 -184.5 -100.5s-65.5 -173.167 -65.5 -318.5z" />
    <glyph glyph-name="ntilde" unicode="&#xf1;" horiz-adv-x="1321" 
d="M405 1011c18 28 40.498 54.166 67.498 78.499s57 45.5 90 63.5s68.167 32.167 105.5 42.5s75 15.5 113 15.5c72 0 133.333 -10.333 184 -31s92.334 -51 125.001 -91s56.5 -89.667 71.5 -149s22.5 -127.666 22.5 -204.999v-735h-275v748
c0 92.667 -15.167 161.5 -45.5 206.5s-80.166 67.5 -149.499 67.5c-28 0 -56.667 -4.66699 -86 -14s-57 -21 -83 -35s-49.333 -29.333 -70 -46s-36.667 -32 -48 -46v-881h-275v1182h207zM861.998 1322c-24 0 -48.332 3.33008 -72.999 9.99707s-49 14.834 -73 24.501
s-47.333 20.334 -70 32.001l-64.5 32c-20.333 9.66699 -38.833 17.834 -55.5 24.501s-31 10 -43 10c-18 0 -32.667 -8.16699 -44 -24.5s-17 -47.166 -17 -92.499h-185c0 202.667 73 304 219 304c39.333 0 76.833 -6.83301 112.5 -20.5s69.5 -28.834 101.5 -45.501l89 -45.5
c27.333 -13.667 52.333 -20.5 75 -20.5c15.333 0 27 7.5 35 22.5s12 42.5 12 82.5h191c0 -93.333 -18.333 -165.5 -55 -216.5s-88.334 -76.5 -155.001 -76.5z" />
    <glyph glyph-name="ograve" unicode="&#xf2;" horiz-adv-x="1293" 
d="M647 156c54.667 0 100.501 11.166 137.501 33.499s66.667 53 89 92s38.166 84.333 47.499 136s14 107.167 14 166.5c0 58.667 -4.66699 114 -14 166s-25.166 97.5 -47.499 136.5s-52 70 -89 93s-82.833 34.5 -137.5 34.5s-100.334 -11.5 -137.001 -34.5
s-66.167 -54 -88.5 -93s-38.166 -84.667 -47.499 -137s-14 -107.5 -14 -165.5c0 -31.333 1.5 -63.5 4.5 -96.5s8.33301 -65.333 16 -97s18.167 -61.667 31.5 -90s30.666 -53.166 51.999 -74.499s47 -38.333 77 -51s65.333 -19 106 -19zM1204 583.999
c0 -84.667 -10.3311 -164.334 -30.998 -239.001s-53.167 -140 -97.5 -196s-101.833 -100.167 -172.5 -132.5s-156 -48.5 -256 -48.5s-185.333 16.167 -256 48.5s-128.5 76.5 -173.5 132.5s-77.833 121.333 -98.5 196s-31 154.334 -31 239.001
c0 85.333 10.5 165.666 31.5 240.999s54 141 99 197s102.667 100.333 173 133s155.166 49 254.499 49s184.166 -16.333 254.499 -49s128 -77 173 -133s78 -121.667 99 -197s31.5 -155.666 31.5 -240.999zM206.003 1854l281 119l182 -624l-115 -52z" />
    <glyph glyph-name="oacute" unicode="&#xf3;" horiz-adv-x="1293" 
d="M647 156c54.667 0 100.501 11.166 137.501 33.499s66.667 53 89 92s38.166 84.333 47.499 136s14 107.167 14 166.5c0 58.667 -4.66699 114 -14 166s-25.166 97.5 -47.499 136.5s-52 70 -89 93s-82.833 34.5 -137.5 34.5s-100.334 -11.5 -137.001 -34.5
s-66.167 -54 -88.5 -93s-38.166 -84.667 -47.499 -137s-14 -107.5 -14 -165.5c0 -31.333 1.5 -63.5 4.5 -96.5s8.33301 -65.333 16 -97s18.167 -61.667 31.5 -90s30.666 -53.166 51.999 -74.499s47 -38.333 77 -51s65.333 -19 106 -19zM1204 583.999
c0 -84.667 -10.3311 -164.334 -30.998 -239.001s-53.167 -140 -97.5 -196s-101.833 -100.167 -172.5 -132.5s-156 -48.5 -256 -48.5s-185.333 16.167 -256 48.5s-128.5 76.5 -173.5 132.5s-77.833 121.333 -98.5 196s-31 154.334 -31 239.001
c0 85.333 10.5 165.666 31.5 240.999s54 141 99 197s102.667 100.333 173 133s155.166 49 254.499 49s184.166 -16.333 254.499 -49s128 -77 173 -133s78 -121.667 99 -197s31.5 -155.666 31.5 -240.999zM475.003 1364l184 622l277 -121l-352 -552z" />
    <glyph glyph-name="ocircumflex" unicode="&#xf4;" horiz-adv-x="1293" 
d="M644 156c54.667 0 100.501 11.166 137.501 33.499s66.667 53 89 92s38.166 84.333 47.499 136s14 107.167 14 166.5c0 58.667 -4.66699 114 -14 166s-25.166 97.5 -47.499 136.5s-52 70 -89 93s-82.833 34.5 -137.5 34.5s-100.334 -11.5 -137.001 -34.5
s-66.167 -54 -88.5 -93s-38.166 -84.667 -47.499 -137s-14 -107.5 -14 -165.5c0 -31.333 1.5 -63.5 4.5 -96.5s8.33301 -65.333 16 -97s18.167 -61.667 31.5 -90s30.666 -53.166 51.999 -74.499s47 -38.333 77 -51s65.333 -19 106 -19zM1201 583.999
c0 -84.667 -10.3311 -164.334 -30.998 -239.001s-53.167 -140 -97.5 -196s-101.833 -100.167 -172.5 -132.5s-156 -48.5 -256 -48.5s-185.333 16.167 -256 48.5s-128.5 76.5 -173.5 132.5s-77.833 121.333 -98.5 196s-31 154.334 -31 239.001
c0 85.333 10.5 165.666 31.5 240.999s54 141 99 197s102.667 100.333 173 133s155.166 49 254.499 49s184.166 -16.333 254.499 -49s128 -77 173 -133s78 -121.667 99 -197s31.5 -155.666 31.5 -240.999zM734.003 1905l279 -570l-205 -39l-164 387l-164 -387l-204 39
l279 570h179z" />
    <glyph glyph-name="otilde" unicode="&#xf5;" horiz-adv-x="1293" 
d="M647 156c54.667 0 100.501 11.166 137.501 33.499s66.667 53 89 92s38.166 84.333 47.499 136s14 107.167 14 166.5c0 58.667 -4.66699 114 -14 166s-25.166 97.5 -47.499 136.5s-52 70 -89 93s-82.833 34.5 -137.5 34.5s-100.334 -11.5 -137.001 -34.5
s-66.167 -54 -88.5 -93s-38.166 -84.667 -47.499 -137s-14 -107.5 -14 -165.5c0 -31.333 1.5 -63.5 4.5 -96.5s8.33301 -65.333 16 -97s18.167 -61.667 31.5 -90s30.666 -53.166 51.999 -74.499s47 -38.333 77 -51s65.333 -19 106 -19zM1204 583.999
c0 -84.667 -10.3311 -164.334 -30.998 -239.001s-53.167 -140 -97.5 -196s-101.833 -100.167 -172.5 -132.5s-156 -48.5 -256 -48.5s-185.333 16.167 -256 48.5s-128.5 76.5 -173.5 132.5s-77.833 121.333 -98.5 196s-31 154.334 -31 239.001
c0 85.333 10.5 165.666 31.5 240.999s54 141 99 197s102.667 100.333 173 133s155.166 49 254.499 49s184.166 -16.333 254.499 -49s128 -77 173 -133s78 -121.667 99 -197s31.5 -155.666 31.5 -240.999zM854.003 1322c-24 0 -48.332 3.33008 -72.999 9.99707
s-49 14.834 -73 24.501s-47.333 20.334 -70 32.001l-64.5 32c-20.333 9.66699 -38.833 17.834 -55.5 24.501s-31 10 -43 10c-18 0 -32.667 -8.16699 -44 -24.5s-17 -47.166 -17 -92.499h-185c0 202.667 73 304 219 304c39.333 0 76.833 -6.83301 112.5 -20.5
s69.5 -28.834 101.5 -45.501l89 -45.5c27.333 -13.667 52.333 -20.5 75 -20.5c15.333 0 27 7.5 35 22.5s12 42.5 12 82.5h191c0 -93.333 -18.333 -165.5 -55 -216.5s-88.334 -76.5 -155.001 -76.5z" />
    <glyph glyph-name="odieresis" unicode="&#xf6;" horiz-adv-x="1293" 
d="M647 156c54.667 0 100.501 11.166 137.501 33.499s66.667 53 89 92s38.166 84.333 47.499 136s14 107.167 14 166.5c0 58.667 -4.66699 114 -14 166s-25.166 97.5 -47.499 136.5s-52 70 -89 93s-82.833 34.5 -137.5 34.5s-100.334 -11.5 -137.001 -34.5
s-66.167 -54 -88.5 -93s-38.166 -84.667 -47.499 -137s-14 -107.5 -14 -165.5c0 -31.333 1.5 -63.5 4.5 -96.5s8.33301 -65.333 16 -97s18.167 -61.667 31.5 -90s30.666 -53.166 51.999 -74.499s47 -38.333 77 -51s65.333 -19 106 -19zM1204 583.999
c0 -84.667 -10.3311 -164.334 -30.998 -239.001s-53.167 -140 -97.5 -196s-101.833 -100.167 -172.5 -132.5s-156 -48.5 -256 -48.5s-185.333 16.167 -256 48.5s-128.5 76.5 -173.5 132.5s-77.833 121.333 -98.5 196s-31 154.334 -31 239.001
c0 85.333 10.5 165.666 31.5 240.999s54 141 99 197s102.667 100.333 173 133s155.166 49 254.499 49s184.166 -16.333 254.499 -49s128 -77 173 -133s78 -121.667 99 -197s31.5 -155.666 31.5 -240.999zM182.003 1464c0 21.333 3.83398 41.5 11.501 60.5
s18.5 35.667 32.5 50s30.5 25.666 49.5 33.999s39.5 12.5 61.5 12.5s42.667 -4.16699 62 -12.5s36 -19.666 50 -33.999s25 -31 33 -50s12 -39.167 12 -60.5c0 -22 -4 -42.5 -12 -61.5s-19 -35.667 -33 -50s-30.667 -25.666 -50 -33.999s-40 -12.5 -62 -12.5
c-22.667 0 -43.5 4.16699 -62.5 12.5s-35.333 19.666 -49 33.999s-24.334 31 -32.001 50s-11.5 39.5 -11.5 61.5zM771.004 1464c0 21.333 4.00098 41.5 12.001 60.5s19 35.667 33 50s30.5 25.666 49.5 33.999s39.5 12.5 61.5 12.5s42.667 -4.16699 62 -12.5
s36 -19.666 50 -33.999s25 -31 33 -50s12 -39.167 12 -60.5c0 -22 -4 -42.5 -12 -61.5s-19 -35.667 -33 -50s-30.667 -25.666 -50 -33.999s-40 -12.5 -62 -12.5c-23.333 0 -44.5 4.16699 -63.5 12.5s-35.333 19.666 -49 33.999s-24.334 31 -32.001 50s-11.5 39.5 -11.5 61.5
z" />
    <glyph glyph-name="divide" unicode="&#xf7;" horiz-adv-x="1147" 
d="M436 1006c0 22 3.66797 42.502 11.001 61.502s17.833 35.667 31.5 50s29.834 25.666 48.501 33.999s39.334 12.5 62.001 12.5c22 0 42.333 -4.16699 61 -12.5s34.667 -19.5 48 -33.5s23.833 -30.667 31.5 -50s11.5 -40 11.5 -62s-3.66699 -42.5 -11 -61.5
s-17.833 -35.667 -31.5 -50s-29.834 -25.5 -48.501 -33.5s-39 -12 -61 -12c-22.667 0 -43.334 4.16699 -62.001 12.5s-34.834 19.666 -48.501 33.999s-24.167 31 -31.5 50s-11 39.167 -11 60.5zM436.001 307.002c0 22 3.8291 42.502 11.4961 61.502s18.334 35.667 32.001 50
s29.834 25.666 48.501 33.999s39.334 12.5 62.001 12.5c22 0 42.167 -4.16699 60.5 -12.5s34.333 -19.5 48 -33.5s24.167 -30.667 31.5 -50s11 -40 11 -62s-3.66699 -42.5 -11 -61.5s-17.666 -35.667 -30.999 -50s-29.333 -25.5 -48 -33.5s-39 -12 -61 -12
c-22.667 0 -43.5 4.16699 -62.5 12.5s-35.167 19.666 -48.5 33.999s-23.833 31 -31.5 50s-11.5 39.167 -11.5 60.5zM159.997 559.004v201h858v-201h-858z" />
    <glyph glyph-name="oslash" unicode="&#xf8;" horiz-adv-x="1293" 
d="M737 1018c-24 8 -54.3311 12.001 -90.998 12.001c-48 0 -91.167 -8.83301 -129.5 -26.5s-71 -44.167 -98 -79.5s-47.833 -79.833 -62.5 -133.5s-22 -116.5 -22 -188.5c0 -54.667 4 -103.5 12 -146.5s18.167 -80.333 30.5 -112s26.166 -57.834 41.499 -78.501
s30.666 -36 45.999 -46zM436.002 -189.999l-99.001 33l63 184c-104.667 45.333 -182.834 116.166 -234.501 212.499s-77.5 213.166 -77.5 350.499c0 88.667 11.667 170.667 35 246s58.333 140.333 105 195s104.834 97.5 174.501 128.5s150.834 46.5 243.501 46.5
c26 0 51.167 -1.33301 75.5 -4s48.166 -6.66699 71.499 -12l66 195l94 -34l-65 -191c53.333 -23.333 99.833 -53.666 139.5 -90.999s72.5 -80.166 98.5 -128.499s45.5 -102 58.5 -161s19.5 -122.167 19.5 -189.5c0 -88.667 -11.667 -170.167 -35 -244.5
s-58.166 -138.5 -104.499 -192.5s-104.5 -96 -174.5 -126s-151.333 -45 -244 -45c-53.333 0 -102.333 5 -147 15zM646.001 155.001c54 0 100.831 10.668 140.498 32.001s72.667 51.166 99 89.499s45.833 84.333 58.5 138s19 112.834 19 177.501
c0 56 -4.33301 104.833 -13 146.5s-19.667 77.5 -33 107.5s-28.166 54.667 -44.499 74s-32.166 34.666 -47.499 45.999l-269 -801c20.667 -6.66699 50.667 -10 90 -10z" />
    <glyph glyph-name="ugrave" unicode="&#xf9;" horiz-adv-x="1299" 
d="M407 439c0 -42.667 3.33301 -80.501 10 -113.501s17.667 -60.667 33 -83s35.333 -39.333 60 -51s54.667 -17.5 90 -17.5c50 0 96.667 9 140 27s87.666 48.667 132.999 92v889h276v-1182h-198l-53 179c-14 -28 -31.833 -54.333 -53.5 -79s-46.667 -46.167 -75 -64.5
s-59.666 -32.666 -93.999 -42.999s-71.5 -15.5 -111.5 -15.5c-141.333 0 -248.333 38.333 -321 115s-109 196.667 -109 360v730h273v-743zM203 1854l281 119l182 -624l-115 -52z" />
    <glyph glyph-name="uacute" unicode="&#xfa;" horiz-adv-x="1299" 
d="M407 439c0 -42.667 3.33301 -80.501 10 -113.501s17.667 -60.667 33 -83s35.333 -39.333 60 -51s54.667 -17.5 90 -17.5c50 0 96.667 9 140 27s87.666 48.667 132.999 92v889h276v-1182h-198l-53 179c-14 -28 -31.833 -54.333 -53.5 -79s-46.667 -46.167 -75 -64.5
s-59.666 -32.666 -93.999 -42.999s-71.5 -15.5 -111.5 -15.5c-141.333 0 -248.333 38.333 -321 115s-109 196.667 -109 360v730h273v-743zM472 1364l184 622l277 -121l-352 -552z" />
    <glyph glyph-name="ucircumflex" unicode="&#xfb;" horiz-adv-x="1299" 
d="M407 439c0 -42.667 3.33301 -80.501 10 -113.501s17.667 -60.667 33 -83s35.333 -39.333 60 -51s54.667 -17.5 90 -17.5c50 0 96.667 9 140 27s87.666 48.667 132.999 92v889h276v-1182h-198l-53 179c-14 -28 -31.833 -54.333 -53.5 -79s-46.667 -46.167 -75 -64.5
s-59.666 -32.666 -93.999 -42.999s-71.5 -15.5 -111.5 -15.5c-141.333 0 -248.333 38.333 -321 115s-109 196.667 -109 360v730h273v-743zM732 1905l279 -570l-205 -39l-164 387l-164 -387l-204 39l279 570h179z" />
    <glyph glyph-name="udieresis" unicode="&#xfc;" horiz-adv-x="1299" 
d="M407 439c0 -42.667 3.33301 -80.501 10 -113.501s17.667 -60.667 33 -83s35.333 -39.333 60 -51s54.667 -17.5 90 -17.5c50 0 96.667 9 140 27s87.666 48.667 132.999 92v889h276v-1182h-198l-53 179c-14 -28 -31.833 -54.333 -53.5 -79s-46.667 -46.167 -75 -64.5
s-59.666 -32.666 -93.999 -42.999s-71.5 -15.5 -111.5 -15.5c-141.333 0 -248.333 38.333 -321 115s-109 196.667 -109 360v730h273v-743zM179 1464c0 21.333 3.83398 41.5 11.501 60.5s18.5 35.667 32.5 50s30.5 25.666 49.5 33.999s39.5 12.5 61.5 12.5
s42.667 -4.16699 62 -12.5s36 -19.666 50 -33.999s25 -31 33 -50s12 -39.167 12 -60.5c0 -22 -4 -42.5 -12 -61.5s-19 -35.667 -33 -50s-30.667 -25.666 -50 -33.999s-40 -12.5 -62 -12.5c-22.667 0 -43.5 4.16699 -62.5 12.5s-35.333 19.666 -49 33.999
s-24.334 31 -32.001 50s-11.5 39.5 -11.5 61.5zM768.001 1464c0 21.333 4.00098 41.5 12.001 60.5s19 35.667 33 50s30.5 25.666 49.5 33.999s39.5 12.5 61.5 12.5s42.667 -4.16699 62 -12.5s36 -19.666 50 -33.999s25 -31 33 -50s12 -39.167 12 -60.5
c0 -22 -4 -42.5 -12 -61.5s-19 -35.667 -33 -50s-30.667 -25.666 -50 -33.999s-40 -12.5 -62 -12.5c-23.333 0 -44.5 4.16699 -63.5 12.5s-35.333 19.666 -49 33.999s-24.334 31 -32.001 50s-11.5 39.5 -11.5 61.5z" />
    <glyph glyph-name="yacute" unicode="&#xfd;" horiz-adv-x="1171" 
d="M24 1182h276l319 -865l250 865h280l-423 -1217c-31.333 -89.333 -68 -162.333 -110 -219s-85.833 -101 -131.5 -133s-91.167 -54 -136.5 -66s-87 -18 -125 -18l-76 185c52 6.66699 96.667 17 134 31s69.5 33.333 96.5 58s50 55.667 69 93s36.167 83 51.5 137zM431 1364
l184 622l277 -121l-352 -552z" />
    <glyph glyph-name="thorn" unicode="&#xfe;" horiz-adv-x="1319" 
d="M958 575c0 56.667 -3.83301 111.167 -11.5 163.5s-21 98.5 -40 138.5s-44.5 71.833 -76.5 95.5s-72 35.5 -120 35.5c-36.667 0 -70 -4.33301 -100 -13s-56.667 -19.334 -80 -32.001s-43.5 -25.667 -60.5 -39l-42.5 -34v-607c18.667 -16.667 39.667 -31.667 63 -45
s48 -24.833 74 -34.5s53.167 -17 81.5 -22s56.5 -7.5 84.5 -7.5c32.667 0 61 6 85 18s44.5 28.167 61.5 48.5s30.667 44 41 71s18.5 55.333 24.5 85s10.167 59.834 12.5 90.501s3.5 60 3.5 88zM745 -18c-145.333 0 -252 44.333 -320 133v-568h-273v2048h270v-557
c17.333 24.667 37.833 47.167 61.5 67.5s49.834 37.5 78.501 51.5s59 24.833 91 32.5s65 11.5 99 11.5c84 0 156.167 -16.5 216.5 -49.5s110 -77.667 149 -134s67.667 -122 86 -197s27.5 -154.167 27.5 -237.5c0 -86.667 -10.5 -166.667 -31.5 -240s-52 -136.833 -93 -190.5
s-91.833 -95.5 -152.5 -125.5s-130.334 -45 -209.001 -45z" />
    <glyph glyph-name="ydieresis" unicode="&#xff;" horiz-adv-x="1171" 
d="M24 1182h276l319 -865l250 865h280l-423 -1217c-31.333 -89.333 -68 -162.333 -110 -219s-85.833 -101 -131.5 -133s-91.167 -54 -136.5 -66s-87 -18 -125 -18l-76 185c52 6.66699 96.667 17 134 31s69.5 33.333 96.5 58s50 55.667 69 93s36.167 83 51.5 137zM136 1464
c0 21.333 3.83398 41.5 11.501 60.5s18.5 35.667 32.5 50s30.5 25.666 49.5 33.999s39.5 12.5 61.5 12.5s42.667 -4.16699 62 -12.5s36 -19.666 50 -33.999s25 -31 33 -50s12 -39.167 12 -60.5c0 -22 -4 -42.5 -12 -61.5s-19 -35.667 -33 -50s-30.667 -25.666 -50 -33.999
s-40 -12.5 -62 -12.5c-22.667 0 -43.5 4.16699 -62.5 12.5s-35.333 19.666 -49 33.999s-24.334 31 -32.001 50s-11.5 39.5 -11.5 61.5zM725.001 1464c0 21.333 4.00098 41.5 12.001 60.5s19 35.667 33 50s30.5 25.666 49.5 33.999s39.5 12.5 61.5 12.5
s42.667 -4.16699 62 -12.5s36 -19.666 50 -33.999s25 -31 33 -50s12 -39.167 12 -60.5c0 -22 -4 -42.5 -12 -61.5s-19 -35.667 -33 -50s-30.667 -25.666 -50 -33.999s-40 -12.5 -62 -12.5c-23.333 0 -44.5 4.16699 -63.5 12.5s-35.333 19.666 -49 33.999
s-24.334 31 -32.001 50s-11.5 39.5 -11.5 61.5z" />
    <glyph glyph-name="Amacron" unicode="&#x100;" horiz-adv-x="1503" 
d="M927 1602l530 -1602h-290l-118 371h-595l-118 -371h-290l526 1602h355zM492 510h519l-256 803zM474 1814v202h564v-202h-564z" />
    <glyph glyph-name="amacron" unicode="&#x101;" 
d="M615 1022c-66 0 -131.332 -9.33398 -195.999 -28.001s-124.667 -45 -180 -79l-77 174c34.667 20 69.167 37.667 103.5 53s70 28 107 38s75.833 17.667 116.5 23s84.667 8 132 8c96 0 175 -11.167 237 -33.5s111.167 -56.333 147.5 -102s61.5 -103.167 75.5 -172.5
s21 -150.666 21 -243.999v-659h-209l-39 166c-44 -66.667 -95.333 -114.834 -154 -144.501s-127.667 -44.5 -207 -44.5c-62.667 0 -119 8 -169 24s-92.5 40 -127.5 72s-61.833 71.667 -80.5 119s-28 102.333 -28 165c0 63.333 12 118.5 36 165.5s57.333 86 100 117
s93.5 54.167 152.5 69.5s123.833 23 194.5 23c34 0 65.167 -1.33301 93.5 -4s53.5 -5.83398 75.5 -9.50098s40.5 -7.16699 55.5 -10.5s25.833 -5.33301 32.5 -6c0 49.333 -1.33301 93.833 -4 133.5s-10.667 73.334 -24 101.001s-34.333 48.834 -63 63.501
s-69.334 22 -122.001 22zM564.001 166.999c49.333 0 95.5 10.665 138.5 31.998s84.833 53.333 125.5 96v267c-5.33301 0 -14.333 0.833008 -27 2.5s-27.167 3.33398 -43.5 5.00098s-33 3.16699 -50 4.5s-31.833 2 -44.5 2c-48 0 -90.5 -3 -127.5 -9s-68.333 -16.5 -94 -31.5
s-45 -35.333 -58 -61s-19.5 -58.167 -19.5 -97.5c0 -75.333 17.833 -129.166 53.5 -161.499s84.5 -48.5 146.5 -48.5zM373.001 1379v202h564v-202h-564z" />
    <glyph glyph-name="Abreve" unicode="&#x102;" horiz-adv-x="1503" 
d="M927 1602l530 -1602h-290l-118 371h-595l-118 -371h-290l526 1602h355zM492 510h519l-256 803zM1057 2045c0 -95.333 -24.666 -167.666 -73.999 -216.999s-126.333 -74 -231 -74s-181.834 25.167 -231.501 75.5s-74.5 122.166 -74.5 215.499h166
c0 -54 11.333 -93.667 34 -119s58 -38 106 -38s83.167 12.667 105.5 38s33.5 65 33.5 119h166z" />
    <glyph glyph-name="abreve" unicode="&#x103;" 
d="M615 1022c-66 0 -131.332 -9.33398 -195.999 -28.001s-124.667 -45 -180 -79l-77 174c34.667 20 69.167 37.667 103.5 53s70 28 107 38s75.833 17.667 116.5 23s84.667 8 132 8c96 0 175 -11.167 237 -33.5s111.167 -56.333 147.5 -102s61.5 -103.167 75.5 -172.5
s21 -150.666 21 -243.999v-659h-209l-39 166c-44 -66.667 -95.333 -114.834 -154 -144.501s-127.667 -44.5 -207 -44.5c-62.667 0 -119 8 -169 24s-92.5 40 -127.5 72s-61.833 71.667 -80.5 119s-28 102.333 -28 165c0 63.333 12 118.5 36 165.5s57.333 86 100 117
s93.5 54.167 152.5 69.5s123.833 23 194.5 23c34 0 65.167 -1.33301 93.5 -4s53.5 -5.83398 75.5 -9.50098s40.5 -7.16699 55.5 -10.5s25.833 -5.33301 32.5 -6c0 49.333 -1.33301 93.833 -4 133.5s-10.667 73.334 -24 101.001s-34.333 48.834 -63 63.501
s-69.334 22 -122.001 22zM564.001 166.999c49.333 0 95.5 10.665 138.5 31.998s84.833 53.333 125.5 96v267c-5.33301 0 -14.333 0.833008 -27 2.5s-27.167 3.33398 -43.5 5.00098s-33 3.16699 -50 4.5s-31.833 2 -44.5 2c-48 0 -90.5 -3 -127.5 -9s-68.333 -16.5 -94 -31.5
s-45 -35.333 -58 -61s-19.5 -58.167 -19.5 -97.5c0 -75.333 17.833 -129.166 53.5 -161.499s84.5 -48.5 146.5 -48.5zM901.001 1610c0 -95.333 -24.666 -167.666 -73.999 -216.999s-126.333 -74 -231 -74s-181.834 25.167 -231.501 75.5s-74.5 122.166 -74.5 215.499h166
c0 -54 11.333 -93.667 34 -119s58 -38 106 -38s83.167 12.667 105.5 38s33.5 65 33.5 119h166z" />
    <glyph glyph-name="Aogonek" unicode="&#x104;" horiz-adv-x="1503" 
d="M927 1602l530 -1602h-290l-118 371h-595l-118 -371h-290l526 1602h355zM492 510h519l-256 803zM1343 -555c-26 -12 -53 -22.666 -81 -31.999c-24 -8 -51.333 -15.333 -82 -22s-61.667 -10 -93 -10c-28 0 -55.333 3.83301 -82 11.5s-50.334 21 -71.001 40
s-37.167 44.833 -49.5 77.5s-18.5 74 -18.5 124c0 22.667 4.33301 45.5 13 68.5s20 45.667 34 68s30 44 48 65s36.333 40.833 55 59.5c44 43.333 94 85 150 125h126c-48.667 -54 -92 -105.333 -130 -154l-47.5 -64.5c-15.667 -21.667 -29.667 -42.834 -42 -63.501
s-22.166 -40 -29.499 -58s-11 -33.333 -11 -46c0 -23.333 3 -42.5 9 -57.5s14 -27.167 24 -36.5s21.833 -15.833 35.5 -19.5s28.167 -5.5 43.5 -5.5c22 0 44.833 3 68.5 9s45.167 12.667 64.5 20c22.667 8.66699 44.667 18.667 66 30v-129z" />
    <glyph glyph-name="aogonek" unicode="&#x105;" 
d="M615 1022c-66 0 -131.332 -9.33398 -195.999 -28.001s-124.667 -45 -180 -79l-77 174c34.667 20 69.167 37.667 103.5 53s70 28 107 38s75.833 17.667 116.5 23s84.667 8 132 8c96 0 175 -11.167 237 -33.5s111.167 -56.333 147.5 -102s61.5 -103.167 75.5 -172.5
s21 -150.666 21 -243.999v-659h-209l-39 166c-44 -66.667 -95.333 -114.834 -154 -144.501s-127.667 -44.5 -207 -44.5c-62.667 0 -119 8 -169 24s-92.5 40 -127.5 72s-61.833 71.667 -80.5 119s-28 102.333 -28 165c0 63.333 12 118.5 36 165.5s57.333 86 100 117
s93.5 54.167 152.5 69.5s123.833 23 194.5 23c34 0 65.167 -1.33301 93.5 -4s53.5 -5.83398 75.5 -9.50098s40.5 -7.16699 55.5 -10.5s25.833 -5.33301 32.5 -6c0 49.333 -1.33301 93.833 -4 133.5s-10.667 73.334 -24 101.001s-34.333 48.834 -63 63.501
s-69.334 22 -122.001 22zM564.001 166.999c49.333 0 95.5 10.665 138.5 31.998s84.833 53.333 125.5 96v267c-5.33301 0 -14.333 0.833008 -27 2.5s-27.167 3.33398 -43.5 5.00098s-33 3.16699 -50 4.5s-31.833 2 -44.5 2c-48 0 -90.5 -3 -127.5 -9s-68.333 -16.5 -94 -31.5
s-45 -35.333 -58 -61s-19.5 -58.167 -19.5 -97.5c0 -75.333 17.833 -129.166 53.5 -161.499s84.5 -48.5 146.5 -48.5zM1079 -555.003c-26 -12 -53 -22.666 -81 -31.999c-24 -8 -51.333 -15.333 -82 -22s-61.667 -10 -93 -10c-28 0 -55.333 3.83301 -82 11.5
s-50.334 21 -71.001 40s-37.167 44.833 -49.5 77.5s-18.5 74 -18.5 124c0 22.667 4.33301 45.5 13 68.5s20 45.667 34 68s30 44 48 65s36.333 40.833 55 59.5c44 43.333 94 85 150 125h126c-48.667 -54 -92 -105.333 -130 -154l-47.5 -64.5
c-15.667 -21.667 -29.667 -42.834 -42 -63.501s-22.166 -40 -29.499 -58s-11 -33.333 -11 -46c0 -23.333 3 -42.5 9 -57.5s14 -27.167 24 -36.5s21.833 -15.833 35.5 -19.5s28.167 -5.5 43.5 -5.5c22 0 44.833 3 68.5 9s45.167 12.667 64.5 20
c22.667 8.66699 44.667 18.667 66 30v-129z" />
    <glyph glyph-name="Cacute" unicode="&#x106;" horiz-adv-x="1311" 
d="M394 786c0 -98 8.49902 -184.83 25.499 -260.497s42.667 -139.334 77 -191.001s77.833 -90.834 130.5 -117.501s115 -40 187 -40c42 0 82.167 4 120.5 12s73.5 17.667 105.5 29s60.167 23.5 84.5 36.5s43.166 24.167 56.499 33.5l79 -203
c-9.33301 -8 -27.833 -18.833 -55.5 -32.5s-62 -27 -103 -40s-87.667 -24.167 -140 -33.5s-107.5 -14 -165.5 -14c-113.333 0 -213 18.667 -299 56s-158.167 91.333 -216.5 162s-102.333 157.167 -132 259.5s-44.5 218.5 -44.5 348.5c0 75.333 5.83301 148.333 17.5 219
s29.834 137.167 54.501 199.5s55.834 119.333 93.501 171s82.167 96 133.5 133s110 65.833 176 86.5s139.667 31 221 31c49.333 0 97.333 -3.16699 144 -9.5s89.667 -14.333 129 -24s74 -20.334 104 -32.001s53 -23.167 69 -34.5l-74 -207
c-16 10.667 -35.833 21.5 -59.5 32.5s-50.5 21 -80.5 30s-63.167 16.5 -99.5 22.5s-74.833 9 -115.5 9c-74 0 -137.5 -14.167 -190.5 -42.5s-96.833 -69.5 -131.5 -123.5s-60.167 -120.167 -76.5 -198.5s-24.5 -167.5 -24.5 -267.5zM584.999 1788l184 622l277 -121
l-352 -552z" />
    <glyph glyph-name="cacute" unicode="&#x107;" horiz-adv-x="1098" 
d="M646 -23c-98.667 0 -183.333 16.667 -254 50s-128.5 78 -173.5 134s-78 120.5 -99 193.5s-31.5 149.5 -31.5 229.5c0 86.667 12.5 168.167 37.5 244.5s61.333 142.833 109 199.5s106.334 101.334 176.001 134.001s149.167 49 238.5 49c44 0 84.833 -3 122.5 -9
s72.5 -14.167 104.5 -24.5s61 -22.333 87 -36s49.667 -28.167 71 -43.5l-62 -182c-15.333 13.333 -33.833 26.333 -55.5 39s-45.167 24 -70.5 34s-52.333 18 -81 24s-57.667 9 -87 9c-59.333 -3.33301 -109 -15.166 -149 -35.499s-72.333 -48.833 -97 -85.5
s-42.167 -81.334 -52.5 -134.001s-15.5 -112.334 -15.5 -179.001c0 -140.667 27 -246 81 -316s131.333 -105 232 -105c65.333 0 121 10.167 167 30.5s88.667 46.833 128 79.5l62 -183c-20 -14 -42.667 -28 -68 -42s-54 -26.5 -86 -37.5s-67.333 -20 -106 -27
s-81.334 -10.5 -128.001 -10.5zM464.001 1353l184 622l277 -121l-352 -552z" />
    <glyph glyph-name="Ccircumflex" unicode="&#x108;" horiz-adv-x="1311" 
d="M394 786c0 -98 8.49902 -184.83 25.499 -260.497s42.667 -139.334 77 -191.001s77.833 -90.834 130.5 -117.501s115 -40 187 -40c42 0 82.167 4 120.5 12s73.5 17.667 105.5 29s60.167 23.5 84.5 36.5s43.166 24.167 56.499 33.5l79 -203
c-9.33301 -8 -27.833 -18.833 -55.5 -32.5s-62 -27 -103 -40s-87.667 -24.167 -140 -33.5s-107.5 -14 -165.5 -14c-113.333 0 -213 18.667 -299 56s-158.167 91.333 -216.5 162s-102.333 157.167 -132 259.5s-44.5 218.5 -44.5 348.5c0 75.333 5.83301 148.333 17.5 219
s29.834 137.167 54.501 199.5s55.834 119.333 93.501 171s82.167 96 133.5 133s110 65.833 176 86.5s139.667 31 221 31c49.333 0 97.333 -3.16699 144 -9.5s89.667 -14.333 129 -24s74 -20.334 104 -32.001s53 -23.167 69 -34.5l-74 -207
c-16 10.667 -35.833 21.5 -59.5 32.5s-50.5 21 -80.5 30s-63.167 16.5 -99.5 22.5s-74.833 9 -115.5 9c-74 0 -137.5 -14.167 -190.5 -42.5s-96.833 -69.5 -131.5 -123.5s-60.167 -120.167 -76.5 -198.5s-24.5 -167.5 -24.5 -267.5zM772.999 2340l279 -570l-205 -39
l-164 387l-164 -387l-204 39l279 570h179z" />
    <glyph glyph-name="ccircumflex" unicode="&#x109;" horiz-adv-x="1098" 
d="M646 -23c-98.667 0 -183.333 16.667 -254 50s-128.5 78 -173.5 134s-78 120.5 -99 193.5s-31.5 149.5 -31.5 229.5c0 86.667 12.5 168.167 37.5 244.5s61.333 142.833 109 199.5s106.334 101.334 176.001 134.001s149.167 49 238.5 49c44 0 84.833 -3 122.5 -9
s72.5 -14.167 104.5 -24.5s61 -22.333 87 -36s49.667 -28.167 71 -43.5l-62 -182c-15.333 13.333 -33.833 26.333 -55.5 39s-45.167 24 -70.5 34s-52.333 18 -81 24s-57.667 9 -87 9c-59.333 -3.33301 -109 -15.166 -149 -35.499s-72.333 -48.833 -97 -85.5
s-42.167 -81.334 -52.5 -134.001s-15.5 -112.334 -15.5 -179.001c0 -140.667 27 -246 81 -316s131.333 -105 232 -105c65.333 0 121 10.167 167 30.5s88.667 46.833 128 79.5l62 -183c-20 -14 -42.667 -28 -68 -42s-54 -26.5 -86 -37.5s-67.333 -20 -106 -27
s-81.334 -10.5 -128.001 -10.5zM652.001 1905l279 -570l-205 -39l-164 387l-164 -387l-204 39l279 570h179z" />
    <glyph glyph-name="Cdotaccent" unicode="&#x10a;" horiz-adv-x="1311" 
d="M394 786c0 -98 8.49902 -184.83 25.499 -260.497s42.667 -139.334 77 -191.001s77.833 -90.834 130.5 -117.501s115 -40 187 -40c42 0 82.167 4 120.5 12s73.5 17.667 105.5 29s60.167 23.5 84.5 36.5s43.166 24.167 56.499 33.5l79 -203
c-9.33301 -8 -27.833 -18.833 -55.5 -32.5s-62 -27 -103 -40s-87.667 -24.167 -140 -33.5s-107.5 -14 -165.5 -14c-113.333 0 -213 18.667 -299 56s-158.167 91.333 -216.5 162s-102.333 157.167 -132 259.5s-44.5 218.5 -44.5 348.5c0 75.333 5.83301 148.333 17.5 219
s29.834 137.167 54.501 199.5s55.834 119.333 93.501 171s82.167 96 133.5 133s110 65.833 176 86.5s139.667 31 221 31c49.333 0 97.333 -3.16699 144 -9.5s89.667 -14.333 129 -24s74 -20.334 104 -32.001s53 -23.167 69 -34.5l-74 -207
c-16 10.667 -35.833 21.5 -59.5 32.5s-50.5 21 -80.5 30s-63.167 16.5 -99.5 22.5s-74.833 9 -115.5 9c-74 0 -137.5 -14.167 -190.5 -42.5s-96.833 -69.5 -131.5 -123.5s-60.167 -120.167 -76.5 -198.5s-24.5 -167.5 -24.5 -267.5zM504.999 2117h346v-360h-346v360z" />
    <glyph glyph-name="cdotaccent" unicode="&#x10b;" horiz-adv-x="1098" 
d="M646 -23c-98.667 0 -183.333 16.667 -254 50s-128.5 78 -173.5 134s-78 120.5 -99 193.5s-31.5 149.5 -31.5 229.5c0 86.667 12.5 168.167 37.5 244.5s61.333 142.833 109 199.5s106.334 101.334 176.001 134.001s149.167 49 238.5 49c44 0 84.833 -3 122.5 -9
s72.5 -14.167 104.5 -24.5s61 -22.333 87 -36s49.667 -28.167 71 -43.5l-62 -182c-15.333 13.333 -33.833 26.333 -55.5 39s-45.167 24 -70.5 34s-52.333 18 -81 24s-57.667 9 -87 9c-59.333 -3.33301 -109 -15.166 -149 -35.499s-72.333 -48.833 -97 -85.5
s-42.167 -81.334 -52.5 -134.001s-15.5 -112.334 -15.5 -179.001c0 -140.667 27 -246 81 -316s131.333 -105 232 -105c65.333 0 121 10.167 167 30.5s88.667 46.833 128 79.5l62 -183c-20 -14 -42.667 -28 -68 -42s-54 -26.5 -86 -37.5s-67.333 -20 -106 -27
s-81.334 -10.5 -128.001 -10.5zM384.001 1682h346v-360h-346v360z" />
    <glyph glyph-name="Ccaron" unicode="&#x10c;" horiz-adv-x="1311" 
d="M394 786c0 -98 8.49902 -184.83 25.499 -260.497s42.667 -139.334 77 -191.001s77.833 -90.834 130.5 -117.501s115 -40 187 -40c42 0 82.167 4 120.5 12s73.5 17.667 105.5 29s60.167 23.5 84.5 36.5s43.166 24.167 56.499 33.5l79 -203
c-9.33301 -8 -27.833 -18.833 -55.5 -32.5s-62 -27 -103 -40s-87.667 -24.167 -140 -33.5s-107.5 -14 -165.5 -14c-113.333 0 -213 18.667 -299 56s-158.167 91.333 -216.5 162s-102.333 157.167 -132 259.5s-44.5 218.5 -44.5 348.5c0 75.333 5.83301 148.333 17.5 219
s29.834 137.167 54.501 199.5s55.834 119.333 93.501 171s82.167 96 133.5 133s110 65.833 176 86.5s139.667 31 221 31c49.333 0 97.333 -3.16699 144 -9.5s89.667 -14.333 129 -24s74 -20.334 104 -32.001s53 -23.167 69 -34.5l-74 -207
c-16 10.667 -35.833 21.5 -59.5 32.5s-50.5 21 -80.5 30s-63.167 16.5 -99.5 22.5s-74.833 9 -115.5 9c-74 0 -137.5 -14.167 -190.5 -42.5s-96.833 -69.5 -131.5 -123.5s-60.167 -120.167 -76.5 -198.5s-24.5 -167.5 -24.5 -267.5zM593.999 1742l-279 570l205 39l164 -387
l164 387l204 -39l-279 -570h-179z" />
    <glyph glyph-name="ccaron" unicode="&#x10d;" horiz-adv-x="1098" 
d="M646 -23c-98.667 0 -183.333 16.667 -254 50s-128.5 78 -173.5 134s-78 120.5 -99 193.5s-31.5 149.5 -31.5 229.5c0 86.667 12.5 168.167 37.5 244.5s61.333 142.833 109 199.5s106.334 101.334 176.001 134.001s149.167 49 238.5 49c44 0 84.833 -3 122.5 -9
s72.5 -14.167 104.5 -24.5s61 -22.333 87 -36s49.667 -28.167 71 -43.5l-62 -182c-15.333 13.333 -33.833 26.333 -55.5 39s-45.167 24 -70.5 34s-52.333 18 -81 24s-57.667 9 -87 9c-59.333 -3.33301 -109 -15.166 -149 -35.499s-72.333 -48.833 -97 -85.5
s-42.167 -81.334 -52.5 -134.001s-15.5 -112.334 -15.5 -179.001c0 -140.667 27 -246 81 -316s131.333 -105 232 -105c65.333 0 121 10.167 167 30.5s88.667 46.833 128 79.5l62 -183c-20 -14 -42.667 -28 -68 -42s-54 -26.5 -86 -37.5s-67.333 -20 -106 -27
s-81.334 -10.5 -128.001 -10.5zM473.001 1307l-279 570l205 39l164 -387l164 387l204 -39l-279 -570h-179z" />
    <glyph glyph-name="Dcaron" unicode="&#x10e;" horiz-adv-x="1545" 
d="M1149 799c0 96.667 -7.5 183.001 -22.5 259.001s-40.333 140 -76 192s-83.5 91.667 -143.5 119s-135 41 -225 41h-240v-1218h229c86 0 159.333 13.667 220 41s110 67 148 119s65.833 115.667 83.5 191s26.5 160.666 26.5 255.999zM1440 800.001
c0 -118.667 -13.167 -227 -39.5 -325s-69.166 -182.167 -128.499 -252.5s-136.833 -125 -232.5 -164s-212.834 -58.5 -351.501 -58.5h-531v1602h522c252.667 0 442.667 -65.167 570 -195.5s191 -332.5 191 -606.5zM709 1742l-279 570l205 39l164 -387l164 387l204 -39
l-279 -570h-179z" />
    <glyph glyph-name="dcaron" unicode="&#x10f;" horiz-adv-x="1845" 
d="M359 594c0 -76.667 5.83301 -142 17.5 -196s28.5 -98.167 50.5 -132.5s48.667 -59.333 80 -75s66.333 -23.5 105 -23.5c53.333 0 104.333 10 153 30s90.667 51 126 93v602c-49.333 39.333 -98 70.833 -146 94.5s-98.667 35.5 -152 35.5c-45.333 0 -83 -10.167 -113 -30.5
s-54 -49.166 -72 -86.499s-30.667 -82.333 -38 -135s-11 -111.334 -11 -176.001zM542 1211c72.667 0 138.001 -13 196.001 -39s109 -66 153 -120v601l275 43v-1696h-197l-53 175c-16 -28.667 -36.5 -55.167 -61.5 -79.5s-52.833 -45.166 -83.5 -62.499
s-63.334 -31 -98.001 -41s-70 -15 -106 -15c-87.333 0 -161.333 17.167 -222 51.5s-110 81 -148 140s-65.667 127.667 -83 206s-26 161.833 -26 250.5c0 79.333 10.5 154.5 31.5 225.5s51 133.167 90 186.5s86.667 95.666 143 126.999s119.5 47 189.5 47zM1398 1602h346.001
v-311c0 -49.333 -7.83301 -92.333 -23.5 -129s-37 -68.167 -64 -94.5s-58.5 -48.333 -94.5 -66s-74.333 -32.5 -115 -44.5l-48 106c28.667 10 53 20.5 73 31.5s36.167 23.5 48.5 37.5s21.166 29.833 26.499 47.5s8 38.5 8 62.5h-157v360z" />
    <glyph glyph-name="Dcroat" unicode="&#x110;" horiz-adv-x="1545" 
d="M1149 799c0 96.667 -7.5 183.001 -22.5 259.001s-40.333 140 -76 192s-83.5 91.667 -143.5 119s-135 41 -225 41h-240v-1218h229c86 0 159.333 13.667 220 41s110 67 148 119s65.833 115.667 83.5 191s26.5 160.666 26.5 255.999zM1440 800.001
c0 -118.667 -13.167 -227 -39.5 -325s-69.166 -182.167 -128.499 -252.5s-136.833 -125 -232.5 -164s-212.834 -58.5 -351.501 -58.5h-531v1602h522c252.667 0 442.667 -65.167 570 -195.5s191 -332.5 191 -606.5zM3 750.001v202h564v-202h-564z" />
    <glyph glyph-name="dcroat" unicode="&#x111;" horiz-adv-x="1312" 
d="M359 594c0 -76.667 5.83301 -142 17.5 -196s28.5 -98.167 50.5 -132.5s48.667 -59.333 80 -75s66.333 -23.5 105 -23.5c53.333 0 104.333 10 153 30s90.667 51 126 93v602c-49.333 39.333 -98 70.833 -146 94.5s-98.667 35.5 -152 35.5c-45.333 0 -83 -10.167 -113 -30.5
s-54 -49.166 -72 -86.499s-30.667 -82.333 -38 -135s-11 -111.334 -11 -176.001zM542 1211c72.667 0 138.001 -13 196.001 -39s109 -66 153 -120v601l275 43v-1696h-197l-53 175c-16 -28.667 -36.5 -55.167 -61.5 -79.5s-52.833 -45.166 -83.5 -62.499
s-63.334 -31 -98.001 -41s-70 -15 -106 -15c-87.333 0 -161.333 17.167 -222 51.5s-110 81 -148 140s-65.667 127.667 -83 206s-26 161.833 -26 250.5c0 79.333 10.5 154.5 31.5 225.5s51 133.167 90 186.5s86.667 95.666 143 126.999s119.5 47 189.5 47zM564.001 1311v214
h747v-214h-747z" />
    <glyph glyph-name="Emacron" unicode="&#x112;" horiz-adv-x="1266" 
d="M155 0v1602h1036v-192h-749v-486h654v-174h-654v-561h761v-189h-1048zM402 1814v202h564v-202h-564z" />
    <glyph glyph-name="emacron" unicode="&#x113;" horiz-adv-x="1193" 
d="M1053 86c-29.333 -18 -60.6738 -33.668 -94.0068 -47.001s-67.166 -24.666 -101.499 -33.999s-68.166 -16.333 -101.499 -21s-64.666 -7 -93.999 -7c-91.333 0 -172.5 13.833 -243.5 41.5s-131 67.334 -180 119.001s-86.333 114 -112 187s-38.5 154.833 -38.5 245.5
c0 92.667 11.667 178.167 35 256.5s57.833 146 103.5 203s102.334 101.5 170.001 133.5s145.5 48 233.5 48c78 0 146.833 -12.5 206.5 -37.5s109.834 -60.5 150.501 -106.5s71.334 -101.333 92.001 -166s31 -136.667 31 -216c0 -24.667 -0.333008 -49 -1 -73
s-1.66699 -47.333 -3 -70h-738c0.666992 -64.667 8.33398 -120.667 23.001 -168s35.5 -86.333 62.5 -117s60 -53.334 99 -68.001s82.833 -22 131.5 -22c62 0 116.667 8.83301 164 26.5s94 44.167 140 79.5zM878.992 705.999c0 104 -21 182.333 -63 235
s-100.333 79.667 -175 81c-45.333 -1.33301 -84.5 -10.833 -117.5 -28.5s-60.667 -41.5 -83 -71.5s-39.5 -65 -51.5 -105s-19 -82.667 -21 -128h511v17zM321.992 1379v202h564v-202h-564z" />
    <glyph glyph-name="Edotaccent" unicode="&#x116;" horiz-adv-x="1266" 
d="M155 0v1602h1036v-192h-749v-486h654v-174h-654v-561h761v-189h-1048zM502 2117h346v-360h-346v360z" />
    <glyph glyph-name="edotaccent" unicode="&#x117;" horiz-adv-x="1193" 
d="M1053 86c-29.333 -18 -60.6738 -33.668 -94.0068 -47.001s-67.166 -24.666 -101.499 -33.999s-68.166 -16.333 -101.499 -21s-64.666 -7 -93.999 -7c-91.333 0 -172.5 13.833 -243.5 41.5s-131 67.334 -180 119.001s-86.333 114 -112 187s-38.5 154.833 -38.5 245.5
c0 92.667 11.667 178.167 35 256.5s57.833 146 103.5 203s102.334 101.5 170.001 133.5s145.5 48 233.5 48c78 0 146.833 -12.5 206.5 -37.5s109.834 -60.5 150.501 -106.5s71.334 -101.333 92.001 -166s31 -136.667 31 -216c0 -24.667 -0.333008 -49 -1 -73
s-1.66699 -47.333 -3 -70h-738c0.666992 -64.667 8.33398 -120.667 23.001 -168s35.5 -86.333 62.5 -117s60 -53.334 99 -68.001s82.833 -22 131.5 -22c62 0 116.667 8.83301 164 26.5s94 44.167 140 79.5zM878.992 705.999c0 104 -21 182.333 -63 235
s-100.333 79.667 -175 81c-45.333 -1.33301 -84.5 -10.833 -117.5 -28.5s-60.667 -41.5 -83 -71.5s-39.5 -65 -51.5 -105s-19 -82.667 -21 -128h511v17zM421.992 1682h346v-360h-346v360z" />
    <glyph glyph-name="Eogonek" unicode="&#x118;" horiz-adv-x="1266" 
d="M155 0v1602h1036v-192h-749v-486h654v-174h-654v-561h761v-189h-1048zM962 -555c-26 -12 -53 -22.666 -81 -31.999c-24 -8 -51.333 -15.333 -82 -22s-61.667 -10 -93 -10c-28 0 -55.333 3.83301 -82 11.5s-50.334 21 -71.001 40s-37.167 44.833 -49.5 77.5
s-18.5 74 -18.5 124c0 22.667 4.33301 45.5 13 68.5s20 45.667 34 68s30 44 48 65s36.333 40.833 55 59.5c44 43.333 94 85 150 125h126c-48.667 -54 -92 -105.333 -130 -154l-47.5 -64.5c-15.667 -21.667 -29.667 -42.834 -42 -63.501s-22.166 -40 -29.499 -58
s-11 -33.333 -11 -46c0 -23.333 3 -42.5 9 -57.5s14 -27.167 24 -36.5s21.833 -15.833 35.5 -19.5s28.167 -5.5 43.5 -5.5c22 0 44.833 3 68.5 9s45.167 12.667 64.5 20c22.667 8.66699 44.667 18.667 66 30v-129z" />
    <glyph glyph-name="eogonek" unicode="&#x119;" horiz-adv-x="1193" 
d="M1053 86c-29.333 -18 -60.6738 -33.668 -94.0068 -47.001s-67.166 -24.666 -101.499 -33.999s-68.166 -16.333 -101.499 -21s-64.666 -7 -93.999 -7c-91.333 0 -172.5 13.833 -243.5 41.5s-131 67.334 -180 119.001s-86.333 114 -112 187s-38.5 154.833 -38.5 245.5
c0 92.667 11.667 178.167 35 256.5s57.833 146 103.5 203s102.334 101.5 170.001 133.5s145.5 48 233.5 48c78 0 146.833 -12.5 206.5 -37.5s109.834 -60.5 150.501 -106.5s71.334 -101.333 92.001 -166s31 -136.667 31 -216c0 -24.667 -0.333008 -49 -1 -73
s-1.66699 -47.333 -3 -70h-738c0.666992 -64.667 8.33398 -120.667 23.001 -168s35.5 -86.333 62.5 -117s60 -53.334 99 -68.001s82.833 -22 131.5 -22c62 0 116.667 8.83301 164 26.5s94 44.167 140 79.5zM878.992 705.999c0 104 -21 182.333 -63 235
s-100.333 79.667 -175 81c-45.333 -1.33301 -84.5 -10.833 -117.5 -28.5s-60.667 -41.5 -83 -71.5s-39.5 -65 -51.5 -105s-19 -82.667 -21 -128h511v17zM924.992 -555.001c-26 -12 -53 -22.666 -81 -31.999c-24 -8 -51.333 -15.333 -82 -22s-61.667 -10 -93 -10
c-28 0 -55.333 3.83301 -82 11.5s-50.334 21 -71.001 40s-37.167 44.833 -49.5 77.5s-18.5 74 -18.5 124c0 22.667 4.33301 45.5 13 68.5s20 45.667 34 68s30 44 48 65s36.333 40.833 55 59.5c44 43.333 94 85 150 125h126c-48.667 -54 -92 -105.333 -130 -154l-47.5 -64.5
c-15.667 -21.667 -29.667 -42.834 -42 -63.501s-22.166 -40 -29.499 -58s-11 -33.333 -11 -46c0 -23.333 3 -42.5 9 -57.5s14 -27.167 24 -36.5s21.833 -15.833 35.5 -19.5s28.167 -5.5 43.5 -5.5c22 0 44.833 3 68.5 9s45.167 12.667 64.5 20
c22.667 8.66699 44.667 18.667 66 30v-129z" />
    <glyph glyph-name="Ecaron" unicode="&#x11a;" horiz-adv-x="1266" 
d="M155 0v1602h1036v-192h-749v-486h654v-174h-654v-561h761v-189h-1048zM591 1742l-279 570l205 39l164 -387l164 387l204 -39l-279 -570h-179z" />
    <glyph glyph-name="ecaron" unicode="&#x11b;" horiz-adv-x="1193" 
d="M1053 86c-29.333 -18 -60.6738 -33.668 -94.0068 -47.001s-67.166 -24.666 -101.499 -33.999s-68.166 -16.333 -101.499 -21s-64.666 -7 -93.999 -7c-91.333 0 -172.5 13.833 -243.5 41.5s-131 67.334 -180 119.001s-86.333 114 -112 187s-38.5 154.833 -38.5 245.5
c0 92.667 11.667 178.167 35 256.5s57.833 146 103.5 203s102.334 101.5 170.001 133.5s145.5 48 233.5 48c78 0 146.833 -12.5 206.5 -37.5s109.834 -60.5 150.501 -106.5s71.334 -101.333 92.001 -166s31 -136.667 31 -216c0 -24.667 -0.333008 -49 -1 -73
s-1.66699 -47.333 -3 -70h-738c0.666992 -64.667 8.33398 -120.667 23.001 -168s35.5 -86.333 62.5 -117s60 -53.334 99 -68.001s82.833 -22 131.5 -22c62 0 116.667 8.83301 164 26.5s94 44.167 140 79.5zM878.992 705.999c0 104 -21 182.333 -63 235
s-100.333 79.667 -175 81c-45.333 -1.33301 -84.5 -10.833 -117.5 -28.5s-60.667 -41.5 -83 -71.5s-39.5 -65 -51.5 -105s-19 -82.667 -21 -128h511v17zM510.992 1307l-279 570l205 39l164 -387l164 387l204 -39l-279 -570h-179z" />
    <glyph glyph-name="Gcircumflex" unicode="&#x11c;" horiz-adv-x="1545" 
d="M1152 679l-389.997 -0.000976562v179h645v-858h-166l-52 171c-10.667 -30 -27.667 -57.667 -51 -83s-52.666 -47.166 -87.999 -65.499s-76.333 -32.5 -123 -42.5s-98.667 -15 -156 -15c-106.667 0 -201.334 19 -284.001 57s-152.334 92.5 -209.001 163.5
s-99.834 157.5 -129.501 259.5s-44.5 216.667 -44.5 344c0 136.667 16.5 257.334 49.5 362.001s80.833 192.5 143.5 263.5s139.5 124.833 230.5 161.5s194.5 55 310.5 55c53.333 0 103.166 -3.5 149.499 -10.5s89.333 -16.5 129 -28.5s75.5 -26 107.5 -42s60.667 -33 86 -51
l-88 -194c-24 14.667 -50.5 28.834 -79.5 42.501s-60 25.667 -93 36s-67.333 18.666 -103 24.999s-72.5 9.5 -110.5 9.5c-142 0 -251 -51.833 -327 -155.5s-114 -260.834 -114 -471.501c0 -92.667 7.33301 -176.667 22 -252s38 -139.833 70 -193.5s73.5 -95 124.5 -124
s112.833 -43.5 185.5 -43.5c44 0 85.333 3.33301 124 10s73.5 17 104.5 31s57.333 32.333 79 55s37.5 50 47.5 82v323zM845.003 2340l279 -570l-205 -39l-164 387l-164 -387l-204 39l279 570h179z" />
    <glyph glyph-name="gcircumflex" unicode="&#x11d;" horiz-adv-x="1276" 
d="M580 -295c73.333 0 134.999 2.83008 184.999 8.49707s90.5 15.667 121.5 30s53.333 33.833 67 58.5s20.5 56.334 20.5 95.001c0 43.333 -10.167 76.333 -30.5 99s-51.166 39.334 -92.499 50.001s-94 17.667 -158 21s-139.333 7 -226 11
c-17.333 -9.33301 -34.333 -21.666 -51 -36.999s-31.5 -32.5 -44.5 -51.5s-23.667 -39.667 -32 -62s-12.5 -45.5 -12.5 -69.5c0 -32 6.5 -58 19.5 -78s30.833 -35.5 53.5 -46.5s49.5 -18.5 80.5 -22.5s64.167 -6 99.5 -6zM656.999 610.997
c26.667 4.66699 51.5 12.335 74.5 23.002s43.167 25.167 60.5 43.5s31 41.166 41 68.499s15 60 15 98c0 65.333 -18.167 111.666 -54.5 138.999s-91.833 41 -166.5 41c-34 0 -65.167 -3 -93.5 -9s-52.5 -16.167 -72.5 -30.5s-35.5 -34 -46.5 -59s-16.5 -56.5 -16.5 -94.5
c0 -26 3.5 -51 10.5 -75s16.833 -46.167 29.5 -66.5s27.5 -38.333 44.5 -54s35.167 -28.5 54.5 -38.5zM1006 1011c24 -30 42.332 -57.498 54.999 -82.498s19 -50.833 19 -77.5c0 -48 -6.5 -93.833 -19.5 -137.5s-34.5 -83.167 -64.5 -118.5s-69.833 -65.333 -119.5 -90
s-111.5 -42 -185.5 -52l-331 -47l18 -136l283 -10c94.667 -4 176.5 -13.5 245.5 -28.5s126.167 -37.167 171.5 -66.5s79 -66.5 101 -111.5s33 -99.5 33 -163.5c0 -72 -14.333 -132.833 -43 -182.5s-70 -90 -124 -121s-120.167 -53.5 -198.5 -67.5s-167.5 -21 -267.5 -21
c-157.333 0 -275.833 27.333 -355.5 82s-119.5 143.667 -119.5 267c0 31.333 5.33301 60.5 16 87.5s25.334 51.667 44.001 74s40.334 42.166 65.001 59.499s50.667 32 78 44c-27.333 4 -51.333 11.667 -72 23s-38 27.333 -52 48s-24.5 46.334 -31.5 77.001
s-10.5 67.667 -10.5 111c0 31.333 6.5 57.166 19.5 77.499s30.167 37.166 51.5 50.499s46.166 24 74.499 32s57.5 15.667 87.5 23c-29.333 4 -57.166 13.5 -83.499 28.5s-49.333 34.5 -69 58.5s-35.334 52.333 -47.001 85s-17.5 68.667 -17.5 108
c0 58.667 10.5 111.167 31.5 157.5s51.167 85.833 90.5 118.5s87 57.667 143 75s119.333 26 190 26c64 0 120.333 -5.5 169 -16.5s90 -28.5 124 -52.5c25.333 12 48.833 21.833 70.5 29.5s44 13.667 67 18s47.833 7.33301 74.5 9s58 2.5 94 2.5h41v-190h-246zM768.998 1905
l279 -570l-205 -39l-164 387l-164 -387l-204 39l279 570h179z" />
    <glyph glyph-name="Gbreve" unicode="&#x11e;" horiz-adv-x="1545" 
d="M1152 679l-389.997 -0.000976562v179h645v-858h-166l-52 171c-10.667 -30 -27.667 -57.667 -51 -83s-52.666 -47.166 -87.999 -65.499s-76.333 -32.5 -123 -42.5s-98.667 -15 -156 -15c-106.667 0 -201.334 19 -284.001 57s-152.334 92.5 -209.001 163.5
s-99.834 157.5 -129.501 259.5s-44.5 216.667 -44.5 344c0 136.667 16.5 257.334 49.5 362.001s80.833 192.5 143.5 263.5s139.5 124.833 230.5 161.5s194.5 55 310.5 55c53.333 0 103.166 -3.5 149.499 -10.5s89.333 -16.5 129 -28.5s75.5 -26 107.5 -42s60.667 -33 86 -51
l-88 -194c-24 14.667 -50.5 28.834 -79.5 42.501s-60 25.667 -93 36s-67.333 18.666 -103 24.999s-72.5 9.5 -110.5 9.5c-142 0 -251 -51.833 -327 -155.5s-114 -260.834 -114 -471.501c0 -92.667 7.33301 -176.667 22 -252s38 -139.833 70 -193.5s73.5 -95 124.5 -124
s112.833 -43.5 185.5 -43.5c44 0 85.333 3.33301 124 10s73.5 17 104.5 31s57.333 32.333 79 55s37.5 50 47.5 82v323zM1061 2045c0 -95.333 -24.666 -167.666 -73.999 -216.999s-126.333 -74 -231 -74s-181.834 25.167 -231.501 75.5s-74.5 122.166 -74.5 215.499h166
c0 -54 11.333 -93.667 34 -119s58 -38 106 -38s83.167 12.667 105.5 38s33.5 65 33.5 119h166z" />
    <glyph glyph-name="gbreve" unicode="&#x11f;" horiz-adv-x="1276" 
d="M580 -295c73.333 0 134.999 2.83008 184.999 8.49707s90.5 15.667 121.5 30s53.333 33.833 67 58.5s20.5 56.334 20.5 95.001c0 43.333 -10.167 76.333 -30.5 99s-51.166 39.334 -92.499 50.001s-94 17.667 -158 21s-139.333 7 -226 11
c-17.333 -9.33301 -34.333 -21.666 -51 -36.999s-31.5 -32.5 -44.5 -51.5s-23.667 -39.667 -32 -62s-12.5 -45.5 -12.5 -69.5c0 -32 6.5 -58 19.5 -78s30.833 -35.5 53.5 -46.5s49.5 -18.5 80.5 -22.5s64.167 -6 99.5 -6zM656.999 610.997
c26.667 4.66699 51.5 12.335 74.5 23.002s43.167 25.167 60.5 43.5s31 41.166 41 68.499s15 60 15 98c0 65.333 -18.167 111.666 -54.5 138.999s-91.833 41 -166.5 41c-34 0 -65.167 -3 -93.5 -9s-52.5 -16.167 -72.5 -30.5s-35.5 -34 -46.5 -59s-16.5 -56.5 -16.5 -94.5
c0 -26 3.5 -51 10.5 -75s16.833 -46.167 29.5 -66.5s27.5 -38.333 44.5 -54s35.167 -28.5 54.5 -38.5zM1006 1011c24 -30 42.332 -57.498 54.999 -82.498s19 -50.833 19 -77.5c0 -48 -6.5 -93.833 -19.5 -137.5s-34.5 -83.167 -64.5 -118.5s-69.833 -65.333 -119.5 -90
s-111.5 -42 -185.5 -52l-331 -47l18 -136l283 -10c94.667 -4 176.5 -13.5 245.5 -28.5s126.167 -37.167 171.5 -66.5s79 -66.5 101 -111.5s33 -99.5 33 -163.5c0 -72 -14.333 -132.833 -43 -182.5s-70 -90 -124 -121s-120.167 -53.5 -198.5 -67.5s-167.5 -21 -267.5 -21
c-157.333 0 -275.833 27.333 -355.5 82s-119.5 143.667 -119.5 267c0 31.333 5.33301 60.5 16 87.5s25.334 51.667 44.001 74s40.334 42.166 65.001 59.499s50.667 32 78 44c-27.333 4 -51.333 11.667 -72 23s-38 27.333 -52 48s-24.5 46.334 -31.5 77.001
s-10.5 67.667 -10.5 111c0 31.333 6.5 57.166 19.5 77.499s30.167 37.166 51.5 50.499s46.166 24 74.499 32s57.5 15.667 87.5 23c-29.333 4 -57.166 13.5 -83.499 28.5s-49.333 34.5 -69 58.5s-35.334 52.333 -47.001 85s-17.5 68.667 -17.5 108
c0 58.667 10.5 111.167 31.5 157.5s51.167 85.833 90.5 118.5s87 57.667 143 75s119.333 26 190 26c64 0 120.333 -5.5 169 -16.5s90 -28.5 124 -52.5c25.333 12 48.833 21.833 70.5 29.5s44 13.667 67 18s47.833 7.33301 74.5 9s58 2.5 94 2.5h41v-190h-246zM983.998 1610
c0 -95.333 -24.666 -167.666 -73.999 -216.999s-126.333 -74 -231 -74s-181.834 25.167 -231.501 75.5s-74.5 122.166 -74.5 215.499h166c0 -54 11.333 -93.667 34 -119s58 -38 106 -38s83.167 12.667 105.5 38s33.5 65 33.5 119h166z" />
    <glyph glyph-name="Gdotaccent" unicode="&#x120;" horiz-adv-x="1545" 
d="M1152 679l-389.997 -0.000976562v179h645v-858h-166l-52 171c-10.667 -30 -27.667 -57.667 -51 -83s-52.666 -47.166 -87.999 -65.499s-76.333 -32.5 -123 -42.5s-98.667 -15 -156 -15c-106.667 0 -201.334 19 -284.001 57s-152.334 92.5 -209.001 163.5
s-99.834 157.5 -129.501 259.5s-44.5 216.667 -44.5 344c0 136.667 16.5 257.334 49.5 362.001s80.833 192.5 143.5 263.5s139.5 124.833 230.5 161.5s194.5 55 310.5 55c53.333 0 103.166 -3.5 149.499 -10.5s89.333 -16.5 129 -28.5s75.5 -26 107.5 -42s60.667 -33 86 -51
l-88 -194c-24 14.667 -50.5 28.834 -79.5 42.501s-60 25.667 -93 36s-67.333 18.666 -103 24.999s-72.5 9.5 -110.5 9.5c-142 0 -251 -51.833 -327 -155.5s-114 -260.834 -114 -471.501c0 -92.667 7.33301 -176.667 22 -252s38 -139.833 70 -193.5s73.5 -95 124.5 -124
s112.833 -43.5 185.5 -43.5c44 0 85.333 3.33301 124 10s73.5 17 104.5 31s57.333 32.333 79 55s37.5 50 47.5 82v323zM578.003 2117h346v-360h-346v360z" />
    <glyph glyph-name="gdotaccent" unicode="&#x121;" horiz-adv-x="1276" 
d="M580 -295c73.333 0 134.999 2.83008 184.999 8.49707s90.5 15.667 121.5 30s53.333 33.833 67 58.5s20.5 56.334 20.5 95.001c0 43.333 -10.167 76.333 -30.5 99s-51.166 39.334 -92.499 50.001s-94 17.667 -158 21s-139.333 7 -226 11
c-17.333 -9.33301 -34.333 -21.666 -51 -36.999s-31.5 -32.5 -44.5 -51.5s-23.667 -39.667 -32 -62s-12.5 -45.5 -12.5 -69.5c0 -32 6.5 -58 19.5 -78s30.833 -35.5 53.5 -46.5s49.5 -18.5 80.5 -22.5s64.167 -6 99.5 -6zM656.999 610.997
c26.667 4.66699 51.5 12.335 74.5 23.002s43.167 25.167 60.5 43.5s31 41.166 41 68.499s15 60 15 98c0 65.333 -18.167 111.666 -54.5 138.999s-91.833 41 -166.5 41c-34 0 -65.167 -3 -93.5 -9s-52.5 -16.167 -72.5 -30.5s-35.5 -34 -46.5 -59s-16.5 -56.5 -16.5 -94.5
c0 -26 3.5 -51 10.5 -75s16.833 -46.167 29.5 -66.5s27.5 -38.333 44.5 -54s35.167 -28.5 54.5 -38.5zM1006 1011c24 -30 42.332 -57.498 54.999 -82.498s19 -50.833 19 -77.5c0 -48 -6.5 -93.833 -19.5 -137.5s-34.5 -83.167 -64.5 -118.5s-69.833 -65.333 -119.5 -90
s-111.5 -42 -185.5 -52l-331 -47l18 -136l283 -10c94.667 -4 176.5 -13.5 245.5 -28.5s126.167 -37.167 171.5 -66.5s79 -66.5 101 -111.5s33 -99.5 33 -163.5c0 -72 -14.333 -132.833 -43 -182.5s-70 -90 -124 -121s-120.167 -53.5 -198.5 -67.5s-167.5 -21 -267.5 -21
c-157.333 0 -275.833 27.333 -355.5 82s-119.5 143.667 -119.5 267c0 31.333 5.33301 60.5 16 87.5s25.334 51.667 44.001 74s40.334 42.166 65.001 59.499s50.667 32 78 44c-27.333 4 -51.333 11.667 -72 23s-38 27.333 -52 48s-24.5 46.334 -31.5 77.001
s-10.5 67.667 -10.5 111c0 31.333 6.5 57.166 19.5 77.499s30.167 37.166 51.5 50.499s46.166 24 74.499 32s57.5 15.667 87.5 23c-29.333 4 -57.166 13.5 -83.499 28.5s-49.333 34.5 -69 58.5s-35.334 52.333 -47.001 85s-17.5 68.667 -17.5 108
c0 58.667 10.5 111.167 31.5 157.5s51.167 85.833 90.5 118.5s87 57.667 143 75s119.333 26 190 26c64 0 120.333 -5.5 169 -16.5s90 -28.5 124 -52.5c25.333 12 48.833 21.833 70.5 29.5s44 13.667 67 18s47.833 7.33301 74.5 9s58 2.5 94 2.5h41v-190h-246zM500.998 1682
h346v-360h-346v360z" />
    <glyph glyph-name="Gcommaaccent" unicode="&#x122;" horiz-adv-x="1545" 
d="M1152 679l-389.997 -0.000976562v179h645v-858h-166l-52 171c-10.667 -30 -27.667 -57.667 -51 -83s-52.666 -47.166 -87.999 -65.499s-76.333 -32.5 -123 -42.5s-98.667 -15 -156 -15c-106.667 0 -201.334 19 -284.001 57s-152.334 92.5 -209.001 163.5
s-99.834 157.5 -129.501 259.5s-44.5 216.667 -44.5 344c0 136.667 16.5 257.334 49.5 362.001s80.833 192.5 143.5 263.5s139.5 124.833 230.5 161.5s194.5 55 310.5 55c53.333 0 103.166 -3.5 149.499 -10.5s89.333 -16.5 129 -28.5s75.5 -26 107.5 -42s60.667 -33 86 -51
l-88 -194c-24 14.667 -50.5 28.834 -79.5 42.501s-60 25.667 -93 36s-67.333 18.666 -103 24.999s-72.5 9.5 -110.5 9.5c-142 0 -251 -51.833 -327 -155.5s-114 -260.834 -114 -471.501c0 -92.667 7.33301 -176.667 22 -252s38 -139.833 70 -193.5s73.5 -95 124.5 -124
s112.833 -43.5 185.5 -43.5c44 0 85.333 3.33301 124 10s73.5 17 104.5 31s57.333 32.333 79 55s37.5 50 47.5 82v323zM567.003 -110.001h346.001v-311c0 -50 -8 -93.333 -24 -130s-37.5 -68 -64.5 -94s-58.5 -47.833 -94.5 -65.5s-74 -32.5 -114 -44.5l-48 106
c28.667 10 53 20.5 73 31.5s36.167 23.5 48.5 37.5s21.166 29.833 26.499 47.5s8 38.5 8 62.5h-157v360z" />
    <glyph glyph-name="gcommaaccent" unicode="&#x123;" horiz-adv-x="1276" 
d="M580 -295c73.333 0 134.999 2.83008 184.999 8.49707s90.5 15.667 121.5 30s53.333 33.833 67 58.5s20.5 56.334 20.5 95.001c0 43.333 -10.167 76.333 -30.5 99s-51.166 39.334 -92.499 50.001s-94 17.667 -158 21s-139.333 7 -226 11
c-17.333 -9.33301 -34.333 -21.666 -51 -36.999s-31.5 -32.5 -44.5 -51.5s-23.667 -39.667 -32 -62s-12.5 -45.5 -12.5 -69.5c0 -32 6.5 -58 19.5 -78s30.833 -35.5 53.5 -46.5s49.5 -18.5 80.5 -22.5s64.167 -6 99.5 -6zM656.999 610.997
c26.667 4.66699 51.5 12.335 74.5 23.002s43.167 25.167 60.5 43.5s31 41.166 41 68.499s15 60 15 98c0 65.333 -18.167 111.666 -54.5 138.999s-91.833 41 -166.5 41c-34 0 -65.167 -3 -93.5 -9s-52.5 -16.167 -72.5 -30.5s-35.5 -34 -46.5 -59s-16.5 -56.5 -16.5 -94.5
c0 -26 3.5 -51 10.5 -75s16.833 -46.167 29.5 -66.5s27.5 -38.333 44.5 -54s35.167 -28.5 54.5 -38.5zM1006 1011c24 -30 42.332 -57.498 54.999 -82.498s19 -50.833 19 -77.5c0 -48 -6.5 -93.833 -19.5 -137.5s-34.5 -83.167 -64.5 -118.5s-69.833 -65.333 -119.5 -90
s-111.5 -42 -185.5 -52l-331 -47l18 -136l283 -10c94.667 -4 176.5 -13.5 245.5 -28.5s126.167 -37.167 171.5 -66.5s79 -66.5 101 -111.5s33 -99.5 33 -163.5c0 -72 -14.333 -132.833 -43 -182.5s-70 -90 -124 -121s-120.167 -53.5 -198.5 -67.5s-167.5 -21 -267.5 -21
c-157.333 0 -275.833 27.333 -355.5 82s-119.5 143.667 -119.5 267c0 31.333 5.33301 60.5 16 87.5s25.334 51.667 44.001 74s40.334 42.166 65.001 59.499s50.667 32 78 44c-27.333 4 -51.333 11.667 -72 23s-38 27.333 -52 48s-24.5 46.334 -31.5 77.001
s-10.5 67.667 -10.5 111c0 31.333 6.5 57.166 19.5 77.499s30.167 37.166 51.5 50.499s46.166 24 74.499 32s57.5 15.667 87.5 23c-29.333 4 -57.166 13.5 -83.499 28.5s-49.333 34.5 -69 58.5s-35.334 52.333 -47.001 85s-17.5 68.667 -17.5 108
c0 58.667 10.5 111.167 31.5 157.5s51.167 85.833 90.5 118.5s87 57.667 143 75s119.333 26 190 26c64 0 120.333 -5.5 169 -16.5s90 -28.5 124 -52.5c25.333 12 48.833 21.833 70.5 29.5s44 13.667 67 18s47.833 7.33301 74.5 9s58 2.5 94 2.5h41v-190h-246zM810.998 1409
l-346.001 0.00195312v311c0 50 8 93.167 24 129.5s37.5 67.666 64.5 93.999s58.5 48.333 94.5 66s74 32.5 114 44.5l48 -106c-29.333 -10.667 -53.833 -21.5 -73.5 -32.5s-35.667 -23.333 -48 -37s-21.166 -29.334 -26.499 -47.001s-8 -38.5 -8 -62.5h157v-360z" />
    <glyph glyph-name="Hcircumflex" unicode="&#x124;" horiz-adv-x="1588" 
d="M1145 744h-703v-744h-287v1602h287v-684h703v684h287v-1602h-287v744zM883 2340l279 -570l-205 -39l-164 387l-164 -387l-204 39l279 570h179z" />
    <glyph glyph-name="hcircumflex" unicode="&#x125;" horiz-adv-x="1337" 
d="M427 1039c27.333 31.333 54.667 58.0029 82 80.0029s55.5 39.833 84.5 53.5s59.167 23.5 90.5 29.5s64.666 9 99.999 9c80.667 0 147.667 -13 201 -39s96 -62.333 128 -109s54.5 -102.334 67.5 -167.001s19.5 -135.334 19.5 -212.001v-684h-275v696
c0 108.667 -15.5 190.167 -46.5 244.5s-82.167 81.5 -153.5 81.5c-38.667 0 -73.5 -4 -104.5 -12s-58.667 -18 -83 -30s-45.666 -25.333 -63.999 -40s-33.833 -28.334 -46.5 -41.001v-899h-275v1648l275 50v-659zM943.001 1809l279 -570l-205 -39l-164 387l-164 -387
l-204 39l279 570h179z" />
    <glyph glyph-name="Hbar" unicode="&#x126;" horiz-adv-x="1588" 
d="M66 1176v202h1452v-202h-1452zM1145 744h-703v-744h-287v1602h287v-684h703v684h287v-1602h-287v744z" />
    <glyph glyph-name="hbar" unicode="&#x127;" horiz-adv-x="1337" 
d="M427 1039c27.333 31.333 54.667 58.0029 82 80.0029s55.5 39.833 84.5 53.5s59.167 23.5 90.5 29.5s64.666 9 99.999 9c80.667 0 147.667 -13 201 -39s96 -62.333 128 -109s54.5 -102.334 67.5 -167.001s19.5 -135.334 19.5 -212.001v-684h-275v696
c0 108.667 -15.5 190.167 -46.5 244.5s-82.167 81.5 -153.5 81.5c-38.667 0 -73.5 -4 -104.5 -12s-58.667 -18 -83 -30s-45.666 -25.333 -63.999 -40s-33.833 -28.334 -46.5 -41.001v-899h-275v1648l275 50v-659zM57.001 1379v202h564v-202h-564z" />
    <glyph glyph-name="Itilde" unicode="&#x128;" horiz-adv-x="835" 
d="M278 143v1312h-190v147h663v-147h-192v-1312h192v-143h-663v143h190zM628 1746c-24 0 -48.332 3.33008 -72.999 9.99707s-49 14.834 -73 24.501s-47.333 20.334 -70 32.001l-64.5 32c-20.333 9.66699 -38.833 17.834 -55.5 24.501s-31 10 -43 10
c-18 0 -32.667 -8.16699 -44 -24.5s-17 -47.166 -17 -92.499h-185c0 202.667 73 304 219 304c39.333 0 76.833 -6.83301 112.5 -20.5s69.5 -28.834 101.5 -45.501l89 -45.5c27.333 -13.667 52.333 -20.5 75 -20.5c15.333 0 27 7.5 35 22.5s12 42.5 12 82.5h191
c0 -93.333 -18.333 -165.5 -55 -216.5s-88.334 -76.5 -155.001 -76.5z" />
    <glyph glyph-name="itilde" unicode="&#x129;" horiz-adv-x="540" 
d="M177 1169h182v-1169h-182v1169zM479 1285c-24 0 -48.332 3.33008 -72.999 9.99707s-49 14.834 -73 24.501s-47.333 20.334 -70 32.001l-64.5 32c-20.333 9.66699 -38.833 17.834 -55.5 24.501s-31 10 -43 10c-18 0 -32.667 -8.16699 -44 -24.5s-17 -47.166 -17 -92.499
h-185c0 202.667 73 304 219 304c39.333 0 76.833 -6.83301 112.5 -20.5s69.5 -28.834 101.5 -45.501l89 -45.5c27.333 -13.667 52.333 -20.5 75 -20.5c15.333 0 27 7.5 35 22.5s12 42.5 12 82.5h191c0 -93.333 -18.333 -165.5 -55 -216.5s-88.334 -76.5 -155.001 -76.5z" />
    <glyph glyph-name="Imacron" unicode="&#x12a;" horiz-adv-x="835" 
d="M278 143v1312h-190v147h663v-147h-192v-1312h192v-143h-663v143h190zM143 1814v202h564v-202h-564z" />
    <glyph glyph-name="imacron" unicode="&#x12b;" horiz-adv-x="540" 
d="M177 1169h182v-1169h-182v1169zM-11 1314v202h564v-202h-564z" />
    <glyph glyph-name="Iogonek" unicode="&#x12e;" horiz-adv-x="835" 
d="M278 143v1312h-190v147h663v-147h-192v-1312h192v-143h-663v143h190zM581 -555c-26 -12 -53 -22.666 -81 -31.999c-24 -8 -51.333 -15.333 -82 -22s-61.667 -10 -93 -10c-28 0 -55.333 3.83301 -82 11.5s-50.334 21 -71.001 40s-37.167 44.833 -49.5 77.5
s-18.5 74 -18.5 124c0 22.667 4.33301 45.5 13 68.5s20 45.667 34 68s30 44 48 65s36.333 40.833 55 59.5c44 43.333 94 85 150 125h126c-48.667 -54 -92 -105.333 -130 -154l-47.5 -64.5c-15.667 -21.667 -29.667 -42.834 -42 -63.501s-22.166 -40 -29.499 -58
s-11 -33.333 -11 -46c0 -23.333 3 -42.5 9 -57.5s14 -27.167 24 -36.5s21.833 -15.833 35.5 -19.5s28.167 -5.5 43.5 -5.5c22 0 44.833 3 68.5 9s45.167 12.667 64.5 20c22.667 8.66699 44.667 18.667 66 30v-129z" />
    <glyph glyph-name="iogonek" unicode="&#x12f;" horiz-adv-x="603" 
d="M167 0v1182h271v-1182h-271zM149 1558c0 22 4.00195 42.665 12.002 61.998s19 36 33 50s30.333 25.167 49 33.5s38.667 12.5 60 12.5c22 0 42.5 -4.16699 61.5 -12.5s35.5 -19.666 49.5 -33.999s25 -31.166 33 -50.499s12 -39.666 12 -60.999
c0 -22 -4.16699 -42.667 -12.5 -62s-19.666 -36 -33.999 -50s-31 -25 -50 -33s-38.833 -12 -59.5 -12c-22.667 0 -43.334 4.16699 -62.001 12.5s-34.834 19.666 -48.501 33.999s-24.334 31 -32.001 50s-11.5 39.167 -11.5 60.5zM467.002 -555.002
c-26 -12 -53 -22.666 -81 -31.999c-24 -8 -51.333 -15.333 -82 -22s-61.667 -10 -93 -10c-28 0 -55.333 3.83301 -82 11.5s-50.334 21 -71.001 40s-37.167 44.833 -49.5 77.5s-18.5 74 -18.5 124c0 22.667 4.33301 45.5 13 68.5s20 45.667 34 68s30 44 48 65
s36.333 40.833 55 59.5c44 43.333 94 85 150 125h126c-48.667 -54 -92 -105.333 -130 -154l-47.5 -64.5c-15.667 -21.667 -29.667 -42.834 -42 -63.501s-22.166 -40 -29.499 -58s-11 -33.333 -11 -46c0 -23.333 3 -42.5 9 -57.5s14 -27.167 24 -36.5
s21.833 -15.833 35.5 -19.5s28.167 -5.5 43.5 -5.5c22 0 44.833 3 68.5 9s45.167 12.667 64.5 20c22.667 8.66699 44.667 18.667 66 30v-129z" />
    <glyph glyph-name="Idotaccent" unicode="&#x130;" horiz-adv-x="835" 
d="M278 143v1312h-190v147h663v-147h-192v-1312h192v-143h-663v143h190zM242 2117h346v-360h-346v360z" />
    <glyph glyph-name="dotlessi" unicode="&#x131;" horiz-adv-x="540" 
d="M177 1169h182v-1169h-182v1169z" />
    <glyph glyph-name="Jcircumflex" unicode="&#x134;" horiz-adv-x="808" 
d="M40 97c68 10.667 123.331 25.167 165.998 43.5s75.834 43 99.501 74s39.667 69.5 48 115.5s12.5 102.667 12.5 170v1102h287v-1084c0 -94 -8.5 -177.333 -25.5 -250s-46.167 -134.5 -87.5 -185.5s-96.666 -91 -165.999 -120s-156 -46.5 -260 -52.5zM557.998 2340
l279 -570l-205 -39l-164 387l-164 -387l-204 39l279 570h179z" />
    <glyph glyph-name="jcircumflex" unicode="&#x135;" horiz-adv-x="638" 
d="M5 -187c42 26 76.167 53.667 102.5 83s46.666 62.833 60.999 100.5s24.166 80 29.499 127s8 100.833 8 161.5v897h276v-1001c0 -71.333 -10 -137.333 -30 -198s-47.667 -114.667 -83 -162s-77.166 -87 -125.499 -119s-101.166 -54.667 -158.499 -68zM452 1905l279 -570
l-205 -39l-164 387l-164 -387l-204 39l279 570h179z" />
    <glyph glyph-name="Kcommaaccent" unicode="&#x136;" horiz-adv-x="1455" 
d="M442 0h-287v1602h287v-714h154l470 714h303l-546 -795l607 -807h-322l-520 719h-146v-719zM604 -110h346.001v-311c0 -50 -8 -93.333 -24 -130s-37.5 -68 -64.5 -94s-58.5 -47.833 -94.5 -65.5s-74 -32.5 -114 -44.5l-48 106c28.667 10 53 20.5 73 31.5
s36.167 23.5 48.5 37.5s21.166 29.833 26.499 47.5s8 38.5 8 62.5h-157v360z" />
    <glyph glyph-name="kcommaaccent" unicode="&#x137;" horiz-adv-x="1306" 
d="M427 0h-275v1653l275 43v-1004l506 490h309l-540 -524l562 -658h-314l-417 533l-106 -93v-440zM520 -110h346.001v-311c0 -50 -8 -93.333 -24 -130s-37.5 -68 -64.5 -94s-58.5 -47.833 -94.5 -65.5s-74 -32.5 -114 -44.5l-48 106c28.667 10 53 20.5 73 31.5
s36.167 23.5 48.5 37.5s21.166 29.833 26.499 47.5s8 38.5 8 62.5h-157v360z" />
    <glyph glyph-name="Lacute" unicode="&#x139;" horiz-adv-x="1210" 
d="M155 0v1602h287v-1410h724v-192h-1011zM563 1788l184 622l277 -121l-352 -552z" />
    <glyph glyph-name="lacute" unicode="&#x13a;" horiz-adv-x="602" 
d="M438 0h-276v1653l276 43v-1696zM204 1792l184 622l277 -121l-352 -552z" />
    <glyph glyph-name="Lcommaaccent" unicode="&#x13b;" horiz-adv-x="1210" 
d="M155 0v1602h287v-1410h724v-192h-1011zM472 -110h346.001v-311c0 -50 -8 -93.333 -24 -130s-37.5 -68 -64.5 -94s-58.5 -47.833 -94.5 -65.5s-74 -32.5 -114 -44.5l-48 106c28.667 10 53 20.5 73 31.5s36.167 23.5 48.5 37.5s21.166 29.833 26.499 47.5s8 38.5 8 62.5
h-157v360z" />
    <glyph glyph-name="lcommaaccent" unicode="&#x13c;" horiz-adv-x="602" 
d="M438 0h-276v1653l276 43v-1696zM112 -110h346.001v-311c0 -50 -8 -93.333 -24 -130s-37.5 -68 -64.5 -94s-58.5 -47.833 -94.5 -65.5s-74 -32.5 -114 -44.5l-48 106c28.667 10 53 20.5 73 31.5s36.167 23.5 48.5 37.5s21.166 29.833 26.499 47.5s8 38.5 8 62.5h-157v360z
" />
    <glyph glyph-name="Lcaron" unicode="&#x13d;" horiz-adv-x="1210" 
d="M155 0v1602h287v-1410h724v-192h-1011zM533 1605h346.001v-311c0 -49.333 -7.83301 -92.333 -23.5 -129s-37 -68.167 -64 -94.5s-58.5 -48.333 -94.5 -66s-74.333 -32.5 -115 -44.5l-48 106c28.667 10 53 20.5 73 31.5s36.167 23.5 48.5 37.5s21.166 29.833 26.499 47.5
s8 38.5 8 62.5h-157v360z" />
    <glyph glyph-name="lcaron" unicode="&#x13e;" horiz-adv-x="1135" 
d="M438 0h-276v1653l276 43v-1696zM688 1602h346.001v-311c0 -49.333 -7.83301 -92.333 -23.5 -129s-37 -68.167 -64 -94.5s-58.5 -48.333 -94.5 -66s-74.333 -32.5 -115 -44.5l-48 106c28.667 10 53 20.5 73 31.5s36.167 23.5 48.5 37.5s21.166 29.833 26.499 47.5
s8 38.5 8 62.5h-157v360z" />
    <glyph glyph-name="Lslash" unicode="&#x141;" horiz-adv-x="1210" 
d="M155 0v1602h287v-1410h724v-192h-1011zM0 982h595v-207h-595v207z" />
    <glyph glyph-name="lslash" unicode="&#x142;" horiz-adv-x="602" 
d="M438 0h-276v1653l276 43v-1696zM5 780h595v-207h-595v207z" />
    <glyph glyph-name="Nacute" unicode="&#x143;" horiz-adv-x="1642" 
d="M1165 0l-744 1255v-1255h-266v1602h334l732 -1242v1242h265v-1602h-321zM723 1788l184 622l277 -121l-352 -552z" />
    <glyph glyph-name="nacute" unicode="&#x144;" horiz-adv-x="1321" 
d="M405 1011c18 28 40.498 54.166 67.498 78.499s57 45.5 90 63.5s68.167 32.167 105.5 42.5s75 15.5 113 15.5c72 0 133.333 -10.333 184 -31s92.334 -51 125.001 -91s56.5 -89.667 71.5 -149s22.5 -127.666 22.5 -204.999v-735h-275v748
c0 92.667 -15.167 161.5 -45.5 206.5s-80.166 67.5 -149.499 67.5c-28 0 -56.667 -4.66699 -86 -14s-57 -21 -83 -35s-49.333 -29.333 -70 -46s-36.667 -32 -48 -46v-881h-275v1182h207zM570.998 1353l184 622l277 -121l-352 -552z" />
    <glyph glyph-name="Ncommaaccent" unicode="&#x145;" horiz-adv-x="1642" 
d="M1165 0l-744 1255v-1255h-266v1602h334l732 -1242v1242h265v-1602h-321zM632 -110h346.001v-311c0 -50 -8 -93.333 -24 -130s-37.5 -68 -64.5 -94s-58.5 -47.833 -94.5 -65.5s-74 -32.5 -114 -44.5l-48 106c28.667 10 53 20.5 73 31.5s36.167 23.5 48.5 37.5
s21.166 29.833 26.499 47.5s8 38.5 8 62.5h-157v360z" />
    <glyph glyph-name="ncommaaccent" unicode="&#x146;" horiz-adv-x="1321" 
d="M405 1011c18 28 40.498 54.166 67.498 78.499s57 45.5 90 63.5s68.167 32.167 105.5 42.5s75 15.5 113 15.5c72 0 133.333 -10.333 184 -31s92.334 -51 125.001 -91s56.5 -89.667 71.5 -149s22.5 -127.666 22.5 -204.999v-735h-275v748
c0 92.667 -15.167 161.5 -45.5 206.5s-80.166 67.5 -149.499 67.5c-28 0 -56.667 -4.66699 -86 -14s-57 -21 -83 -35s-49.333 -29.333 -70 -46s-36.667 -32 -48 -46v-881h-275v1182h207zM479.998 -110.001h346.001v-311c0 -50 -8 -93.333 -24 -130s-37.5 -68 -64.5 -94
s-58.5 -47.833 -94.5 -65.5s-74 -32.5 -114 -44.5l-48 106c28.667 10 53 20.5 73 31.5s36.167 23.5 48.5 37.5s21.166 29.833 26.499 47.5s8 38.5 8 62.5h-157v360z" />
    <glyph glyph-name="Ncaron" unicode="&#x147;" horiz-adv-x="1642" 
d="M1165 0l-744 1255v-1255h-266v1602h334l732 -1242v1242h265v-1602h-321zM731 1742l-279 570l205 39l164 -387l164 387l204 -39l-279 -570h-179z" />
    <glyph glyph-name="ncaron" unicode="&#x148;" horiz-adv-x="1321" 
d="M405 1011c18 28 40.498 54.166 67.498 78.499s57 45.5 90 63.5s68.167 32.167 105.5 42.5s75 15.5 113 15.5c72 0 133.333 -10.333 184 -31s92.334 -51 125.001 -91s56.5 -89.667 71.5 -149s22.5 -127.666 22.5 -204.999v-735h-275v748
c0 92.667 -15.167 161.5 -45.5 206.5s-80.166 67.5 -149.499 67.5c-28 0 -56.667 -4.66699 -86 -14s-57 -21 -83 -35s-49.333 -29.333 -70 -46s-36.667 -32 -48 -46v-881h-275v1182h207zM579.998 1307l-279 570l205 39l164 -387l164 387l204 -39l-279 -570h-179z" />
    <glyph glyph-name="Eng" unicode="&#x14a;" horiz-adv-x="1642" 
d="M873 -436c68 10.667 123.331 25.167 165.998 43.5s75.834 43 99.501 74s39.5 69.5 47.5 115.5c6 32.667 10 80.667 12 144l-777 1314v-1255h-266v1602h334l732 -1242v1242h265v-1617c0 -94 -8.5 -177.333 -25.5 -250s-46.167 -134.5 -87.5 -185.5
s-96.666 -91 -165.999 -120s-156 -46.5 -260 -52.5z" />
    <glyph glyph-name="eng" unicode="&#x14b;" horiz-adv-x="1321" 
d="M707 -227c42 26 76.167 53.832 102.5 83.499s46.833 63.167 61.5 100.5s24.667 79.5 30 126.5s8 100.833 8 161.5v503c0 93.333 -15 162.333 -45 207s-80 67 -150 67c-28 0 -56.667 -4.66699 -86 -14s-57 -21 -83 -35s-49.333 -29.333 -70 -46s-36.667 -32 -48 -46v-881
h-275v1182h207l46 -171c18 28 40.5 54.167 67.5 78.5s57 45.5 90 63.5s68.167 32.167 105.5 42.5s75 15.5 113 15.5c72 0 133.333 -10.333 184 -31s92.334 -51 125.001 -91s56.5 -89.667 71.5 -149s22.5 -127.666 22.5 -204.999v-594c0 -71.333 -10 -137.333 -30 -198
s-47.667 -114.667 -83 -162s-77.333 -87 -126 -119s-101.334 -54.667 -158.001 -68z" />
    <glyph glyph-name="Omacron" unicode="&#x14c;" horiz-adv-x="1595" 
d="M1492 809c0 -119.333 -12.001 -230.497 -36.001 -333.497s-63.167 -192.333 -117.5 -268s-125.833 -135.167 -214.5 -178.5s-197.667 -65 -327 -65c-86 0 -163 10 -231 30s-127.667 48.333 -179 85s-95 81 -131 133s-65.167 109.667 -87.5 173
s-38.666 131.833 -48.999 205.5s-15.5 150.5 -15.5 230.5c0 126 14.667 239.167 44 339.5s73 185.166 131 254.499s130.167 122.5 216.5 159.5s186.833 55.5 301.5 55.5c115.333 0 216.5 -18.5 303.5 -55.5s159.5 -90.833 217.5 -161.5s101.5 -156.834 130.5 -258.501
s43.5 -216.834 43.5 -345.501zM393.999 794.003c0 -95.333 7.5 -180.997 22.5 -256.997s38.667 -140.667 71 -194s74 -94.166 125 -122.499s112.5 -42.5 184.5 -42.5c70 0 130.5 13.5 181.5 40.5s93 66.667 126 119s57.333 116.666 73 192.999s23.5 164.166 23.5 263.499
c0 100 -7.66699 188.667 -23 266s-39.333 142.666 -72 195.999s-74.167 93.833 -124.5 121.5s-110.5 41.5 -180.5 41.5c-72 0 -133.667 -13.667 -185 -41s-93.5 -67.5 -126.5 -120.5s-57.167 -118.333 -72.5 -196s-23 -166.834 -23 -267.501zM520.999 1814.01v202h564v-202
h-564z" />
    <glyph glyph-name="omacron" unicode="&#x14d;" horiz-adv-x="1293" 
d="M644 156c54.667 0 100.501 11.166 137.501 33.499s66.667 53 89 92s38.166 84.333 47.499 136s14 107.167 14 166.5c0 58.667 -4.66699 114 -14 166s-25.166 97.5 -47.499 136.5s-52 70 -89 93s-82.833 34.5 -137.5 34.5s-100.334 -11.5 -137.001 -34.5
s-66.167 -54 -88.5 -93s-38.166 -84.667 -47.499 -137s-14 -107.5 -14 -165.5c0 -31.333 1.5 -63.5 4.5 -96.5s8.33301 -65.333 16 -97s18.167 -61.667 31.5 -90s30.666 -53.166 51.999 -74.499s47 -38.333 77 -51s65.333 -19 106 -19zM1201 583.999
c0 -84.667 -10.3311 -164.334 -30.998 -239.001s-53.167 -140 -97.5 -196s-101.833 -100.167 -172.5 -132.5s-156 -48.5 -256 -48.5s-185.333 16.167 -256 48.5s-128.5 76.5 -173.5 132.5s-77.833 121.333 -98.5 196s-31 154.334 -31 239.001
c0 85.333 10.5 165.666 31.5 240.999s54 141 99 197s102.667 100.333 173 133s155.166 49 254.499 49s184.166 -16.333 254.499 -49s128 -77 173 -133s78 -121.667 99 -197s31.5 -155.666 31.5 -240.999zM366.003 1379v202h564v-202h-564z" />
    <glyph glyph-name="Ohungarumlaut" unicode="&#x150;" horiz-adv-x="1595" 
d="M1492 809c0 -119.333 -12.001 -230.497 -36.001 -333.497s-63.167 -192.333 -117.5 -268s-125.833 -135.167 -214.5 -178.5s-197.667 -65 -327 -65c-86 0 -163 10 -231 30s-127.667 48.333 -179 85s-95 81 -131 133s-65.167 109.667 -87.5 173
s-38.666 131.833 -48.999 205.5s-15.5 150.5 -15.5 230.5c0 126 14.667 239.167 44 339.5s73 185.166 131 254.499s130.167 122.5 216.5 159.5s186.833 55.5 301.5 55.5c115.333 0 216.5 -18.5 303.5 -55.5s159.5 -90.833 217.5 -161.5s101.5 -156.834 130.5 -258.501
s43.5 -216.834 43.5 -345.501zM393.999 794.003c0 -95.333 7.5 -180.997 22.5 -256.997s38.667 -140.667 71 -194s74 -94.166 125 -122.499s112.5 -42.5 184.5 -42.5c70 0 130.5 13.5 181.5 40.5s93 66.667 126 119s57.333 116.666 73 192.999s23.5 164.166 23.5 263.499
c0 100 -7.66699 188.667 -23 266s-39.333 142.666 -72 195.999s-74.167 93.833 -124.5 121.5s-110.5 41.5 -180.5 41.5c-72 0 -133.667 -13.667 -185 -41s-93.5 -67.5 -126.5 -120.5s-57.167 -118.333 -72.5 -196s-23 -166.834 -23 -267.501zM557.999 1788.01l184 622
l277 -121l-352 -552zM940.999 1788.01l224 622l277 -121l-392 -552z" />
    <glyph glyph-name="ohungarumlaut" unicode="&#x151;" horiz-adv-x="1293" 
d="M644 156c54.667 0 100.501 11.166 137.501 33.499s66.667 53 89 92s38.166 84.333 47.499 136s14 107.167 14 166.5c0 58.667 -4.66699 114 -14 166s-25.166 97.5 -47.499 136.5s-52 70 -89 93s-82.833 34.5 -137.5 34.5s-100.334 -11.5 -137.001 -34.5
s-66.167 -54 -88.5 -93s-38.166 -84.667 -47.499 -137s-14 -107.5 -14 -165.5c0 -31.333 1.5 -63.5 4.5 -96.5s8.33301 -65.333 16 -97s18.167 -61.667 31.5 -90s30.666 -53.166 51.999 -74.499s47 -38.333 77 -51s65.333 -19 106 -19zM1201 583.999
c0 -84.667 -10.3311 -164.334 -30.998 -239.001s-53.167 -140 -97.5 -196s-101.833 -100.167 -172.5 -132.5s-156 -48.5 -256 -48.5s-185.333 16.167 -256 48.5s-128.5 76.5 -173.5 132.5s-77.833 121.333 -98.5 196s-31 154.334 -31 239.001
c0 85.333 10.5 165.666 31.5 240.999s54 141 99 197s102.667 100.333 173 133s155.166 49 254.499 49s184.166 -16.333 254.499 -49s128 -77 173 -133s78 -121.667 99 -197s31.5 -155.666 31.5 -240.999zM404.003 1353l184 622l277 -121l-352 -552zM787.003 1353l224 622
l277 -121l-392 -552z" />
    <glyph glyph-name="OE" unicode="&#x152;" horiz-adv-x="2314" 
d="M1203 0v1602h1036v-192h-750v-486h654v-174h-654v-561h761v-189h-1047zM1492 809c0 -119.333 -12.001 -230.497 -36.001 -333.497s-63.167 -192.333 -117.5 -268s-125.833 -135.167 -214.5 -178.5s-197.667 -65 -327 -65c-86 0 -163 10 -231 30s-127.667 48.333 -179 85
s-95 81 -131 133s-65.167 109.667 -87.5 173s-38.666 131.833 -48.999 205.5s-15.5 150.5 -15.5 230.5c0 126 14.667 239.167 44 339.5s73 185.166 131 254.499s130.167 122.5 216.5 159.5s186.833 55.5 301.5 55.5c115.333 0 216.5 -18.5 303.5 -55.5
s159.5 -90.833 217.5 -161.5s101.5 -156.834 130.5 -258.501s43.5 -216.834 43.5 -345.501zM393.999 794.003c0 -95.333 7.5 -180.997 22.5 -256.997s38.667 -140.667 71 -194s74 -94.166 125 -122.499s112.5 -42.5 184.5 -42.5c70 0 130.5 13.5 181.5 40.5
s93 66.667 126 119s57.333 116.666 73 192.999s23.5 164.166 23.5 263.499c0 100 -7.66699 188.667 -23 266s-39.333 142.666 -72 195.999s-74.167 93.833 -124.5 121.5s-110.5 41.5 -180.5 41.5c-72 0 -133.667 -13.667 -185 -41s-93.5 -67.5 -126.5 -120.5
s-57.167 -118.333 -72.5 -196s-23 -166.834 -23 -267.501z" />
    <glyph glyph-name="oe" unicode="&#x153;" horiz-adv-x="2042" 
d="M1728 689c0 220 -79.667 331.002 -239 333.002c-42 -0.666992 -79.5 -9.33398 -112.5 -26.001s-61 -39.5 -84 -68.5s-41 -63.833 -54 -104.5s-20.5 -85.334 -22.5 -134.001h512zM647 157.002c54 0 99.334 10.835 136.001 32.502s66.167 51.667 88.5 90
s38.5 83.5 48.5 135.5s15 108.667 15 170c0 60.667 -5 117.167 -15 169.5s-26.167 97.833 -48.5 136.5s-51.833 69 -88.5 91s-82 33 -136 33s-99.167 -11 -135.5 -33s-65.833 -52.333 -88.5 -91s-38.834 -84.167 -48.501 -136.5s-14.5 -108.833 -14.5 -169.5
c0 -32.667 1.5 -65.834 4.5 -99.501s8.5 -66.334 16.5 -98.001s18.833 -61.5 32.5 -89.5s31.167 -52.333 52.5 -73s46.833 -37.167 76.5 -49.5s64.5 -18.5 104.5 -18.5zM1901 86.0039c-29.333 -18 -60.5029 -33.667 -93.5029 -47s-66.667 -24.666 -101 -33.999
s-68.166 -16.333 -101.499 -21s-64.666 -7 -93.999 -7c-109.333 0 -199.333 19.167 -270 57.5s-125.667 94.166 -165 167.499c-16 -40 -38.833 -74.667 -68.5 -104s-63.5 -53.666 -101.5 -72.999s-79.167 -33.833 -123.5 -43.5s-89.5 -14.5 -135.5 -14.5
c-91.333 0 -171.833 14.667 -241.5 44s-128 71 -175 125s-82.5 118.833 -106.5 194.5s-36 159.834 -36 252.501c0 82.667 10.167 161.5 30.5 236.5s52.666 141 96.999 198s102 102.333 173 136s157.167 50.5 258.5 50.5c48.667 0 94.5 -4.5 137.5 -13.5
s82.667 -23.5 119 -43.5s68.666 -45.667 96.999 -77s51.833 -69.333 70.5 -114c23.333 44 48.666 82.167 75.999 114.5s57.5 58.833 90.5 79.5s69.333 36 109 46s83.834 15 132.501 15c76.667 0 144.834 -12.167 204.501 -36.5s109.834 -59.333 150.501 -105
s71.5 -101 92.5 -166s31.5 -137.833 31.5 -218.5c0 -25.333 -0.333008 -49.833 -1 -73.5s-1.66699 -46.834 -3 -69.501h-737c0.666992 -64.667 8.33398 -120.667 23.001 -168s35.5 -86.333 62.5 -117s60 -53.334 99 -68.001s82.833 -22 131.5 -22
c61.333 0 115.833 8.83301 163.5 26.5s94.167 44.167 139.5 79.5z" />
    <glyph glyph-name="Racute" unicode="&#x154;" horiz-adv-x="1448" 
d="M614 894c74.667 0 138.667 5.66699 192 17s97 28.5 131 51.5s59 51.667 75 86s24 74.5 24 120.5c0 56 -11.5 100 -34.5 132s-54.667 56.167 -95 72.5s-87.5 26.5 -141.5 30.5s-112 6 -174 6h-149v-516h172zM879 803c72.667 -8 137.173 -21.3311 193.506 -39.998
s103.666 -44.334 141.999 -77.001s67.333 -73 87 -121s29.5 -104.667 29.5 -170v-395h-285v415c0 67.333 -10.833 120.833 -32.5 160.5s-52.334 69.667 -92.001 90s-87.334 33.5 -143.001 39.5s-117.5 9 -185.5 9h-151v-714h-287v1602h449c129.333 0 239.666 -8 330.999 -24
s166 -40.5 224 -73.5s100.333 -74.833 127 -125.5s40 -110.667 40 -180s-11.167 -128.5 -33.5 -177.5s-53.333 -89.333 -93 -121s-86.834 -55.334 -141.501 -71.001s-114.334 -24.5 -179.001 -26.5zM646.006 1788l184 622l277 -121l-352 -552z" />
    <glyph glyph-name="racute" unicode="&#x155;" horiz-adv-x="844" 
d="M414 991c20 32 41.1699 60.332 63.5029 84.999s46.666 45.334 72.999 62.001s55.166 29.334 86.499 38.001s66 13 104 13c21.333 0 42.666 -1 63.999 -3v-229c-9.33301 4 -24 6.83301 -44 8.5s-41.667 2.5 -65 2.5c-48 0 -94.833 -11.833 -140.5 -35.5
s-88.5 -52.834 -128.5 -87.501v-845h-275v1182h226zM382.003 1353l184 622l277 -121l-352 -552z" />
    <glyph glyph-name="Rcommaaccent" unicode="&#x156;" horiz-adv-x="1448" 
d="M614 894c74.667 0 138.667 5.66699 192 17s97 28.5 131 51.5s59 51.667 75 86s24 74.5 24 120.5c0 56 -11.5 100 -34.5 132s-54.667 56.167 -95 72.5s-87.5 26.5 -141.5 30.5s-112 6 -174 6h-149v-516h172zM879 803c72.667 -8 137.173 -21.3311 193.506 -39.998
s103.666 -44.334 141.999 -77.001s67.333 -73 87 -121s29.5 -104.667 29.5 -170v-395h-285v415c0 67.333 -10.833 120.833 -32.5 160.5s-52.334 69.667 -92.001 90s-87.334 33.5 -143.001 39.5s-117.5 9 -185.5 9h-151v-714h-287v1602h449c129.333 0 239.666 -8 330.999 -24
s166 -40.5 224 -73.5s100.333 -74.833 127 -125.5s40 -110.667 40 -180s-11.167 -128.5 -33.5 -177.5s-53.333 -89.333 -93 -121s-86.834 -55.334 -141.501 -71.001s-114.334 -24.5 -179.001 -26.5zM555.006 -109.998h346.001v-311c0 -50 -8 -93.333 -24 -130
s-37.5 -68 -64.5 -94s-58.5 -47.833 -94.5 -65.5s-74 -32.5 -114 -44.5l-48 106c28.667 10 53 20.5 73 31.5s36.167 23.5 48.5 37.5s21.166 29.833 26.499 47.5s8 38.5 8 62.5h-157v360z" />
    <glyph glyph-name="rcommaaccent" unicode="&#x157;" horiz-adv-x="844" 
d="M414 991c20 32 41.1699 60.332 63.5029 84.999s46.666 45.334 72.999 62.001s55.166 29.334 86.499 38.001s66 13 104 13c21.333 0 42.666 -1 63.999 -3v-229c-9.33301 4 -24 6.83301 -44 8.5s-41.667 2.5 -65 2.5c-48 0 -94.833 -11.833 -140.5 -35.5
s-88.5 -52.834 -128.5 -87.501v-845h-275v1182h226zM290.003 -110.001h346.001v-311c0 -50 -8 -93.333 -24 -130s-37.5 -68 -64.5 -94s-58.5 -47.833 -94.5 -65.5s-74 -32.5 -114 -44.5l-48 106c28.667 10 53 20.5 73 31.5s36.167 23.5 48.5 37.5s21.166 29.833 26.499 47.5
s8 38.5 8 62.5h-157v360z" />
    <glyph glyph-name="Rcaron" unicode="&#x158;" horiz-adv-x="1448" 
d="M614 894c74.667 0 138.667 5.66699 192 17s97 28.5 131 51.5s59 51.667 75 86s24 74.5 24 120.5c0 56 -11.5 100 -34.5 132s-54.667 56.167 -95 72.5s-87.5 26.5 -141.5 30.5s-112 6 -174 6h-149v-516h172zM879 803c72.667 -8 137.173 -21.3311 193.506 -39.998
s103.666 -44.334 141.999 -77.001s67.333 -73 87 -121s29.5 -104.667 29.5 -170v-395h-285v415c0 67.333 -10.833 120.833 -32.5 160.5s-52.334 69.667 -92.001 90s-87.334 33.5 -143.001 39.5s-117.5 9 -185.5 9h-151v-714h-287v1602h449c129.333 0 239.666 -8 330.999 -24
s166 -40.5 224 -73.5s100.333 -74.833 127 -125.5s40 -110.667 40 -180s-11.167 -128.5 -33.5 -177.5s-53.333 -89.333 -93 -121s-86.834 -55.334 -141.501 -71.001s-114.334 -24.5 -179.001 -26.5zM654.006 1742l-279 570l205 39l164 -387l164 387l204 -39l-279 -570h-179z
" />
    <glyph glyph-name="rcaron" unicode="&#x159;" horiz-adv-x="844" 
d="M414 991c20 32 41.1699 60.332 63.5029 84.999s46.666 45.334 72.999 62.001s55.166 29.334 86.499 38.001s66 13 104 13c21.333 0 42.666 -1 63.999 -3v-229c-9.33301 4 -24 6.83301 -44 8.5s-41.667 2.5 -65 2.5c-48 0 -94.833 -11.833 -140.5 -35.5
s-88.5 -52.834 -128.5 -87.501v-845h-275v1182h226zM390.003 1307l-279 570l205 39l164 -387l164 387l204 -39l-279 -570h-179z" />
    <glyph glyph-name="Sacute" unicode="&#x15a;" horiz-adv-x="1314" 
d="M1234 439c0 -67.333 -10.999 -129.832 -32.999 -187.499s-56.667 -107.834 -104 -150.501s-108 -76 -182 -100s-162.667 -36 -266 -36c-70.667 0 -137.167 6.83301 -199.5 20.5s-117.5 28.834 -165.5 45.501c-56 19.333 -107.333 41.666 -154 66.999l49 208
c0 -1.33301 7 -5.33301 21 -12s33.167 -14.5 57.5 -23.5s52.5 -18.833 84.5 -29.5s66.167 -20.334 102.5 -29.001s73.666 -16 111.999 -22s75.5 -9 111.5 -9c44 0 83.833 4 119.5 12s66 20.833 91 38.5s44.333 40.5 58 68.5s20.5 62.333 20.5 103
c0 60 -16.333 109.667 -49 149s-82.334 71.666 -149.001 96.999l-343 134c-47.333 18.667 -91.333 40.667 -132 66s-75.834 54.833 -105.501 88.5s-53 71.834 -70 114.501s-25.5 90.667 -25.5 144c0 76.667 15.167 142.334 45.5 197.001s71 99.667 122 135
s110.333 61.333 178 78s138.5 25 212.5 25c64.667 0 125.167 -5.33301 181.5 -16s107 -23.167 152 -37.5s83.167 -28.833 114.5 -43.5s54 -26 68 -34l-58 -198c-12 7.33301 -32.167 17.5 -60.5 30.5s-61.666 25.833 -99.999 38.5s-80.166 23.667 -125.499 33
s-91.333 14 -138 14c-47.333 0 -90.5 -3.16699 -129.5 -9.5s-72.5 -17.166 -100.5 -32.499s-49.833 -36 -65.5 -62s-23.5 -58.333 -23.5 -97c0 -18 2.5 -35.333 7.5 -52s13.5 -32.5 25.5 -47.5s28.167 -29.333 48.5 -43s46.166 -26.5 77.499 -38.5l340 -127
c54.667 -20.667 105.334 -45.334 152.001 -74.001s86.667 -62.167 120 -100.5s59.5 -82 78.5 -131s28.5 -103.833 28.5 -164.5zM561.001 1788l184 622l277 -121l-352 -552z" />
    <glyph glyph-name="sacute" unicode="&#x15b;" horiz-adv-x="1050" 
d="M339 564c-34.667 12.667 -67.3301 27.666 -97.9971 44.999s-57.5 38.5 -80.5 63.5s-41.167 54.833 -54.5 89.5s-20 75.667 -20 123c0 52 11 98.333 33 139s52.333 74.834 91 102.501s84.5 48.667 137.5 63s110.5 21.5 172.5 21.5c49.333 0 97.666 -4.66699 144.999 -14
s90.166 -20.166 128.499 -32.499s70.333 -24.5 96 -36.5s41.834 -20.667 48.501 -26l-65 -178c-10 8 -27.333 17.5 -52 28.5s-52.834 21.667 -84.501 32s-65.5 19.166 -101.5 26.499s-70.667 11 -104 11c-35.333 0 -65.833 -3.5 -91.5 -10.5s-46.667 -16.5 -63 -28.5
s-28.333 -26.167 -36 -42.5s-11.5 -34.166 -11.5 -53.499c0 -15.333 2.66699 -29 8 -41s13.333 -22.667 24 -32s24 -18 40 -26s34.667 -16 56 -24l188 -69c52 -19.333 98.333 -40.166 139 -62.499s75.334 -47.666 104.001 -75.999s50.5 -60.166 65.5 -95.499
s22.5 -75.333 22.5 -120c0 -57.333 -10.5 -108.5 -31.5 -153.5s-51 -83.167 -90 -114.5s-86 -55.333 -141 -72s-116.833 -25 -185.5 -25c-57.333 0 -110.833 5.16699 -160.5 15.5s-93.667 22 -132 35s-70 25.833 -95 38.5s-40.833 21.667 -47.5 27l65 181
c7.33301 -6 23.666 -14.833 48.999 -26.5s55 -23.5 89 -35.5s70.167 -22.333 108.5 -31s74.5 -13 108.5 -13c26.667 0 52.667 2.5 78 7.5s47.666 13.667 66.999 26s34.833 28.666 46.5 48.999s17.5 46.166 17.5 77.499c0 35.333 -13.667 64.666 -41 87.999
s-64 43.666 -110 60.999zM435.004 1353l184 622l277 -121l-352 -552z" />
    <glyph glyph-name="Scircumflex" unicode="&#x15c;" horiz-adv-x="1314" 
d="M1234 439c0 -67.333 -10.999 -129.832 -32.999 -187.499s-56.667 -107.834 -104 -150.501s-108 -76 -182 -100s-162.667 -36 -266 -36c-70.667 0 -137.167 6.83301 -199.5 20.5s-117.5 28.834 -165.5 45.501c-56 19.333 -107.333 41.666 -154 66.999l49 208
c0 -1.33301 7 -5.33301 21 -12s33.167 -14.5 57.5 -23.5s52.5 -18.833 84.5 -29.5s66.167 -20.334 102.5 -29.001s73.666 -16 111.999 -22s75.5 -9 111.5 -9c44 0 83.833 4 119.5 12s66 20.833 91 38.5s44.333 40.5 58 68.5s20.5 62.333 20.5 103
c0 60 -16.333 109.667 -49 149s-82.334 71.666 -149.001 96.999l-343 134c-47.333 18.667 -91.333 40.667 -132 66s-75.834 54.833 -105.501 88.5s-53 71.834 -70 114.501s-25.5 90.667 -25.5 144c0 76.667 15.167 142.334 45.5 197.001s71 99.667 122 135
s110.333 61.333 178 78s138.5 25 212.5 25c64.667 0 125.167 -5.33301 181.5 -16s107 -23.167 152 -37.5s83.167 -28.833 114.5 -43.5s54 -26 68 -34l-58 -198c-12 7.33301 -32.167 17.5 -60.5 30.5s-61.666 25.833 -99.999 38.5s-80.166 23.667 -125.499 33
s-91.333 14 -138 14c-47.333 0 -90.5 -3.16699 -129.5 -9.5s-72.5 -17.166 -100.5 -32.499s-49.833 -36 -65.5 -62s-23.5 -58.333 -23.5 -97c0 -18 2.5 -35.333 7.5 -52s13.5 -32.5 25.5 -47.5s28.167 -29.333 48.5 -43s46.166 -26.5 77.499 -38.5l340 -127
c54.667 -20.667 105.334 -45.334 152.001 -74.001s86.667 -62.167 120 -100.5s59.5 -82 78.5 -131s28.5 -103.833 28.5 -164.5zM749.001 2340l279 -570l-205 -39l-164 387l-164 -387l-204 39l279 570h179z" />
    </font>
</defs>
</svg>
